<?xml version='1.0' encoding='utf-8'?>
<svg height="350.0mm" viewBox="0.0 0.0 250.0 350.0" width="250.0mm" 
xmlns="http://www.w3.org/2000/svg" xmlns:cc="http://creativecommons.org/ns#" xmlns:dc="http://purl.org/dc/elements/1.1/"
xmlns:inkscape="http://www.inkscape.org/namespaces/inkscape" xmlns:rdf="http://www.w3.org/1999/02/22-rdf-syntax-ns#"
xmlns:svg="http://www.w3.org/2000/svg" xmlns:xlink="http://www.w3.org/1999/xlink">

<g id="p-0" style="fill:none;stroke-linecap:round;stroke-linejoin:round;">
  <path d = "M8.175 10.000 l4.150 0.000 l0.000 -3.175 l5.350 0.000 l-0.000 3.175 l4.650 0.000 l0.000 -3.175 l5.350 0.000 l-0.000 3.175 l4.650 0.000 l0.000 -3.175 l5.350 0.000 l-0.000 3.175 l4.650 0.000 l0.000 -3.175 l5.350 0.000 l-0.000 3.175 l4.150 0.000 l0.000 4.150 l3.175 0.000 l0.000 5.350 l-3.175 -0.000 l0.000 4.650 l3.175 0.000 l0.000 5.350 l-3.175 -0.000 l0.000 4.650 l3.175 0.000 l0.000 5.350 l-3.175 -0.000 l0.000 4.650 l3.175 0.000 l0.000 5.350 l-3.175 -0.000 l0.000 4.150 l-4.150 0.000 l0.000 3.175 l-5.350 0.000 l-0.000 -3.175 l-4.650 0.000 l0.000 3.175 l-5.350 0.000 l-0.000 -3.175 l-4.650 0.000 l0.000 3.175 l-5.350 0.000 l-0.000 -3.175 l-4.650 0.000 l0.000 3.175 l-5.350 0.000 l-0.000 -3.175 l-4.150 0.000 l0.000 -4.150 l-3.175 0.000 l0.000 -5.350 l3.175 -0.000 l0.000 -4.650 l-3.175 0.000 l0.000 -5.350 l3.175 -0.000 l0.000 -4.650 l-3.175 0.000 l0.000 -5.350 l3.175 -0.000 l0.000 -4.650 l-3.175 0.000 l0.000 -5.350 l3.175 -0.000 l0.000 -4.150 Z" stroke="rgb(0,0,0)" stroke-width="0.1"/>
<text dominant-baseline="middle" font-size="20px" style="font-family: sans-serif ; font-weight: bold; font-style: normal; fill: rgb(0,0,0)" text-anchor="middle" transform="matrix( 1.000 0.000 0.000 1.000 30.0 33.4125 )"></text>
</g>
<g id="p-1" style="fill:none;stroke-linecap:round;stroke-linejoin:round;">
  <path d = "M63.175 10.000 l4.150 0.000 l0.000 -3.175 l5.350 0.000 l-0.000 3.175 l4.650 0.000 l0.000 -3.175 l5.350 0.000 l-0.000 3.175 l4.650 0.000 l0.000 -3.175 l5.350 0.000 l-0.000 3.175 l4.650 0.000 l0.000 -3.175 l5.350 0.000 l-0.000 3.175 l4.150 0.000 l0.000 4.150 l3.175 0.000 l0.000 5.350 l-3.175 -0.000 l0.000 4.650 l3.175 0.000 l0.000 5.350 l-3.175 -0.000 l0.000 4.650 l3.175 0.000 l0.000 5.350 l-3.175 -0.000 l0.000 4.650 l3.175 0.000 l0.000 5.350 l-3.175 -0.000 l0.000 4.150 l-4.150 0.000 l0.000 3.175 l-5.350 0.000 l-0.000 -3.175 l-4.650 0.000 l0.000 3.175 l-5.350 0.000 l-0.000 -3.175 l-4.650 0.000 l0.000 3.175 l-5.350 0.000 l-0.000 -3.175 l-4.650 0.000 l0.000 3.175 l-5.350 0.000 l-0.000 -3.175 l-4.150 0.000 l0.000 -4.150 l-3.175 0.000 l0.000 -5.350 l3.175 -0.000 l0.000 -4.650 l-3.175 0.000 l0.000 -5.350 l3.175 -0.000 l0.000 -4.650 l-3.175 0.000 l0.000 -5.350 l3.175 -0.000 l0.000 -4.650 l-3.175 0.000 l0.000 -5.350 l3.175 -0.000 l0.000 -4.150 Z" stroke="rgb(0,0,0)" stroke-width="0.1"/>
<text dominant-baseline="middle" font-size="20px" style="font-family: sans-serif ; font-weight: bold; font-style: normal; fill: rgb(0,0,0)" text-anchor="middle" transform="matrix( 1.000 0.000 0.000 1.000 85.0 33.4125 )"></text>
</g>
<g id="p-2" style="fill:none;stroke-linecap:round;stroke-linejoin:round;">
  <path d = "M5.000 65.000 l7.325 0.000 l0.000 -3.175 l5.350 0.000 l-0.000 3.175 l4.650 0.000 l0.000 -3.175 l5.350 0.000 l-0.000 3.175 l4.650 0.000 l0.000 -3.175 l5.350 0.000 l-0.000 3.175 l4.650 0.000 l0.000 -3.175 l5.350 0.000 l-0.000 3.175 l7.325 0.000 l0.000 4.500 l-3.175 -0.000 l0.000 4.650 l3.175 0.000 l0.000 5.350 l-3.175 -0.000 l0.000 4.650 l3.175 0.000 l0.000 5.350 l-3.175 -0.000 l0.000 4.650 l3.175 0.000 l0.000 5.350 l-3.175 -0.000 l0.000 4.650 l3.175 0.000 l0.000 4.500 l-7.325 0.000 l0.000 3.175 l-5.350 0.000 l-0.000 -3.175 l-4.650 0.000 l0.000 3.175 l-5.350 0.000 l-0.000 -3.175 l-4.650 0.000 l0.000 3.175 l-5.350 0.000 l-0.000 -3.175 l-4.650 0.000 l0.000 3.175 l-5.350 0.000 l-0.000 -3.175 l-7.325 0.000 l0.000 -4.500 l3.175 -0.000 l0.000 -4.650 l-3.175 0.000 l0.000 -5.350 l3.175 -0.000 l0.000 -4.650 l-3.175 0.000 l0.000 -5.350 l3.175 -0.000 l0.000 -4.650 l-3.175 0.000 l0.000 -5.350 l3.175 -0.000 l0.000 -4.650 l-3.175 0.000 l0.000 -4.500 Z" stroke="rgb(0,0,0)" stroke-width="0.1"/>
<text dominant-baseline="middle" font-size="20px" style="font-family: sans-serif ; font-weight: bold; font-style: normal; fill: rgb(0,0,0)" text-anchor="middle" transform="matrix( 1.000 0.000 0.000 1.000 30.0 88.4125 )"></text>
</g>
<g id="p-3" style="fill:none;stroke-linecap:round;stroke-linejoin:round;">
  <path d = "M60.000 65.000 l7.325 0.000 l0.000 -3.175 l5.350 0.000 l-0.000 3.175 l4.650 0.000 l0.000 -3.175 l5.350 0.000 l-0.000 3.175 l4.650 0.000 l0.000 -3.175 l5.350 0.000 l-0.000 3.175 l4.650 0.000 l0.000 -3.175 l5.350 0.000 l-0.000 3.175 l7.325 0.000 l0.000 4.500 l-3.175 -0.000 l0.000 4.650 l3.175 0.000 l0.000 5.350 l-3.175 -0.000 l0.000 4.650 l3.175 0.000 l0.000 5.350 l-3.175 -0.000 l0.000 4.650 l3.175 0.000 l0.000 5.350 l-3.175 -0.000 l0.000 4.650 l3.175 0.000 l0.000 4.500 l-7.325 0.000 l0.000 3.175 l-5.350 0.000 l-0.000 -3.175 l-4.650 0.000 l0.000 3.175 l-5.350 0.000 l-0.000 -3.175 l-4.650 0.000 l0.000 3.175 l-5.350 0.000 l-0.000 -3.175 l-4.650 0.000 l0.000 3.175 l-5.350 0.000 l-0.000 -3.175 l-7.325 0.000 l0.000 -4.500 l3.175 -0.000 l0.000 -4.650 l-3.175 0.000 l0.000 -5.350 l3.175 -0.000 l0.000 -4.650 l-3.175 0.000 l0.000 -5.350 l3.175 -0.000 l0.000 -4.650 l-3.175 0.000 l0.000 -5.350 l3.175 -0.000 l0.000 -4.650 l-3.175 0.000 l0.000 -4.500 Z" stroke="rgb(0,0,0)" stroke-width="0.1"/>
<text dominant-baseline="middle" font-size="20px" style="font-family: sans-serif ; font-weight: bold; font-style: normal; fill: rgb(0,0,0)" text-anchor="middle" transform="matrix( 1.000 0.000 0.000 1.000 85.0 88.4125 )"></text>
</g>
<g id="p-4" style="fill:none;stroke-linecap:round;stroke-linejoin:round;">
  <path d = "M5.000 120.000 l7.675 0.000 l-0.000 3.175 l4.650 0.000 l0.000 -3.175 l5.350 0.000 l-0.000 3.175 l4.650 0.000 l0.000 -3.175 l5.350 0.000 l-0.000 3.175 l4.650 0.000 l0.000 -3.175 l5.350 0.000 l-0.000 3.175 l4.650 0.000 l0.000 -3.175 l7.675 0.000 l0.000 7.675 l-3.175 -0.000 l0.000 4.650 l3.175 0.000 l0.000 5.350 l-3.175 -0.000 l0.000 4.650 l3.175 0.000 l0.000 5.350 l-3.175 -0.000 l0.000 4.650 l3.175 0.000 l0.000 5.350 l-3.175 -0.000 l0.000 4.650 l3.175 0.000 l0.000 7.675 l-7.675 0.000 l-0.000 -3.175 l-4.650 0.000 l0.000 3.175 l-5.350 0.000 l-0.000 -3.175 l-4.650 0.000 l0.000 3.175 l-5.350 0.000 l-0.000 -3.175 l-4.650 0.000 l0.000 3.175 l-5.350 0.000 l-0.000 -3.175 l-4.650 0.000 l0.000 3.175 l-7.675 0.000 l0.000 -7.675 l3.175 -0.000 l0.000 -4.650 l-3.175 0.000 l0.000 -5.350 l3.175 -0.000 l0.000 -4.650 l-3.175 0.000 l0.000 -5.350 l3.175 -0.000 l0.000 -4.650 l-3.175 0.000 l0.000 -5.350 l3.175 -0.000 l0.000 -4.650 l-3.175 0.000 l0.000 -7.675 Z" stroke="rgb(0,0,0)" stroke-width="0.1"/>
</g>
<g id="p-5" style="fill:none;stroke-linecap:round;stroke-linejoin:round;">
  <path d = "M60.000 120.000 l7.675 0.000 l-0.000 3.175 l4.650 0.000 l0.000 -3.175 l5.350 0.000 l-0.000 3.175 l4.650 0.000 l0.000 -3.175 l5.350 0.000 l-0.000 3.175 l4.650 0.000 l0.000 -3.175 l5.350 0.000 l-0.000 3.175 l4.650 0.000 l0.000 -3.175 l7.675 0.000 l0.000 7.675 l-3.175 -0.000 l0.000 4.650 l3.175 0.000 l0.000 5.350 l-3.175 -0.000 l0.000 4.650 l3.175 0.000 l0.000 5.350 l-3.175 -0.000 l0.000 4.650 l3.175 0.000 l0.000 5.350 l-3.175 -0.000 l0.000 4.650 l3.175 0.000 l0.000 7.675 l-7.675 0.000 l-0.000 -3.175 l-4.650 0.000 l0.000 3.175 l-5.350 0.000 l-0.000 -3.175 l-4.650 0.000 l0.000 3.175 l-5.350 0.000 l-0.000 -3.175 l-4.650 0.000 l0.000 3.175 l-5.350 0.000 l-0.000 -3.175 l-4.650 0.000 l0.000 3.175 l-7.675 0.000 l0.000 -7.675 l3.175 -0.000 l0.000 -4.650 l-3.175 0.000 l0.000 -5.350 l3.175 -0.000 l0.000 -4.650 l-3.175 0.000 l0.000 -5.350 l3.175 -0.000 l0.000 -4.650 l-3.175 0.000 l0.000 -5.350 l3.175 -0.000 l0.000 -4.650 l-3.175 0.000 l0.000 -7.675 Z" stroke="rgb(0,0,0)" stroke-width="0.1"/>
</g>
</svg>