<?xml version='1.0' encoding='utf-8'?>
<svg height="350.0mm" viewBox="0.0 0.0 250.0 350.0" width="250.0mm" 
xmlns="http://www.w3.org/2000/svg" xmlns:cc="http://creativecommons.org/ns#" xmlns:dc="http://purl.org/dc/elements/1.1/"
xmlns:inkscape="http://www.inkscape.org/namespaces/inkscape" xmlns:rdf="http://www.w3.org/1999/02/22-rdf-syntax-ns#"
xmlns:svg="http://www.w3.org/2000/svg" xmlns:xlink="http://www.w3.org/1999/xlink">
<rect height="100%" width="100%" fill="rgba(255, 255, 255, 1)"/>
<g id="p-0" style="fill:none;stroke-linecap:round;stroke-linejoin:round;">
  <text dominant-baseline="hanging" font-size="4px" style="font-family: sans-serif ; font-weight: normal; font-style: normal; fill: rgb(255,0,0)" text-anchor="middle" transform="matrix( 1.000 0.000 0.000 1.000 55.100 65 )">Wall 1</text><path d = "M8.175 10.000 l10.825 0.000 l0.000 -3.175 l8.000 0.000 l-0.000 3.175 l8.000 0.000 l0.000 -3.175 l8.000 0.000 l-0.000 3.175 l8.000 0.000 l0.000 -3.175 l8.000 0.000 l-0.000 3.175 l8.000 0.000 l0.000 -3.175 l8.000 0.000 l-0.000 3.175 l8.000 0.000 l0.000 -3.175 l8.000 0.000 l-0.000 3.175 l10.825 0.000 l0.000 10.825 l3.175 0.000 l0.000 8.000 l-3.175 -0.000 l0.000 8.000 l3.175 0.000 l0.000 8.000 l-3.175 -0.000 l0.000 8.000 l3.175 0.000 l0.000 8.000 l-3.175 -0.000 l0.000 8.000 l3.175 0.000 l0.000 8.000 l-3.175 -0.000 l0.000 8.000 l3.175 0.000 l0.000 8.000 l-3.175 -0.000 l0.000 10.825 l-10.825 0.000 l0.000 3.175 l-8.000 0.000 l-0.000 -3.175 l-8.000 0.000 l0.000 3.175 l-8.000 0.000 l-0.000 -3.175 l-8.000 0.000 l0.000 3.175 l-8.000 0.000 l-0.000 -3.175 l-8.000 0.000 l0.000 3.175 l-8.000 0.000 l-0.000 -3.175 l-8.000 0.000 l0.000 3.175 l-8.000 0.000 l-0.000 -3.175 l-10.825 0.000 l0.000 -10.825 l-3.175 0.000 l0.000 -8.000 l3.175 -0.000 l0.000 -8.000 l-3.175 0.000 l0.000 -8.000 l3.175 -0.000 l0.000 -8.000 l-3.175 0.000 l0.000 -8.000 l3.175 -0.000 l0.000 -8.000 l-3.175 0.000 l0.000 -8.000 l3.175 -0.000 l0.000 -8.000 l-3.175 0.000 l0.000 -8.000 l3.175 -0.000 l0.000 -10.825 Z" stroke="rgb(0,0,0)" stroke-width="0.1"/>
</g>
<g id="p-1" style="fill:none;stroke-linecap:round;stroke-linejoin:round;">
  <text dominant-baseline="hanging" font-size="4px" style="font-family: sans-serif ; font-weight: normal; font-style: normal; fill: rgb(255,0,0)" text-anchor="middle" transform="matrix( 1.000 0.000 0.000 1.000 60.100 267.600 )">Wall 1</text><path d = "M113.175 10.000 l10.825 0.000 l0.000 -3.175 l8.000 0.000 l-0.000 3.175 l8.000 0.000 l0.000 -3.175 l8.000 0.000 l-0.000 3.175 l8.000 0.000 l0.000 -3.175 l8.000 0.000 l-0.000 3.175 l8.000 0.000 l0.000 -3.175 l8.000 0.000 l-0.000 3.175 l8.000 0.000 l0.000 -3.175 l8.000 0.000 l-0.000 3.175 l10.825 0.000 l0.000 10.825 l3.175 0.000 l0.000 8.000 l-3.175 -0.000 l0.000 8.000 l3.175 0.000 l0.000 8.000 l-3.175 -0.000 l0.000 8.000 l3.175 0.000 l0.000 8.000 l-3.175 -0.000 l0.000 8.000 l3.175 0.000 l0.000 8.000 l-3.175 -0.000 l0.000 8.000 l3.175 0.000 l0.000 8.000 l-3.175 -0.000 l0.000 10.825 l-10.825 0.000 l0.000 3.175 l-8.000 0.000 l-0.000 -3.175 l-8.000 0.000 l0.000 3.175 l-8.000 0.000 l-0.000 -3.175 l-8.000 0.000 l0.000 3.175 l-8.000 0.000 l-0.000 -3.175 l-8.000 0.000 l0.000 3.175 l-8.000 0.000 l-0.000 -3.175 l-8.000 0.000 l0.000 3.175 l-8.000 0.000 l-0.000 -3.175 l-10.825 0.000 l0.000 -10.825 l-3.175 0.000 l0.000 -8.000 l3.175 -0.000 l0.000 -8.000 l-3.175 0.000 l0.000 -8.000 l3.175 -0.000 l0.000 -8.000 l-3.175 0.000 l0.000 -8.000 l3.175 -0.000 l0.000 -8.000 l-3.175 0.000 l0.000 -8.000 l3.175 -0.000 l0.000 -8.000 l-3.175 0.000 l0.000 -8.000 l3.175 -0.000 l0.000 -10.825 Z" stroke="rgb(0,0,0)" stroke-width="0.1"/>
</g>
<g id="p-2" style="fill:none;stroke-linecap:round;stroke-linejoin:round;">
  <path d = "M5.000 115.000 l14.000 0.000 l0.000 -3.175 l8.000 0.000 l-0.000 3.175 l8.000 0.000 l0.000 -3.175 l8.000 0.000 l-0.000 3.175 l8.000 0.000 l0.000 -3.175 l8.000 0.000 l-0.000 3.175 l8.000 0.000 l0.000 -3.175 l8.000 0.000 l-0.000 3.175 l8.000 0.000 l0.000 -3.175 l8.000 0.000 l-0.000 3.175 l14.000 0.000 l0.000 10.825 l-3.175 -0.000 l0.000 8.000 l3.175 0.000 l0.000 8.000 l-3.175 -0.000 l0.000 8.000 l3.175 0.000 l0.000 8.000 l-3.175 -0.000 l0.000 8.000 l3.175 0.000 l0.000 8.000 l-3.175 -0.000 l0.000 8.000 l3.175 0.000 l0.000 8.000 l-3.175 -0.000 l0.000 8.000 l3.175 0.000 l0.000 10.825 l-14.000 0.000 l0.000 3.175 l-8.000 0.000 l-0.000 -3.175 l-8.000 0.000 l0.000 3.175 l-8.000 0.000 l-0.000 -3.175 l-8.000 0.000 l0.000 3.175 l-8.000 0.000 l-0.000 -3.175 l-8.000 0.000 l0.000 3.175 l-8.000 0.000 l-0.000 -3.175 l-8.000 0.000 l0.000 3.175 l-8.000 0.000 l-0.000 -3.175 l-14.000 0.000 l0.000 -10.825 l3.175 -0.000 l0.000 -8.000 l-3.175 0.000 l0.000 -8.000 l3.175 -0.000 l0.000 -8.000 l-3.175 0.000 l0.000 -8.000 l3.175 -0.000 l0.000 -8.000 l-3.175 0.000 l0.000 -8.000 l3.175 -0.000 l0.000 -8.000 l-3.175 0.000 l0.000 -8.000 l3.175 -0.000 l0.000 -8.000 l-3.175 0.000 l0.000 -10.825 Z" stroke="rgb(0,0,0)" stroke-width="0.1"/>
</g>
<g id="p-3" style="fill:none;stroke-linecap:round;stroke-linejoin:round;">
  <path d = "M110.000 115.000 l14.000 0.000 l0.000 -3.175 l8.000 0.000 l-0.000 3.175 l8.000 0.000 l0.000 -3.175 l8.000 0.000 l-0.000 3.175 l8.000 0.000 l0.000 -3.175 l8.000 0.000 l-0.000 3.175 l8.000 0.000 l0.000 -3.175 l8.000 0.000 l-0.000 3.175 l8.000 0.000 l0.000 -3.175 l8.000 0.000 l-0.000 3.175 l14.000 0.000 l0.000 10.825 l-3.175 -0.000 l0.000 8.000 l3.175 0.000 l0.000 8.000 l-3.175 -0.000 l0.000 8.000 l3.175 0.000 l0.000 8.000 l-3.175 -0.000 l0.000 8.000 l3.175 0.000 l0.000 8.000 l-3.175 -0.000 l0.000 8.000 l3.175 0.000 l0.000 8.000 l-3.175 -0.000 l0.000 8.000 l3.175 0.000 l0.000 10.825 l-14.000 0.000 l0.000 3.175 l-8.000 0.000 l-0.000 -3.175 l-8.000 0.000 l0.000 3.175 l-8.000 0.000 l-0.000 -3.175 l-8.000 0.000 l0.000 3.175 l-8.000 0.000 l-0.000 -3.175 l-8.000 0.000 l0.000 3.175 l-8.000 0.000 l-0.000 -3.175 l-8.000 0.000 l0.000 3.175 l-8.000 0.000 l-0.000 -3.175 l-14.000 0.000 l0.000 -10.825 l3.175 -0.000 l0.000 -8.000 l-3.175 0.000 l0.000 -8.000 l3.175 -0.000 l0.000 -8.000 l-3.175 0.000 l0.000 -8.000 l3.175 -0.000 l0.000 -8.000 l-3.175 0.000 l0.000 -8.000 l3.175 -0.000 l0.000 -8.000 l-3.175 0.000 l0.000 -8.000 l3.175 -0.000 l0.000 -8.000 l-3.175 0.000 l0.000 -10.825 Z" stroke="rgb(0,0,0)" stroke-width="0.1"/>
</g>
<g id="p-4" style="fill:none;stroke-linecap:round;stroke-linejoin:round;">
  <path d = "M5.000 220.000 l14.000 0.000 l-0.000 3.175 l8.000 0.000 l0.000 -3.175 l8.000 0.000 l-0.000 3.175 l8.000 0.000 l0.000 -3.175 l8.000 0.000 l-0.000 3.175 l8.000 0.000 l0.000 -3.175 l8.000 0.000 l-0.000 3.175 l8.000 0.000 l0.000 -3.175 l8.000 0.000 l-0.000 3.175 l8.000 0.000 l0.000 -3.175 l14.000 0.000 l0.000 14.000 l-3.175 -0.000 l0.000 8.000 l3.175 0.000 l0.000 8.000 l-3.175 -0.000 l0.000 8.000 l3.175 0.000 l0.000 8.000 l-3.175 -0.000 l0.000 8.000 l3.175 0.000 l0.000 8.000 l-3.175 -0.000 l0.000 8.000 l3.175 0.000 l0.000 8.000 l-3.175 -0.000 l0.000 8.000 l3.175 0.000 l0.000 14.000 l-14.000 0.000 l-0.000 -3.175 l-8.000 0.000 l0.000 3.175 l-8.000 0.000 l-0.000 -3.175 l-8.000 0.000 l0.000 3.175 l-8.000 0.000 l-0.000 -3.175 l-8.000 0.000 l0.000 3.175 l-8.000 0.000 l-0.000 -3.175 l-8.000 0.000 l0.000 3.175 l-8.000 0.000 l-0.000 -3.175 l-8.000 0.000 l0.000 3.175 l-14.000 0.000 l0.000 -14.000 l3.175 -0.000 l0.000 -8.000 l-3.175 0.000 l0.000 -8.000 l3.175 -0.000 l0.000 -8.000 l-3.175 0.000 l0.000 -8.000 l3.175 -0.000 l0.000 -8.000 l-3.175 0.000 l0.000 -8.000 l3.175 -0.000 l0.000 -8.000 l-3.175 0.000 l0.000 -8.000 l3.175 -0.000 l0.000 -8.000 l-3.175 0.000 l0.000 -14.000 Z" stroke="rgb(0,0,0)" stroke-width="0.1"/>
</g>
<g id="p-5" style="fill:none;stroke-linecap:round;stroke-linejoin:round;">
  <path d = "M110.000 220.000 l106.350 0.000 l0.000 106.350 l-106.350 0.000 l0.000 -106.350 Z" stroke="rgb(0,0,0)" stroke-width="0.1"/>
<path d="M127.175 223.175 l8.000 0.000 l0.000 3.175 l-8.000 -0.000 l-0.000 -3.175 Z" stroke="rgb(0,0,0)" stroke-width="0.1"/>
<path d="M143.175 223.175 l8.000 0.000 l0.000 3.175 l-8.000 -0.000 l-0.000 -3.175 Z" stroke="rgb(0,0,0)" stroke-width="0.1"/>
<path d="M159.175 223.175 l8.000 0.000 l0.000 3.175 l-8.000 -0.000 l-0.000 -3.175 Z" stroke="rgb(0,0,0)" stroke-width="0.1"/>
<path d="M175.175 223.175 l8.000 0.000 l0.000 3.175 l-8.000 -0.000 l-0.000 -3.175 Z" stroke="rgb(0,0,0)" stroke-width="0.1"/>
<path d="M191.175 223.175 l8.000 0.000 l0.000 3.175 l-8.000 -0.000 l-0.000 -3.175 Z" stroke="rgb(0,0,0)" stroke-width="0.1"/>
<path d="M213.175 237.175 l0.000 8.000 l-3.175 0.000 l-0.000 -8.000 l3.175 -0.000 Z" stroke="rgb(0,0,0)" stroke-width="0.1"/>
<path d="M213.175 253.175 l0.000 8.000 l-3.175 0.000 l-0.000 -8.000 l3.175 -0.000 Z" stroke="rgb(0,0,0)" stroke-width="0.1"/>
<path d="M213.175 269.175 l0.000 8.000 l-3.175 0.000 l-0.000 -8.000 l3.175 -0.000 Z" stroke="rgb(0,0,0)" stroke-width="0.1"/>
<path d="M213.175 285.175 l0.000 8.000 l-3.175 0.000 l-0.000 -8.000 l3.175 -0.000 Z" stroke="rgb(0,0,0)" stroke-width="0.1"/>
<path d="M213.175 301.175 l0.000 8.000 l-3.175 0.000 l-0.000 -8.000 l3.175 -0.000 Z" stroke="rgb(0,0,0)" stroke-width="0.1"/>
<path d="M199.175 323.175 l-8.000 0.000 l0.000 -3.175 l8.000 -0.000 l-0.000 3.175 Z" stroke="rgb(0,0,0)" stroke-width="0.1"/>
<path d="M183.175 323.175 l-8.000 0.000 l0.000 -3.175 l8.000 -0.000 l-0.000 3.175 Z" stroke="rgb(0,0,0)" stroke-width="0.1"/>
<path d="M167.175 323.175 l-8.000 0.000 l0.000 -3.175 l8.000 -0.000 l-0.000 3.175 Z" stroke="rgb(0,0,0)" stroke-width="0.1"/>
<path d="M151.175 323.175 l-8.000 0.000 l0.000 -3.175 l8.000 -0.000 l-0.000 3.175 Z" stroke="rgb(0,0,0)" stroke-width="0.1"/>
<path d="M135.175 323.175 l-8.000 0.000 l0.000 -3.175 l8.000 -0.000 l-0.000 3.175 Z" stroke="rgb(0,0,0)" stroke-width="0.1"/>
<path d="M113.175 309.175 l0.000 -8.000 l3.175 0.000 l-0.000 8.000 l-3.175 -0.000 Z" stroke="rgb(0,0,0)" stroke-width="0.1"/>
<path d="M113.175 293.175 l0.000 -8.000 l3.175 0.000 l-0.000 8.000 l-3.175 -0.000 Z" stroke="rgb(0,0,0)" stroke-width="0.1"/>
<path d="M113.175 277.175 l0.000 -8.000 l3.175 0.000 l-0.000 8.000 l-3.175 -0.000 Z" stroke="rgb(0,0,0)" stroke-width="0.1"/>
<path d="M113.175 261.175 l0.000 -8.000 l3.175 0.000 l-0.000 8.000 l-3.175 -0.000 Z" stroke="rgb(0,0,0)" stroke-width="0.1"/>
<path d="M113.175 245.175 l0.000 -8.000 l3.175 0.000 l-0.000 8.000 l-3.175 -0.000 Z" stroke="rgb(0,0,0)" stroke-width="0.1"/>
</g>
</svg>