<?xml version='1.0' encoding='utf-8'?>
<svg height="350.0mm" viewBox="0.0 0.0 250.0 350.0" width="250.0mm" 
xmlns="http://www.w3.org/2000/svg" xmlns:cc="http://creativecommons.org/ns#" xmlns:dc="http://purl.org/dc/elements/1.1/"
xmlns:inkscape="http://www.inkscape.org/namespaces/inkscape" xmlns:rdf="http://www.w3.org/1999/02/22-rdf-syntax-ns#"
xmlns:svg="http://www.w3.org/2000/svg" xmlns:xlink="http://www.w3.org/1999/xlink">
<rect width="100%" height="100%" fill="white"/>
<g id="p-0" style="fill:none;stroke-linecap:round;stroke-linejoin:round;">
  <path d = "M8.175 13.175 l6.825 0.000 l0.000 -3.175 l10.000 0.000 l-0.000 3.175 l10.000 0.000 l0.000 -3.175 l10.000 0.000 l-0.000 3.175 l6.825 0.000 l0.000 4.325 l3.175 0.000 l0.000 10.000 l-3.175 -0.000 l0.000 10.000 l3.175 0.000 l0.000 10.000 l-3.175 -0.000 l0.000 10.000 l3.175 0.000 l0.000 10.000 l-3.175 -0.000 l0.000 10.000 l3.175 0.000 l0.000 10.000 l-3.175 -0.000 l0.000 4.325 l-6.825 0.000 l0.000 3.175 l-10.000 0.000 l-0.000 -3.175 l-10.000 0.000 l0.000 3.175 l-10.000 0.000 l-0.000 -3.175 l-6.825 0.000 l0.000 -4.325 l-3.175 0.000 l0.000 -10.000 l3.175 -0.000 l0.000 -10.000 l-3.175 0.000 l0.000 -10.000 l3.175 -0.000 l0.000 -10.000 l-3.175 0.000 l0.000 -10.000 l3.175 -0.000 l0.000 -10.000 l-3.175 0.000 l0.000 -10.000 l3.175 -0.000 l0.000 -4.325 Z" stroke="rgb(0,0,0)" stroke-width="0.1" />
</g>
<g id="p-1" style="fill:none;stroke-linecap:round;stroke-linejoin:round;">
  <path d = "M60.175 13.175 l10.000 0.000 l0.000 -3.175 l10.000 0.000 l-0.000 3.175 l10.000 0.000 l0.000 -3.175 l10.000 0.000 l-0.000 3.175 l10.000 0.000 l0.000 -3.175 l10.000 0.000 l-0.000 3.175 l10.000 0.000 l0.000 4.325 l-3.175 -0.000 l0.000 10.000 l3.175 0.000 l0.000 10.000 l-3.175 -0.000 l0.000 10.000 l3.175 0.000 l0.000 10.000 l-3.175 -0.000 l0.000 10.000 l3.175 0.000 l0.000 10.000 l-3.175 -0.000 l0.000 10.000 l3.175 0.000 l0.000 4.325 l-10.000 0.000 l0.000 3.175 l-10.000 0.000 l-0.000 -3.175 l-10.000 0.000 l0.000 3.175 l-10.000 0.000 l-0.000 -3.175 l-10.000 0.000 l0.000 3.175 l-10.000 0.000 l-0.000 -3.175 l-10.000 0.000 l0.000 -4.325 l3.175 -0.000 l0.000 -10.000 l-3.175 0.000 l0.000 -10.000 l3.175 -0.000 l0.000 -10.000 l-3.175 0.000 l0.000 -10.000 l3.175 -0.000 l0.000 -10.000 l-3.175 0.000 l0.000 -10.000 l3.175 -0.000 l0.000 -10.000 l-3.175 0.000 l0.000 -4.325 Z" stroke="rgb(0,0,0)" stroke-width="0.1" />
</g>
<g id="p-2" style="fill:none;stroke-linecap:round;stroke-linejoin:round;">
  <path d = "M5.000 103.175 l10.000 0.000 l0.000 -3.175 l10.000 0.000 l-0.000 3.175 l10.000 0.000 l0.000 -3.175 l10.000 0.000 l-0.000 3.175 l10.000 0.000 l0.000 -3.175 l10.000 0.000 l-0.000 3.175 l10.000 0.000 l0.000 4.325 l-3.175 -0.000 l0.000 10.000 l3.175 0.000 l0.000 10.000 l-3.175 -0.000 l0.000 10.000 l3.175 0.000 l0.000 10.000 l-3.175 -0.000 l0.000 10.000 l3.175 0.000 l0.000 10.000 l-3.175 -0.000 l0.000 10.000 l3.175 0.000 l0.000 4.325 l-10.000 0.000 l0.000 3.175 l-10.000 0.000 l-0.000 -3.175 l-10.000 0.000 l0.000 3.175 l-10.000 0.000 l-0.000 -3.175 l-10.000 0.000 l0.000 3.175 l-10.000 0.000 l-0.000 -3.175 l-10.000 0.000 l0.000 -4.325 l3.175 -0.000 l0.000 -10.000 l-3.175 0.000 l0.000 -10.000 l3.175 -0.000 l0.000 -10.000 l-3.175 0.000 l0.000 -10.000 l3.175 -0.000 l0.000 -10.000 l-3.175 0.000 l0.000 -10.000 l3.175 -0.000 l0.000 -10.000 l-3.175 0.000 l0.000 -4.325 Z" stroke="rgb(0,0,0)" stroke-width="0.1" />
</g>
<g id="p-3" style="fill:none;stroke-linecap:round;stroke-linejoin:round;">
  <path d = "M90.175 108.175 l6.825 0.000 l0.000 -3.175 l10.000 0.000 l-0.000 3.175 l10.000 0.000 l0.000 -3.175 l10.000 0.000 l-0.000 3.175 l6.825 0.000 l0.000 4.325 l3.175 0.000 l0.000 10.000 l-3.175 -0.000 l0.000 10.000 l3.175 0.000 l0.000 10.000 l-3.175 -0.000 l0.000 10.000 l3.175 0.000 l0.000 10.000 l-3.175 -0.000 l0.000 10.000 l3.175 0.000 l0.000 10.000 l-3.175 -0.000 l0.000 4.325 l-6.825 0.000 l0.000 3.175 l-10.000 0.000 l-0.000 -3.175 l-10.000 0.000 l0.000 3.175 l-10.000 0.000 l-0.000 -3.175 l-6.825 0.000 l0.000 -4.325 l-3.175 0.000 l0.000 -10.000 l3.175 -0.000 l0.000 -10.000 l-3.175 0.000 l0.000 -10.000 l3.175 -0.000 l0.000 -10.000 l-3.175 0.000 l0.000 -10.000 l3.175 -0.000 l0.000 -10.000 l-3.175 0.000 l0.000 -10.000 l3.175 -0.000 l0.000 -4.325 Z" stroke="rgb(0,0,0)" stroke-width="0.1" />
</g>
<g id="p-4" style="fill:none;stroke-linecap:round;stroke-linejoin:round;">
  <path d = "M5.000 200.000 l10.000 0.000 l-0.000 3.175 l10.000 0.000 l0.000 -3.175 l10.000 0.000 l-0.000 3.175 l10.000 0.000 l0.000 -3.175 l10.000 0.000 l-0.000 3.175 l10.000 0.000 l0.000 -3.175 l10.000 0.000 l0.000 10.000 l-3.175 -0.000 l0.000 10.000 l3.175 0.000 l0.000 10.000 l-3.175 -0.000 l0.000 10.000 l3.175 0.000 l0.000 10.000 l-10.000 0.000 l-0.000 -3.175 l-10.000 0.000 l0.000 3.175 l-10.000 0.000 l-0.000 -3.175 l-10.000 0.000 l0.000 3.175 l-10.000 0.000 l-0.000 -3.175 l-10.000 0.000 l0.000 3.175 l-10.000 0.000 l0.000 -10.000 l3.175 -0.000 l0.000 -10.000 l-3.175 0.000 l0.000 -10.000 l3.175 -0.000 l0.000 -10.000 l-3.175 0.000 l0.000 -10.000 Z" stroke="rgb(0,0,0)" stroke-width="0.1" />
</g>
<g id="p-5" style="fill:none;stroke-linecap:round;stroke-linejoin:round;">
  <path d = "M80.000 200.000 l10.000 0.000 l-0.000 3.175 l10.000 0.000 l0.000 -3.175 l10.000 0.000 l-0.000 3.175 l10.000 0.000 l0.000 -3.175 l10.000 0.000 l-0.000 3.175 l10.000 0.000 l0.000 -3.175 l10.000 0.000 l0.000 10.000 l-3.175 -0.000 l0.000 10.000 l3.175 0.000 l0.000 10.000 l-3.175 -0.000 l0.000 10.000 l3.175 0.000 l0.000 10.000 l-10.000 0.000 l-0.000 -3.175 l-10.000 0.000 l0.000 3.175 l-10.000 0.000 l-0.000 -3.175 l-10.000 0.000 l0.000 3.175 l-10.000 0.000 l-0.000 -3.175 l-10.000 0.000 l0.000 3.175 l-10.000 0.000 l0.000 -10.000 l3.175 -0.000 l0.000 -10.000 l-3.175 0.000 l0.000 -10.000 l3.175 -0.000 l0.000 -10.000 l-3.175 0.000 l0.000 -10.000 Z" stroke="rgb(0,0,0)" stroke-width="0.1" />
</g>
</svg>