<?xml version='1.0' encoding='utf-8'?>
<svg height="700.0mm" viewBox="0.0 0.0 250.0 700.0" width="250.0mm" 
xmlns="http://www.w3.org/2000/svg" xmlns:cc="http://creativecommons.org/ns#" xmlns:dc="http://purl.org/dc/elements/1.1/"
xmlns:inkscape="http://www.inkscape.org/namespaces/inkscape" xmlns:rdf="http://www.w3.org/1999/02/22-rdf-syntax-ns#"
xmlns:svg="http://www.w3.org/2000/svg" xmlns:xlink="http://www.w3.org/1999/xlink">

<g id="p-0" style="fill:none;stroke-linecap:round;stroke-linejoin:round;">
  <path d = "M20.000 10.000 l50.000 0.000 l0.000 3.795 l-3.175 -0.000 l0.000 5.680 l3.175 0.000 l0.000 6.320 l-3.175 -0.000 l0.000 5.680 l3.175 0.000 l0.000 6.320 l-3.175 -0.000 l0.000 5.680 l3.175 0.000 l0.000 6.970 l-9.855 0.000 l0.000 3.175 l-6.320 0.000 l-0.000 -3.175 l-5.680 0.000 l0.000 3.175 l-6.320 0.000 l-0.000 -3.175 l-5.680 0.000 l0.000 3.175 l-6.320 0.000 l-0.000 -3.175 l-9.855 0.000 l0.000 -6.970 l3.175 -0.000 l0.000 -5.680 l-3.175 0.000 l0.000 -6.320 l3.175 -0.000 l0.000 -5.680 l-3.175 0.000 l0.000 -6.320 l3.175 -0.000 l0.000 -5.680 l-3.175 0.000 l0.000 -3.795 Z" stroke="rgb(0,0,0)" stroke-width="0.1"/>
<text dominant-baseline="middle" font-size="20px" style="font-family: sans-serif ; font-weight: bold; font-style: normal; fill: rgb(0,0,0)" text-anchor="middle" transform="matrix( 1.000 0.000 0.000 1.000 41.825 33.4125 )"></text>
</g>
<g id="p-1" style="fill:none;stroke-linecap:round;stroke-linejoin:round;">
  <path d = "M100.000 10.000 l10.145 0.000 l-0.000 3.175 l5.680 0.000 l0.000 -3.175 l6.320 0.000 l-0.000 3.175 l5.680 0.000 l0.000 -3.175 l6.320 0.000 l-0.000 3.175 l5.680 0.000 l0.000 -3.175 l10.145 0.000 l0.000 10.145 l-3.175 -0.000 l0.000 5.680 l3.175 0.000 l0.000 6.320 l-3.175 -0.000 l0.000 5.680 l3.175 0.000 l0.000 6.320 l-3.175 -0.000 l0.000 5.680 l3.175 0.000 l0.000 6.970 l-9.855 0.000 l0.000 3.175 l-6.320 0.000 l-0.000 -3.175 l-5.680 0.000 l0.000 3.175 l-6.320 0.000 l-0.000 -3.175 l-5.680 0.000 l0.000 3.175 l-6.320 0.000 l-0.000 -3.175 l-9.855 0.000 l0.000 -6.970 l3.175 -0.000 l0.000 -5.680 l-3.175 0.000 l0.000 -6.320 l3.175 -0.000 l0.000 -5.680 l-3.175 0.000 l0.000 -6.320 l3.175 -0.000 l0.000 -5.680 l-3.175 0.000 l0.000 -10.145 Z" stroke="rgb(0,0,0)" stroke-width="0.1"/>
<text dominant-baseline="middle" font-size="20px" style="font-family: sans-serif ; font-weight: bold; font-style: normal; fill: rgb(0,0,0)" text-anchor="middle" transform="matrix( 1.000 0.000 0.000 1.000 121.825 33.4125 )"></text>
</g>
<g id="p-2" style="fill:none;stroke-linecap:round;stroke-linejoin:round;">
  <path d = "M13.175 70.000 l4.970 0.000 l-0.000 3.175 l5.680 0.000 l0.000 -3.175 l6.320 0.000 l-0.000 3.175 l5.680 0.000 l0.000 -3.175 l6.320 0.000 l-0.000 3.175 l5.680 0.000 l0.000 -3.175 l6.320 0.000 l-0.000 3.175 l5.680 0.000 l0.000 -3.175 l6.320 0.000 l-0.000 3.175 l5.680 0.000 l0.000 -3.175 l4.970 0.000 l0.000 9.855 l3.175 0.000 l0.000 6.320 l-3.175 -0.000 l0.000 5.680 l3.175 0.000 l0.000 6.320 l-3.175 -0.000 l0.000 5.680 l3.175 0.000 l0.000 6.320 l-3.175 -0.000 l0.000 6.680 l-4.680 0.000 l0.000 3.175 l-6.320 0.000 l-0.000 -3.175 l-5.680 0.000 l0.000 3.175 l-6.320 0.000 l-0.000 -3.175 l-5.680 0.000 l0.000 3.175 l-6.320 0.000 l-0.000 -3.175 l-5.680 0.000 l0.000 3.175 l-6.320 0.000 l-0.000 -3.175 l-5.680 0.000 l0.000 3.175 l-6.320 0.000 l-0.000 -3.175 l-4.680 0.000 l0.000 -6.680 l-3.175 0.000 l0.000 -6.320 l3.175 -0.000 l0.000 -5.680 l-3.175 0.000 l0.000 -6.320 l3.175 -0.000 l0.000 -5.680 l-3.175 0.000 l0.000 -6.320 l3.175 -0.000 l0.000 -9.855 Z" stroke="rgb(0,0,0)" stroke-width="0.1"/>
<path d="M18.175 76.400 l5.650 0.000 l0.000 3.175 l-5.650 -0.000 l-0.000 -3.175 Z" stroke="rgb(0,0,0)" stroke-width="0.1"/>
<path d="M30.175 76.400 l5.650 0.000 l0.000 3.175 l-5.650 -0.000 l-0.000 -3.175 Z" stroke="rgb(0,0,0)" stroke-width="0.1"/>
<path d="M42.175 76.400 l5.650 0.000 l0.000 3.175 l-5.650 -0.000 l-0.000 -3.175 Z" stroke="rgb(0,0,0)" stroke-width="0.1"/>
<path d="M54.175 76.400 l5.650 0.000 l0.000 3.175 l-5.650 -0.000 l-0.000 -3.175 Z" stroke="rgb(0,0,0)" stroke-width="0.1"/>
<path d="M66.175 76.400 l5.650 0.000 l0.000 3.175 l-5.650 -0.000 l-0.000 -3.175 Z" stroke="rgb(0,0,0)" stroke-width="0.1"/>
<text dominant-baseline="middle" font-size="20px" style="font-family: sans-serif ; font-weight: bold; font-style: normal; fill: rgb(0,0,0)" text-anchor="middle" transform="matrix( 1.000 0.000 0.000 1.000 48.175 93.4125 )"></text>
</g>
<g id="p-3" style="fill:none;stroke-linecap:round;stroke-linejoin:round;">
  <path d = "M93.175 70.000 l4.970 0.000 l-0.000 3.175 l5.680 0.000 l0.000 -3.175 l6.320 0.000 l-0.000 3.175 l5.680 0.000 l0.000 -3.175 l6.320 0.000 l-0.000 3.175 l5.680 0.000 l0.000 -3.175 l6.320 0.000 l-0.000 3.175 l5.680 0.000 l0.000 -3.175 l6.320 0.000 l-0.000 3.175 l5.680 0.000 l0.000 -3.175 l4.970 0.000 l0.000 9.855 l3.175 0.000 l0.000 6.320 l-3.175 -0.000 l0.000 5.680 l3.175 0.000 l0.000 6.320 l-3.175 -0.000 l0.000 5.680 l3.175 0.000 l0.000 6.320 l-3.175 -0.000 l0.000 6.680 l-4.680 0.000 l0.000 3.175 l-6.320 0.000 l-0.000 -3.175 l-5.680 0.000 l0.000 3.175 l-6.320 0.000 l-0.000 -3.175 l-5.680 0.000 l0.000 3.175 l-6.320 0.000 l-0.000 -3.175 l-5.680 0.000 l0.000 3.175 l-6.320 0.000 l-0.000 -3.175 l-5.680 0.000 l0.000 3.175 l-6.320 0.000 l-0.000 -3.175 l-4.680 0.000 l0.000 -6.680 l-3.175 0.000 l0.000 -6.320 l3.175 -0.000 l0.000 -5.680 l-3.175 0.000 l0.000 -6.320 l3.175 -0.000 l0.000 -5.680 l-3.175 0.000 l0.000 -6.320 l3.175 -0.000 l0.000 -9.855 Z" stroke="rgb(0,0,0)" stroke-width="0.1"/>
<path d="M98.175 76.400 l5.650 0.000 l0.000 3.175 l-5.650 -0.000 l-0.000 -3.175 Z" stroke="rgb(0,0,0)" stroke-width="0.1"/>
<path d="M110.175 76.400 l5.650 0.000 l0.000 3.175 l-5.650 -0.000 l-0.000 -3.175 Z" stroke="rgb(0,0,0)" stroke-width="0.1"/>
<path d="M122.175 76.400 l5.650 0.000 l0.000 3.175 l-5.650 -0.000 l-0.000 -3.175 Z" stroke="rgb(0,0,0)" stroke-width="0.1"/>
<path d="M134.175 76.400 l5.650 0.000 l0.000 3.175 l-5.650 -0.000 l-0.000 -3.175 Z" stroke="rgb(0,0,0)" stroke-width="0.1"/>
<path d="M146.175 76.400 l5.650 0.000 l0.000 3.175 l-5.650 -0.000 l-0.000 -3.175 Z" stroke="rgb(0,0,0)" stroke-width="0.1"/>
<text dominant-baseline="middle" font-size="20px" style="font-family: sans-serif ; font-weight: bold; font-style: normal; fill: rgb(0,0,0)" text-anchor="middle" transform="matrix( 1.000 0.000 0.000 1.000 128.175 93.4125 )"></text>
</g>
<g id="p-4" style="fill:none;stroke-linecap:round;stroke-linejoin:round;">
  <path d = "M23.175 130.000 l43.650 0.000 l0.000 66.825 l-43.650 0.000 l0.000 -66.825 Z" stroke="rgb(0,0,0)" stroke-width="0.1"/>
</g>
<g id="p-5" style="fill:none;stroke-linecap:round;stroke-linejoin:round;">
  <path d = "M90.000 138.413 l76.350 0.000 l0.000 56.350 l-76.350 0.000 l0.000 -56.350 Z" stroke="rgb(0,0,0)" stroke-width="0.1"/>
<path d="M101.175 141.588 l6.000 0.000 l0.000 3.175 l-6.000 -0.000 l-0.000 -3.175 Z" stroke="rgb(0,0,0)" stroke-width="0.1"/>
<path d="M113.175 141.588 l6.000 0.000 l0.000 3.175 l-6.000 -0.000 l-0.000 -3.175 Z" stroke="rgb(0,0,0)" stroke-width="0.1"/>
<path d="M125.175 141.588 l6.000 0.000 l0.000 3.175 l-6.000 -0.000 l-0.000 -3.175 Z" stroke="rgb(0,0,0)" stroke-width="0.1"/>
<path d="M137.175 141.588 l6.000 0.000 l0.000 3.175 l-6.000 -0.000 l-0.000 -3.175 Z" stroke="rgb(0,0,0)" stroke-width="0.1"/>
<path d="M149.175 141.588 l6.000 0.000 l0.000 3.175 l-6.000 -0.000 l-0.000 -3.175 Z" stroke="rgb(0,0,0)" stroke-width="0.1"/>
<path d="M163.175 151.588 l0.000 6.000 l-3.175 0.000 l-0.000 -6.000 l3.175 -0.000 Z" stroke="rgb(0,0,0)" stroke-width="0.1"/>
<path d="M163.175 163.588 l0.000 6.000 l-3.175 0.000 l-0.000 -6.000 l3.175 -0.000 Z" stroke="rgb(0,0,0)" stroke-width="0.1"/>
<path d="M163.175 175.588 l0.000 6.000 l-3.175 0.000 l-0.000 -6.000 l3.175 -0.000 Z" stroke="rgb(0,0,0)" stroke-width="0.1"/>
<path d="M155.175 191.587 l-6.000 0.000 l0.000 -3.175 l6.000 -0.000 l-0.000 3.175 Z" stroke="rgb(0,0,0)" stroke-width="0.1"/>
<path d="M143.175 191.587 l-6.000 0.000 l0.000 -3.175 l6.000 -0.000 l-0.000 3.175 Z" stroke="rgb(0,0,0)" stroke-width="0.1"/>
<path d="M131.175 191.587 l-6.000 0.000 l0.000 -3.175 l6.000 -0.000 l-0.000 3.175 Z" stroke="rgb(0,0,0)" stroke-width="0.1"/>
<path d="M119.175 191.587 l-6.000 0.000 l0.000 -3.175 l6.000 -0.000 l-0.000 3.175 Z" stroke="rgb(0,0,0)" stroke-width="0.1"/>
<path d="M107.175 191.587 l-6.000 0.000 l0.000 -3.175 l6.000 -0.000 l-0.000 3.175 Z" stroke="rgb(0,0,0)" stroke-width="0.1"/>
<path d="M93.175 181.587 l0.000 -6.000 l3.175 0.000 l-0.000 6.000 l-3.175 -0.000 Z" stroke="rgb(0,0,0)" stroke-width="0.1"/>
<path d="M93.175 169.587 l0.000 -6.000 l3.175 0.000 l-0.000 6.000 l-3.175 -0.000 Z" stroke="rgb(0,0,0)" stroke-width="0.1"/>
<path d="M93.175 157.587 l0.000 -6.000 l3.175 0.000 l-0.000 6.000 l-3.175 -0.000 Z" stroke="rgb(0,0,0)" stroke-width="0.1"/>
</g>
<g id="p-6" style="fill:none;stroke-linecap:round;stroke-linejoin:round;">
  <path d = "M10.000 206.825 l63.650 0.000 l0.000 4.825 l-4.680 0.000 l0.000 3.175 l-6.320 0.000 l-0.000 -3.175 l-5.680 0.000 l0.000 3.175 l-6.320 0.000 l-0.000 -3.175 l-5.680 0.000 l0.000 3.175 l-6.320 0.000 l-0.000 -3.175 l-5.680 0.000 l0.000 3.175 l-6.320 0.000 l-0.000 -3.175 l-5.680 0.000 l0.000 3.175 l-6.320 0.000 l-0.000 -3.175 l-4.680 0.000 l0.000 -4.825 Z" stroke="rgb(0,0,0)" stroke-width="0.1"/>
</g>
<g id="p-7" style="fill:none;stroke-linecap:round;stroke-linejoin:round;">
  <path d = "M90.000 206.825 l63.650 0.000 l0.000 4.825 l-4.680 0.000 l0.000 3.175 l-6.320 0.000 l-0.000 -3.175 l-5.680 0.000 l0.000 3.175 l-6.320 0.000 l-0.000 -3.175 l-5.680 0.000 l0.000 3.175 l-6.320 0.000 l-0.000 -3.175 l-5.680 0.000 l0.000 3.175 l-6.320 0.000 l-0.000 -3.175 l-5.680 0.000 l0.000 3.175 l-6.320 0.000 l-0.000 -3.175 l-4.680 0.000 l0.000 -4.825 Z" stroke="rgb(0,0,0)" stroke-width="0.1"/>
</g>
<g id="p-8" style="fill:none;stroke-linecap:round;stroke-linejoin:round;">
  <path d = "M10.000 224.825 l66.825 0.000 l0.000 4.825 l-4.680 0.000 l0.000 3.175 l-6.320 0.000 l-0.000 -3.175 l-5.680 0.000 l0.000 3.175 l-6.320 0.000 l-0.000 -3.175 l-5.680 0.000 l0.000 3.175 l-6.320 0.000 l-0.000 -3.175 l-5.680 0.000 l0.000 3.175 l-6.320 0.000 l-0.000 -3.175 l-5.680 0.000 l0.000 3.175 l-6.320 0.000 l-0.000 -3.175 l-7.855 0.000 l0.000 -4.825 Z" stroke="rgb(0,0,0)" stroke-width="0.1"/>
</g>
<g id="p-9" style="fill:none;stroke-linecap:round;stroke-linejoin:round;">
  <path d = "M90.000 224.825 l66.825 0.000 l0.000 4.825 l-7.855 0.000 l0.000 3.175 l-6.320 0.000 l-0.000 -3.175 l-5.680 0.000 l0.000 3.175 l-6.320 0.000 l-0.000 -3.175 l-5.680 0.000 l0.000 3.175 l-6.320 0.000 l-0.000 -3.175 l-5.680 0.000 l0.000 3.175 l-6.320 0.000 l-0.000 -3.175 l-5.680 0.000 l0.000 3.175 l-6.320 0.000 l-0.000 -3.175 l-4.680 0.000 l0.000 -4.825 Z" stroke="rgb(0,0,0)" stroke-width="0.1"/>
</g>
<g id="p-10" style="fill:none;stroke-linecap:round;stroke-linejoin:round;">
  <path d = "M20.000 242.825 l34.000 0.000 l0.000 4.825 l-1.855 0.000 l0.000 3.175 l-6.320 0.000 l-0.000 -3.175 l-5.680 0.000 l0.000 3.175 l-6.320 0.000 l-0.000 -3.175 l-5.680 0.000 l0.000 3.175 l-6.320 0.000 l-0.000 -3.175 l-1.855 0.000 l0.000 -4.825 Z" stroke="rgb(0,0,0)" stroke-width="0.1"/>
</g>
</svg>