<?xml version='1.0' encoding='utf-8'?>
<svg height="230.0mm" viewBox="0.0 0.0 230.0 230.0" width="230.0mm" 
xmlns="http://www.w3.org/2000/svg" xmlns:cc="http://creativecommons.org/ns#" xmlns:dc="http://purl.org/dc/elements/1.1/"
xmlns:inkscape="http://www.inkscape.org/namespaces/inkscape" xmlns:rdf="http://www.w3.org/1999/02/22-rdf-syntax-ns#"
xmlns:svg="http://www.w3.org/2000/svg" xmlns:xlink="http://www.w3.org/1999/xlink">

<g id="p-0" style="fill:none;stroke-linecap:round;stroke-linejoin:round;">
  <path d = "M5.000 8.175 l2.825 0.000 l0.000 -3.175 l8.000 0.000 l-0.000 3.175 l8.000 0.000 l0.000 -3.175 l8.000 0.000 l-0.000 3.175 l8.000 0.000 l0.000 -3.175 l8.000 0.000 l-0.000 3.175 l8.000 0.000 l0.000 -3.175 l8.000 0.000 l-0.000 3.175 l8.000 0.000 l0.000 -3.175 l8.000 0.000 l-0.000 3.175 l8.000 0.000 l0.000 -3.175 l8.000 0.000 l-0.000 3.175 l2.825 0.000 l0.000 2.825 l3.175 0.000 l0.000 8.000 l-3.175 -0.000 l0.000 8.000 l3.175 0.000 l0.000 8.000 l-3.175 -0.000 l0.000 8.000 l3.175 0.000 l0.000 8.000 l-3.175 -0.000 l0.000 8.000 l3.175 0.000 l0.000 8.000 l-3.175 -0.000 l0.000 8.000 l3.175 0.000 l0.000 8.000 l-3.175 -0.000 l0.000 8.000 l3.175 0.000 l0.000 8.000 l-3.175 -0.000 l0.000 2.825 l-2.825 0.000 l0.000 3.175 l-8.000 0.000 l-0.000 -3.175 l-8.000 0.000 l0.000 3.175 l-8.000 0.000 l-0.000 -3.175 l-8.000 0.000 l0.000 3.175 l-8.000 0.000 l-0.000 -3.175 l-8.000 0.000 l0.000 3.175 l-8.000 0.000 l-0.000 -3.175 l-8.000 0.000 l0.000 3.175 l-8.000 0.000 l-0.000 -3.175 l-8.000 0.000 l0.000 3.175 l-8.000 0.000 l-0.000 -3.175 l-2.825 0.000 l0.000 -2.825 l-3.175 0.000 l0.000 -8.000 l3.175 -0.000 l0.000 -8.000 l-3.175 0.000 l0.000 -8.000 l3.175 -0.000 l0.000 -8.000 l-3.175 0.000 l0.000 -8.000 l3.175 -0.000 l0.000 -8.000 l-3.175 0.000 l0.000 -8.000 l3.175 -0.000 l0.000 -8.000 l-3.175 0.000 l0.000 -8.000 l3.175 -0.000 l0.000 -8.000 l-3.175 0.000 l0.000 -8.000 l3.175 -0.000 l0.000 -2.825 Z" stroke="rgb(0,0,0)" stroke-width="0.1" />
</g>
<g id="p-1" style="fill:none;stroke-linecap:round;stroke-linejoin:round;">
  <path d = "M105.000 5.000 l6.000 0.000 l-0.000 3.175 l8.000 0.000 l0.000 -3.175 l8.000 0.000 l-0.000 3.175 l8.000 0.000 l0.000 -3.175 l8.000 0.000 l-0.000 3.175 l8.000 0.000 l0.000 -3.175 l8.000 0.000 l-0.000 3.175 l8.000 0.000 l0.000 -3.175 l8.000 0.000 l-0.000 3.175 l8.000 0.000 l0.000 -3.175 l8.000 0.000 l-0.000 3.175 l8.000 0.000 l0.000 -3.175 l6.000 0.000 l0.000 6.000 l-3.175 -0.000 l0.000 8.000 l3.175 0.000 l0.000 8.000 l-3.175 -0.000 l0.000 8.000 l3.175 0.000 l0.000 8.000 l-3.175 -0.000 l0.000 8.000 l3.175 0.000 l0.000 8.000 l-3.175 -0.000 l0.000 8.000 l3.175 0.000 l0.000 8.000 l-3.175 -0.000 l0.000 8.000 l3.175 0.000 l0.000 8.000 l-3.175 -0.000 l0.000 8.000 l3.175 0.000 l0.000 6.000 l-6.000 0.000 l-0.000 -3.175 l-8.000 0.000 l0.000 3.175 l-8.000 0.000 l-0.000 -3.175 l-8.000 0.000 l0.000 3.175 l-8.000 0.000 l-0.000 -3.175 l-8.000 0.000 l0.000 3.175 l-8.000 0.000 l-0.000 -3.175 l-8.000 0.000 l0.000 3.175 l-8.000 0.000 l-0.000 -3.175 l-8.000 0.000 l0.000 3.175 l-8.000 0.000 l-0.000 -3.175 l-8.000 0.000 l0.000 3.175 l-6.000 0.000 l0.000 -6.000 l3.175 -0.000 l0.000 -8.000 l-3.175 0.000 l0.000 -8.000 l3.175 -0.000 l0.000 -8.000 l-3.175 0.000 l0.000 -8.000 l3.175 -0.000 l0.000 -8.000 l-3.175 0.000 l0.000 -8.000 l3.175 -0.000 l0.000 -8.000 l-3.175 0.000 l0.000 -8.000 l3.175 -0.000 l0.000 -8.000 l-3.175 0.000 l0.000 -8.000 l3.175 -0.000 l0.000 -8.000 l-3.175 0.000 l0.000 -6.000 Z" stroke="rgb(0,0,0)" stroke-width="0.1" />
</g>
</svg>