<?xml version='1.0' encoding='utf-8'?>
<svg height="350.0mm" viewBox="0.0 0.0 250.0 350.0" width="250.0mm" 
xmlns="http://www.w3.org/2000/svg" xmlns:cc="http://creativecommons.org/ns#" xmlns:dc="http://purl.org/dc/elements/1.1/"
xmlns:inkscape="http://www.inkscape.org/namespaces/inkscape" xmlns:rdf="http://www.w3.org/1999/02/22-rdf-syntax-ns#"
xmlns:svg="http://www.w3.org/2000/svg" xmlns:xlink="http://www.w3.org/1999/xlink">

<g id="p-0" style="fill:none;stroke-linecap:round;stroke-linejoin:round;">
  <path d = "M8.175 10.000 l6.650 0.000 l0.000 -3.175 l6.350 0.000 l-0.000 3.175 l5.650 0.000 l0.000 -3.175 l6.350 0.000 l-0.000 3.175 l5.650 0.000 l0.000 -3.175 l6.350 0.000 l-0.000 3.175 l6.650 0.000 l0.000 6.650 l3.175 0.000 l0.000 6.350 l-3.175 -0.000 l0.000 5.650 l3.175 0.000 l0.000 6.350 l-3.175 -0.000 l0.000 5.650 l3.175 0.000 l0.000 6.350 l-3.175 -0.000 l0.000 6.650 l-6.650 0.000 l0.000 3.175 l-6.350 0.000 l-0.000 -3.175 l-5.650 0.000 l0.000 3.175 l-6.350 0.000 l-0.000 -3.175 l-5.650 0.000 l0.000 3.175 l-6.350 0.000 l-0.000 -3.175 l-6.650 0.000 l0.000 -6.650 l-3.175 0.000 l0.000 -6.350 l3.175 -0.000 l0.000 -5.650 l-3.175 0.000 l0.000 -6.350 l3.175 -0.000 l0.000 -5.650 l-3.175 0.000 l0.000 -6.350 l3.175 -0.000 l0.000 -6.650 Z" stroke="rgb(0,0,0)" stroke-width="0.1"/>
</g>
<g id="p-1" style="fill:none;stroke-linecap:round;stroke-linejoin:round;">
  <path d = "M63.175 10.000 l6.650 0.000 l0.000 -3.175 l6.350 0.000 l-0.000 3.175 l5.650 0.000 l0.000 -3.175 l6.350 0.000 l-0.000 3.175 l5.650 0.000 l0.000 -3.175 l6.350 0.000 l-0.000 3.175 l6.650 0.000 l0.000 6.650 l3.175 0.000 l0.000 6.350 l-3.175 -0.000 l0.000 5.650 l3.175 0.000 l0.000 6.350 l-3.175 -0.000 l0.000 5.650 l3.175 0.000 l0.000 6.350 l-3.175 -0.000 l0.000 6.650 l-6.650 0.000 l0.000 3.175 l-6.350 0.000 l-0.000 -3.175 l-5.650 0.000 l0.000 3.175 l-6.350 0.000 l-0.000 -3.175 l-5.650 0.000 l0.000 3.175 l-6.350 0.000 l-0.000 -3.175 l-6.650 0.000 l0.000 -6.650 l-3.175 0.000 l0.000 -6.350 l3.175 -0.000 l0.000 -5.650 l-3.175 0.000 l0.000 -6.350 l3.175 -0.000 l0.000 -5.650 l-3.175 0.000 l0.000 -6.350 l3.175 -0.000 l0.000 -6.650 Z" stroke="rgb(0,0,0)" stroke-width="0.1"/>
</g>
<g id="p-2" style="fill:none;stroke-linecap:round;stroke-linejoin:round;">
  <path d = "M5.000 65.000 l9.825 0.000 l0.000 -3.175 l6.350 0.000 l-0.000 3.175 l5.650 0.000 l0.000 -3.175 l6.350 0.000 l-0.000 3.175 l5.650 0.000 l0.000 -3.175 l6.350 0.000 l-0.000 3.175 l9.825 0.000 l0.000 7.000 l-3.175 -0.000 l0.000 5.650 l3.175 0.000 l0.000 6.350 l-3.175 -0.000 l0.000 5.650 l3.175 0.000 l0.000 6.350 l-3.175 -0.000 l0.000 5.650 l3.175 0.000 l0.000 7.000 l-9.825 0.000 l0.000 3.175 l-6.350 0.000 l-0.000 -3.175 l-5.650 0.000 l0.000 3.175 l-6.350 0.000 l-0.000 -3.175 l-5.650 0.000 l0.000 3.175 l-6.350 0.000 l-0.000 -3.175 l-9.825 0.000 l0.000 -7.000 l3.175 -0.000 l0.000 -5.650 l-3.175 0.000 l0.000 -6.350 l3.175 -0.000 l0.000 -5.650 l-3.175 0.000 l0.000 -6.350 l3.175 -0.000 l0.000 -5.650 l-3.175 0.000 l0.000 -7.000 Z" stroke="rgb(0,0,0)" stroke-width="0.1"/>
</g>
<g id="p-3" style="fill:none;stroke-linecap:round;stroke-linejoin:round;">
  <path d = "M60.000 65.000 l9.825 0.000 l0.000 -3.175 l6.350 0.000 l-0.000 3.175 l5.650 0.000 l0.000 -3.175 l6.350 0.000 l-0.000 3.175 l5.650 0.000 l0.000 -3.175 l6.350 0.000 l-0.000 3.175 l9.825 0.000 l0.000 7.000 l-3.175 -0.000 l0.000 5.650 l3.175 0.000 l0.000 6.350 l-3.175 -0.000 l0.000 5.650 l3.175 0.000 l0.000 6.350 l-3.175 -0.000 l0.000 5.650 l3.175 0.000 l0.000 7.000 l-9.825 0.000 l0.000 3.175 l-6.350 0.000 l-0.000 -3.175 l-5.650 0.000 l0.000 3.175 l-6.350 0.000 l-0.000 -3.175 l-5.650 0.000 l0.000 3.175 l-6.350 0.000 l-0.000 -3.175 l-9.825 0.000 l0.000 -7.000 l3.175 -0.000 l0.000 -5.650 l-3.175 0.000 l0.000 -6.350 l3.175 -0.000 l0.000 -5.650 l-3.175 0.000 l0.000 -6.350 l3.175 -0.000 l0.000 -5.650 l-3.175 0.000 l0.000 -7.000 Z" stroke="rgb(0,0,0)" stroke-width="0.1"/>
</g>
<g id="p-4" style="fill:none;stroke-linecap:round;stroke-linejoin:round;">
  <path d = "M5.000 120.000 l10.175 0.000 l-0.000 3.175 l5.650 0.000 l0.000 -3.175 l6.350 0.000 l-0.000 3.175 l5.650 0.000 l0.000 -3.175 l6.350 0.000 l-0.000 3.175 l5.650 0.000 l0.000 -3.175 l10.175 0.000 l0.000 10.175 l-3.175 -0.000 l0.000 5.650 l3.175 0.000 l0.000 6.350 l-3.175 -0.000 l0.000 5.650 l3.175 0.000 l0.000 6.350 l-3.175 -0.000 l0.000 5.650 l3.175 0.000 l0.000 10.175 l-10.175 0.000 l-0.000 -3.175 l-5.650 0.000 l0.000 3.175 l-6.350 0.000 l-0.000 -3.175 l-5.650 0.000 l0.000 3.175 l-6.350 0.000 l-0.000 -3.175 l-5.650 0.000 l0.000 3.175 l-10.175 0.000 l0.000 -10.175 l3.175 -0.000 l0.000 -5.650 l-3.175 0.000 l0.000 -6.350 l3.175 -0.000 l0.000 -5.650 l-3.175 0.000 l0.000 -6.350 l3.175 -0.000 l0.000 -5.650 l-3.175 0.000 l0.000 -10.175 Z" stroke="rgb(0,0,0)" stroke-width="0.1"/>
</g>
<g id="p-5" style="fill:none;stroke-linecap:round;stroke-linejoin:round;">
  <path d = "M60.000 120.000 l56.350 0.000 l0.000 56.350 l-56.350 0.000 l0.000 -56.350 Z" stroke="rgb(0,0,0)" stroke-width="0.1"/>
<path d="M73.175 123.175 l6.000 0.000 l0.000 3.175 l-6.000 -0.000 l-0.000 -3.175 Z" stroke="rgb(0,0,0)" stroke-width="0.1"/>
<path d="M85.175 123.175 l6.000 0.000 l0.000 3.175 l-6.000 -0.000 l-0.000 -3.175 Z" stroke="rgb(0,0,0)" stroke-width="0.1"/>
<path d="M97.175 123.175 l6.000 0.000 l0.000 3.175 l-6.000 -0.000 l-0.000 -3.175 Z" stroke="rgb(0,0,0)" stroke-width="0.1"/>
<path d="M113.175 133.175 l0.000 6.000 l-3.175 0.000 l-0.000 -6.000 l3.175 -0.000 Z" stroke="rgb(0,0,0)" stroke-width="0.1"/>
<path d="M113.175 145.175 l0.000 6.000 l-3.175 0.000 l-0.000 -6.000 l3.175 -0.000 Z" stroke="rgb(0,0,0)" stroke-width="0.1"/>
<path d="M113.175 157.175 l0.000 6.000 l-3.175 0.000 l-0.000 -6.000 l3.175 -0.000 Z" stroke="rgb(0,0,0)" stroke-width="0.1"/>
<path d="M103.175 173.175 l-6.000 0.000 l0.000 -3.175 l6.000 -0.000 l-0.000 3.175 Z" stroke="rgb(0,0,0)" stroke-width="0.1"/>
<path d="M91.175 173.175 l-6.000 0.000 l0.000 -3.175 l6.000 -0.000 l-0.000 3.175 Z" stroke="rgb(0,0,0)" stroke-width="0.1"/>
<path d="M79.175 173.175 l-6.000 0.000 l0.000 -3.175 l6.000 -0.000 l-0.000 3.175 Z" stroke="rgb(0,0,0)" stroke-width="0.1"/>
<path d="M63.175 163.175 l0.000 -6.000 l3.175 0.000 l-0.000 6.000 l-3.175 -0.000 Z" stroke="rgb(0,0,0)" stroke-width="0.1"/>
<path d="M63.175 151.175 l0.000 -6.000 l3.175 0.000 l-0.000 6.000 l-3.175 -0.000 Z" stroke="rgb(0,0,0)" stroke-width="0.1"/>
<path d="M63.175 139.175 l0.000 -6.000 l3.175 0.000 l-0.000 6.000 l-3.175 -0.000 Z" stroke="rgb(0,0,0)" stroke-width="0.1"/>
</g>
</svg>