<?xml version='1.0' encoding='utf-8'?>
<svg height="700.0mm" viewBox="0.0 0.0 250.0 700.0" width="250.0mm" 
xmlns="http://www.w3.org/2000/svg" xmlns:cc="http://creativecommons.org/ns#" xmlns:dc="http://purl.org/dc/elements/1.1/"
xmlns:inkscape="http://www.inkscape.org/namespaces/inkscape" xmlns:rdf="http://www.w3.org/1999/02/22-rdf-syntax-ns#"
xmlns:svg="http://www.w3.org/2000/svg" xmlns:xlink="http://www.w3.org/1999/xlink">

<g id="p-0" style="fill:none;stroke-linecap:round;stroke-linejoin:round;">
  <path d = "M13.175 10.000 l4.160 0.000 l0.000 -3.175 l5.340 0.000 l-0.000 3.175 l4.660 0.000 l0.000 -3.175 l5.340 0.000 l-0.000 3.175 l4.660 0.000 l0.000 -3.175 l5.340 0.000 l-0.000 3.175 l4.660 0.000 l0.000 -3.175 l5.340 0.000 l-0.000 3.175 l4.660 0.000 l0.000 -3.175 l5.340 0.000 l-0.000 3.175 l4.660 0.000 l0.000 -3.175 l5.340 0.000 l-0.000 3.175 l4.660 0.000 l0.000 -3.175 l5.340 0.000 l-0.000 3.175 l4.660 0.000 l0.000 -3.175 l5.340 0.000 l-0.000 3.175 l4.660 0.000 l0.000 -3.175 l5.340 0.000 l-0.000 3.175 l4.660 0.000 l0.000 -3.175 l5.340 0.000 l-0.000 3.175 l4.660 0.000 l0.000 -3.175 l5.340 0.000 l-0.000 3.175 l4.660 0.000 l0.000 -3.175 l5.340 0.000 l-0.000 3.175 l4.660 0.000 l0.000 -3.175 l5.340 0.000 l-0.000 3.175 l4.660 0.000 l0.000 -3.175 l5.340 0.000 l-0.000 3.175 l4.660 0.000 l0.000 -3.175 l5.340 0.000 l-0.000 3.175 l4.660 0.000 l0.000 -3.175 l5.340 0.000 l-0.000 3.175 l4.660 0.000 l0.000 -3.175 l5.340 0.000 l-0.000 3.175 l4.660 0.000 l0.000 -3.175 l5.340 0.000 l-0.000 3.175 l4.660 0.000 l0.000 -3.175 l5.340 0.000 l-0.000 3.175 l4.160 0.000 l0.000 4.160 l3.175 0.000 l0.000 5.340 l-3.175 -0.000 l0.000 4.660 l3.175 0.000 l0.000 5.340 l-3.175 -0.000 l0.000 4.660 l3.175 0.000 l0.000 5.340 l-3.175 -0.000 l0.000 4.660 l3.175 0.000 l0.000 5.340 l-3.175 -0.000 l0.000 4.660 l3.175 0.000 l0.000 5.340 l-3.175 -0.000 l0.000 4.660 l3.175 0.000 l0.000 5.340 l-3.175 -0.000 l0.000 4.660 l3.175 0.000 l0.000 5.340 l-3.175 -0.000 l0.000 4.660 l3.175 0.000 l0.000 5.340 l-3.175 -0.000 l0.000 4.660 l3.175 0.000 l0.000 5.340 l-3.175 -0.000 l0.000 4.660 l3.175 0.000 l0.000 5.340 l-3.175 -0.000 l0.000 4.660 l3.175 0.000 l0.000 5.340 l-3.175 -0.000 l0.000 4.660 l3.175 0.000 l0.000 5.340 l-3.175 -0.000 l0.000 4.660 l3.175 0.000 l0.000 5.340 l-3.175 -0.000 l0.000 4.660 l3.175 0.000 l0.000 5.340 l-3.175 -0.000 l0.000 4.160 l-4.160 0.000 l0.000 3.175 l-5.340 0.000 l-0.000 -3.175 l-4.660 0.000 l0.000 3.175 l-5.340 0.000 l-0.000 -3.175 l-4.660 0.000 l0.000 3.175 l-5.340 0.000 l-0.000 -3.175 l-4.660 0.000 l0.000 3.175 l-5.340 0.000 l-0.000 -3.175 l-4.660 0.000 l0.000 3.175 l-5.340 0.000 l-0.000 -3.175 l-4.660 0.000 l0.000 3.175 l-5.340 0.000 l-0.000 -3.175 l-4.660 0.000 l0.000 3.175 l-5.340 0.000 l-0.000 -3.175 l-4.660 0.000 l0.000 3.175 l-5.340 0.000 l-0.000 -3.175 l-4.660 0.000 l0.000 3.175 l-5.340 0.000 l-0.000 -3.175 l-4.660 0.000 l0.000 3.175 l-5.340 0.000 l-0.000 -3.175 l-4.660 0.000 l0.000 3.175 l-5.340 0.000 l-0.000 -3.175 l-4.660 0.000 l0.000 3.175 l-5.340 0.000 l-0.000 -3.175 l-4.660 0.000 l0.000 3.175 l-5.340 0.000 l-0.000 -3.175 l-4.660 0.000 l0.000 3.175 l-5.340 0.000 l-0.000 -3.175 l-4.660 0.000 l0.000 3.175 l-5.340 0.000 l-0.000 -3.175 l-4.660 0.000 l0.000 3.175 l-5.340 0.000 l-0.000 -3.175 l-4.660 0.000 l0.000 3.175 l-5.340 0.000 l-0.000 -3.175 l-4.660 0.000 l0.000 3.175 l-5.340 0.000 l-0.000 -3.175 l-4.660 0.000 l0.000 3.175 l-5.340 0.000 l-0.000 -3.175 l-4.160 0.000 l0.000 -4.160 l-3.175 0.000 l0.000 -5.340 l3.175 -0.000 l0.000 -4.660 l-3.175 0.000 l0.000 -5.340 l3.175 -0.000 l0.000 -4.660 l-3.175 0.000 l0.000 -5.340 l3.175 -0.000 l0.000 -4.660 l-3.175 0.000 l0.000 -5.340 l3.175 -0.000 l0.000 -4.660 l-3.175 0.000 l0.000 -5.340 l3.175 -0.000 l0.000 -4.660 l-3.175 0.000 l0.000 -5.340 l3.175 -0.000 l0.000 -4.660 l-3.175 0.000 l0.000 -5.340 l3.175 -0.000 l0.000 -4.660 l-3.175 0.000 l0.000 -5.340 l3.175 -0.000 l0.000 -4.660 l-3.175 0.000 l0.000 -5.340 l3.175 -0.000 l0.000 -4.660 l-3.175 0.000 l0.000 -5.340 l3.175 -0.000 l0.000 -4.660 l-3.175 0.000 l0.000 -5.340 l3.175 -0.000 l0.000 -4.660 l-3.175 0.000 l0.000 -5.340 l3.175 -0.000 l0.000 -4.660 l-3.175 0.000 l0.000 -5.340 l3.175 -0.000 l0.000 -4.660 l-3.175 0.000 l0.000 -5.340 l3.175 -0.000 l0.000 -4.160 Z" stroke="rgb(0,0,0)" stroke-width="0.1"/>
<text dominant-baseline="middle" font-size="20px" style="font-family: sans-serif ; font-weight: bold; font-style: normal; fill: rgb(0,0,0)" text-anchor="middle" transform="matrix( 1.000 0.000 0.000 1.000 110.0 83.4125 )"></text>
</g>
<g id="p-1" style="fill:none;stroke-linecap:round;stroke-linejoin:round;">
  <path d = "M223.175 10.000 l4.160 0.000 l0.000 -3.175 l5.340 0.000 l-0.000 3.175 l4.660 0.000 l0.000 -3.175 l5.340 0.000 l-0.000 3.175 l4.660 0.000 l0.000 -3.175 l5.340 0.000 l-0.000 3.175 l4.660 0.000 l0.000 -3.175 l5.340 0.000 l-0.000 3.175 l4.660 0.000 l0.000 -3.175 l5.340 0.000 l-0.000 3.175 l4.660 0.000 l0.000 -3.175 l5.340 0.000 l-0.000 3.175 l4.660 0.000 l0.000 -3.175 l5.340 0.000 l-0.000 3.175 l4.660 0.000 l0.000 -3.175 l5.340 0.000 l-0.000 3.175 l4.660 0.000 l0.000 -3.175 l5.340 0.000 l-0.000 3.175 l4.660 0.000 l0.000 -3.175 l5.340 0.000 l-0.000 3.175 l4.660 0.000 l0.000 -3.175 l5.340 0.000 l-0.000 3.175 l4.660 0.000 l0.000 -3.175 l5.340 0.000 l-0.000 3.175 l4.660 0.000 l0.000 -3.175 l5.340 0.000 l-0.000 3.175 l4.660 0.000 l0.000 -3.175 l5.340 0.000 l-0.000 3.175 l4.660 0.000 l0.000 -3.175 l5.340 0.000 l-0.000 3.175 l4.660 0.000 l0.000 -3.175 l5.340 0.000 l-0.000 3.175 l4.660 0.000 l0.000 -3.175 l5.340 0.000 l-0.000 3.175 l4.660 0.000 l0.000 -3.175 l5.340 0.000 l-0.000 3.175 l4.660 0.000 l0.000 -3.175 l5.340 0.000 l-0.000 3.175 l4.160 0.000 l0.000 4.160 l3.175 0.000 l0.000 5.340 l-3.175 -0.000 l0.000 4.660 l3.175 0.000 l0.000 5.340 l-3.175 -0.000 l0.000 4.660 l3.175 0.000 l0.000 5.340 l-3.175 -0.000 l0.000 4.660 l3.175 0.000 l0.000 5.340 l-3.175 -0.000 l0.000 4.660 l3.175 0.000 l0.000 5.340 l-3.175 -0.000 l0.000 4.660 l3.175 0.000 l0.000 5.340 l-3.175 -0.000 l0.000 4.660 l3.175 0.000 l0.000 5.340 l-3.175 -0.000 l0.000 4.660 l3.175 0.000 l0.000 5.340 l-3.175 -0.000 l0.000 4.660 l3.175 0.000 l0.000 5.340 l-3.175 -0.000 l0.000 4.660 l3.175 0.000 l0.000 5.340 l-3.175 -0.000 l0.000 4.660 l3.175 0.000 l0.000 5.340 l-3.175 -0.000 l0.000 4.660 l3.175 0.000 l0.000 5.340 l-3.175 -0.000 l0.000 4.660 l3.175 0.000 l0.000 5.340 l-3.175 -0.000 l0.000 4.660 l3.175 0.000 l0.000 5.340 l-3.175 -0.000 l0.000 4.160 l-4.160 0.000 l0.000 3.175 l-5.340 0.000 l-0.000 -3.175 l-4.660 0.000 l0.000 3.175 l-5.340 0.000 l-0.000 -3.175 l-4.660 0.000 l0.000 3.175 l-5.340 0.000 l-0.000 -3.175 l-4.660 0.000 l0.000 3.175 l-5.340 0.000 l-0.000 -3.175 l-4.660 0.000 l0.000 3.175 l-5.340 0.000 l-0.000 -3.175 l-4.660 0.000 l0.000 3.175 l-5.340 0.000 l-0.000 -3.175 l-4.660 0.000 l0.000 3.175 l-5.340 0.000 l-0.000 -3.175 l-4.660 0.000 l0.000 3.175 l-5.340 0.000 l-0.000 -3.175 l-4.660 0.000 l0.000 3.175 l-5.340 0.000 l-0.000 -3.175 l-4.660 0.000 l0.000 3.175 l-5.340 0.000 l-0.000 -3.175 l-4.660 0.000 l0.000 3.175 l-5.340 0.000 l-0.000 -3.175 l-4.660 0.000 l0.000 3.175 l-5.340 0.000 l-0.000 -3.175 l-4.660 0.000 l0.000 3.175 l-5.340 0.000 l-0.000 -3.175 l-4.660 0.000 l0.000 3.175 l-5.340 0.000 l-0.000 -3.175 l-4.660 0.000 l0.000 3.175 l-5.340 0.000 l-0.000 -3.175 l-4.660 0.000 l0.000 3.175 l-5.340 0.000 l-0.000 -3.175 l-4.660 0.000 l0.000 3.175 l-5.340 0.000 l-0.000 -3.175 l-4.660 0.000 l0.000 3.175 l-5.340 0.000 l-0.000 -3.175 l-4.660 0.000 l0.000 3.175 l-5.340 0.000 l-0.000 -3.175 l-4.160 0.000 l0.000 -4.160 l-3.175 0.000 l0.000 -5.340 l3.175 -0.000 l0.000 -4.660 l-3.175 0.000 l0.000 -5.340 l3.175 -0.000 l0.000 -4.660 l-3.175 0.000 l0.000 -5.340 l3.175 -0.000 l0.000 -4.660 l-3.175 0.000 l0.000 -5.340 l3.175 -0.000 l0.000 -4.660 l-3.175 0.000 l0.000 -5.340 l3.175 -0.000 l0.000 -4.660 l-3.175 0.000 l0.000 -5.340 l3.175 -0.000 l0.000 -4.660 l-3.175 0.000 l0.000 -5.340 l3.175 -0.000 l0.000 -4.660 l-3.175 0.000 l0.000 -5.340 l3.175 -0.000 l0.000 -4.660 l-3.175 0.000 l0.000 -5.340 l3.175 -0.000 l0.000 -4.660 l-3.175 0.000 l0.000 -5.340 l3.175 -0.000 l0.000 -4.660 l-3.175 0.000 l0.000 -5.340 l3.175 -0.000 l0.000 -4.660 l-3.175 0.000 l0.000 -5.340 l3.175 -0.000 l0.000 -4.660 l-3.175 0.000 l0.000 -5.340 l3.175 -0.000 l0.000 -4.660 l-3.175 0.000 l0.000 -5.340 l3.175 -0.000 l0.000 -4.160 Z" stroke="rgb(0,0,0)" stroke-width="0.1"/>
<text dominant-baseline="middle" font-size="20px" style="font-family: sans-serif ; font-weight: bold; font-style: normal; fill: rgb(0,0,0)" text-anchor="middle" transform="matrix( 1.000 0.000 0.000 1.000 320.0 83.4125 )"></text>
</g>
<g id="p-2" style="fill:none;stroke-linecap:round;stroke-linejoin:round;">
  <path d = "M60.000 170.000 l7.335 0.000 l0.000 -3.175 l5.340 0.000 l-0.000 3.175 l4.660 0.000 l0.000 -3.175 l5.340 0.000 l-0.000 3.175 l4.660 0.000 l0.000 -3.175 l5.340 0.000 l-0.000 3.175 l4.660 0.000 l0.000 -3.175 l5.340 0.000 l-0.000 3.175 l4.660 0.000 l0.000 -3.175 l5.340 0.000 l-0.000 3.175 l4.660 0.000 l0.000 -3.175 l5.340 0.000 l-0.000 3.175 l4.660 0.000 l0.000 -3.175 l5.340 0.000 l-0.000 3.175 l4.660 0.000 l0.000 -3.175 l5.340 0.000 l-0.000 3.175 l4.660 0.000 l0.000 -3.175 l5.340 0.000 l-0.000 3.175 l7.335 0.000 l0.000 4.490 l-3.175 -0.000 l0.000 4.660 l3.175 0.000 l0.000 5.340 l-3.175 -0.000 l0.000 4.660 l3.175 0.000 l0.000 5.340 l-3.175 -0.000 l0.000 4.660 l3.175 0.000 l0.000 5.340 l-3.175 -0.000 l0.000 4.660 l3.175 0.000 l0.000 5.340 l-3.175 -0.000 l0.000 4.660 l3.175 0.000 l0.000 5.340 l-3.175 -0.000 l0.000 4.660 l3.175 0.000 l0.000 5.340 l-3.175 -0.000 l0.000 4.660 l3.175 0.000 l0.000 5.340 l-3.175 -0.000 l0.000 4.660 l3.175 0.000 l0.000 5.340 l-3.175 -0.000 l0.000 4.660 l3.175 0.000 l0.000 5.340 l-3.175 -0.000 l0.000 4.660 l3.175 0.000 l0.000 5.340 l-3.175 -0.000 l0.000 4.660 l3.175 0.000 l0.000 5.340 l-3.175 -0.000 l0.000 4.660 l3.175 0.000 l0.000 5.340 l-3.175 -0.000 l0.000 4.660 l3.175 0.000 l0.000 5.340 l-3.175 -0.000 l0.000 4.660 l3.175 0.000 l0.000 4.490 l-7.335 0.000 l0.000 3.175 l-5.340 0.000 l-0.000 -3.175 l-4.660 0.000 l0.000 3.175 l-5.340 0.000 l-0.000 -3.175 l-4.660 0.000 l0.000 3.175 l-5.340 0.000 l-0.000 -3.175 l-4.660 0.000 l0.000 3.175 l-5.340 0.000 l-0.000 -3.175 l-4.660 0.000 l0.000 3.175 l-5.340 0.000 l-0.000 -3.175 l-4.660 0.000 l0.000 3.175 l-5.340 0.000 l-0.000 -3.175 l-4.660 0.000 l0.000 3.175 l-5.340 0.000 l-0.000 -3.175 l-4.660 0.000 l0.000 3.175 l-5.340 0.000 l-0.000 -3.175 l-4.660 0.000 l0.000 3.175 l-5.340 0.000 l-0.000 -3.175 l-7.335 0.000 l0.000 -4.490 l3.175 -0.000 l0.000 -4.660 l-3.175 0.000 l0.000 -5.340 l3.175 -0.000 l0.000 -4.660 l-3.175 0.000 l0.000 -5.340 l3.175 -0.000 l0.000 -4.660 l-3.175 0.000 l0.000 -5.340 l3.175 -0.000 l0.000 -4.660 l-3.175 0.000 l0.000 -5.340 l3.175 -0.000 l0.000 -4.660 l-3.175 0.000 l0.000 -5.340 l3.175 -0.000 l0.000 -4.660 l-3.175 0.000 l0.000 -5.340 l3.175 -0.000 l0.000 -4.660 l-3.175 0.000 l0.000 -5.340 l3.175 -0.000 l0.000 -4.660 l-3.175 0.000 l0.000 -5.340 l3.175 -0.000 l0.000 -4.660 l-3.175 0.000 l0.000 -5.340 l3.175 -0.000 l0.000 -4.660 l-3.175 0.000 l0.000 -5.340 l3.175 -0.000 l0.000 -4.660 l-3.175 0.000 l0.000 -5.340 l3.175 -0.000 l0.000 -4.660 l-3.175 0.000 l0.000 -5.340 l3.175 -0.000 l0.000 -4.660 l-3.175 0.000 l0.000 -5.340 l3.175 -0.000 l0.000 -4.660 l-3.175 0.000 l0.000 -4.490 Z" stroke="rgb(0,0,0)" stroke-width="0.1"/>
<text dominant-baseline="middle" font-size="20px" style="font-family: sans-serif ; font-weight: bold; font-style: normal; fill: rgb(0,0,0)" text-anchor="middle" transform="matrix( 1.000 0.000 0.000 1.000 110.0 243.4125 )"></text>
</g>
<g id="p-3" style="fill:none;stroke-linecap:round;stroke-linejoin:round;">
  <path d = "M270.000 170.000 l7.335 0.000 l0.000 -3.175 l5.340 0.000 l-0.000 3.175 l4.660 0.000 l0.000 -3.175 l5.340 0.000 l-0.000 3.175 l4.660 0.000 l0.000 -3.175 l5.340 0.000 l-0.000 3.175 l4.660 0.000 l0.000 -3.175 l5.340 0.000 l-0.000 3.175 l4.660 0.000 l0.000 -3.175 l5.340 0.000 l-0.000 3.175 l4.660 0.000 l0.000 -3.175 l5.340 0.000 l-0.000 3.175 l4.660 0.000 l0.000 -3.175 l5.340 0.000 l-0.000 3.175 l4.660 0.000 l0.000 -3.175 l5.340 0.000 l-0.000 3.175 l4.660 0.000 l0.000 -3.175 l5.340 0.000 l-0.000 3.175 l7.335 0.000 l0.000 4.490 l-3.175 -0.000 l0.000 4.660 l3.175 0.000 l0.000 5.340 l-3.175 -0.000 l0.000 4.660 l3.175 0.000 l0.000 5.340 l-3.175 -0.000 l0.000 4.660 l3.175 0.000 l0.000 5.340 l-3.175 -0.000 l0.000 4.660 l3.175 0.000 l0.000 5.340 l-3.175 -0.000 l0.000 4.660 l3.175 0.000 l0.000 5.340 l-3.175 -0.000 l0.000 4.660 l3.175 0.000 l0.000 5.340 l-3.175 -0.000 l0.000 4.660 l3.175 0.000 l0.000 5.340 l-3.175 -0.000 l0.000 4.660 l3.175 0.000 l0.000 5.340 l-3.175 -0.000 l0.000 4.660 l3.175 0.000 l0.000 5.340 l-3.175 -0.000 l0.000 4.660 l3.175 0.000 l0.000 5.340 l-3.175 -0.000 l0.000 4.660 l3.175 0.000 l0.000 5.340 l-3.175 -0.000 l0.000 4.660 l3.175 0.000 l0.000 5.340 l-3.175 -0.000 l0.000 4.660 l3.175 0.000 l0.000 5.340 l-3.175 -0.000 l0.000 4.660 l3.175 0.000 l0.000 4.490 l-7.335 0.000 l0.000 3.175 l-5.340 0.000 l-0.000 -3.175 l-4.660 0.000 l0.000 3.175 l-5.340 0.000 l-0.000 -3.175 l-4.660 0.000 l0.000 3.175 l-5.340 0.000 l-0.000 -3.175 l-4.660 0.000 l0.000 3.175 l-5.340 0.000 l-0.000 -3.175 l-4.660 0.000 l0.000 3.175 l-5.340 0.000 l-0.000 -3.175 l-4.660 0.000 l0.000 3.175 l-5.340 0.000 l-0.000 -3.175 l-4.660 0.000 l0.000 3.175 l-5.340 0.000 l-0.000 -3.175 l-4.660 0.000 l0.000 3.175 l-5.340 0.000 l-0.000 -3.175 l-4.660 0.000 l0.000 3.175 l-5.340 0.000 l-0.000 -3.175 l-7.335 0.000 l0.000 -4.490 l3.175 -0.000 l0.000 -4.660 l-3.175 0.000 l0.000 -5.340 l3.175 -0.000 l0.000 -4.660 l-3.175 0.000 l0.000 -5.340 l3.175 -0.000 l0.000 -4.660 l-3.175 0.000 l0.000 -5.340 l3.175 -0.000 l0.000 -4.660 l-3.175 0.000 l0.000 -5.340 l3.175 -0.000 l0.000 -4.660 l-3.175 0.000 l0.000 -5.340 l3.175 -0.000 l0.000 -4.660 l-3.175 0.000 l0.000 -5.340 l3.175 -0.000 l0.000 -4.660 l-3.175 0.000 l0.000 -5.340 l3.175 -0.000 l0.000 -4.660 l-3.175 0.000 l0.000 -5.340 l3.175 -0.000 l0.000 -4.660 l-3.175 0.000 l0.000 -5.340 l3.175 -0.000 l0.000 -4.660 l-3.175 0.000 l0.000 -5.340 l3.175 -0.000 l0.000 -4.660 l-3.175 0.000 l0.000 -5.340 l3.175 -0.000 l0.000 -4.660 l-3.175 0.000 l0.000 -5.340 l3.175 -0.000 l0.000 -4.660 l-3.175 0.000 l0.000 -5.340 l3.175 -0.000 l0.000 -4.660 l-3.175 0.000 l0.000 -4.490 Z" stroke="rgb(0,0,0)" stroke-width="0.1"/>
<text dominant-baseline="middle" font-size="20px" style="font-family: sans-serif ; font-weight: bold; font-style: normal; fill: rgb(0,0,0)" text-anchor="middle" transform="matrix( 1.000 0.000 0.000 1.000 320.0 243.4125 )"></text>
</g>
<g id="p-4" style="fill:none;stroke-linecap:round;stroke-linejoin:round;">
  <path d = "M60.000 330.000 l7.665 0.000 l-0.000 3.175 l4.660 0.000 l0.000 -3.175 l5.340 0.000 l-0.000 3.175 l4.660 0.000 l0.000 -3.175 l5.340 0.000 l-0.000 3.175 l4.660 0.000 l0.000 -3.175 l5.340 0.000 l-0.000 3.175 l4.660 0.000 l0.000 -3.175 l5.340 0.000 l-0.000 3.175 l4.660 0.000 l0.000 -3.175 l5.340 0.000 l-0.000 3.175 l4.660 0.000 l0.000 -3.175 l5.340 0.000 l-0.000 3.175 l4.660 0.000 l0.000 -3.175 l5.340 0.000 l-0.000 3.175 l4.660 0.000 l0.000 -3.175 l5.340 0.000 l-0.000 3.175 l4.660 0.000 l0.000 -3.175 l7.665 0.000 l0.000 7.665 l-3.175 -0.000 l0.000 4.660 l3.175 0.000 l0.000 5.340 l-3.175 -0.000 l0.000 4.660 l3.175 0.000 l0.000 5.340 l-3.175 -0.000 l0.000 4.660 l3.175 0.000 l0.000 5.340 l-3.175 -0.000 l0.000 4.660 l3.175 0.000 l0.000 5.340 l-3.175 -0.000 l0.000 4.660 l3.175 0.000 l0.000 5.340 l-3.175 -0.000 l0.000 4.660 l3.175 0.000 l0.000 5.340 l-3.175 -0.000 l0.000 4.660 l3.175 0.000 l0.000 5.340 l-3.175 -0.000 l0.000 4.660 l3.175 0.000 l0.000 5.340 l-3.175 -0.000 l0.000 4.660 l3.175 0.000 l0.000 5.340 l-3.175 -0.000 l0.000 4.660 l3.175 0.000 l0.000 5.340 l-3.175 -0.000 l0.000 4.660 l3.175 0.000 l0.000 5.340 l-3.175 -0.000 l0.000 4.660 l3.175 0.000 l0.000 5.340 l-3.175 -0.000 l0.000 4.660 l3.175 0.000 l0.000 5.340 l-3.175 -0.000 l0.000 4.660 l3.175 0.000 l0.000 5.340 l-3.175 -0.000 l0.000 4.660 l3.175 0.000 l0.000 5.340 l-3.175 -0.000 l0.000 4.660 l3.175 0.000 l0.000 5.340 l-3.175 -0.000 l0.000 4.660 l3.175 0.000 l0.000 5.340 l-3.175 -0.000 l0.000 4.660 l3.175 0.000 l0.000 5.340 l-3.175 -0.000 l0.000 4.660 l3.175 0.000 l0.000 7.665 l-7.665 0.000 l-0.000 -3.175 l-4.660 0.000 l0.000 3.175 l-5.340 0.000 l-0.000 -3.175 l-4.660 0.000 l0.000 3.175 l-5.340 0.000 l-0.000 -3.175 l-4.660 0.000 l0.000 3.175 l-5.340 0.000 l-0.000 -3.175 l-4.660 0.000 l0.000 3.175 l-5.340 0.000 l-0.000 -3.175 l-4.660 0.000 l0.000 3.175 l-5.340 0.000 l-0.000 -3.175 l-4.660 0.000 l0.000 3.175 l-5.340 0.000 l-0.000 -3.175 l-4.660 0.000 l0.000 3.175 l-5.340 0.000 l-0.000 -3.175 l-4.660 0.000 l0.000 3.175 l-5.340 0.000 l-0.000 -3.175 l-4.660 0.000 l0.000 3.175 l-7.665 0.000 l0.000 -7.665 l3.175 -0.000 l0.000 -4.660 l-3.175 0.000 l0.000 -5.340 l3.175 -0.000 l0.000 -4.660 l-3.175 0.000 l0.000 -5.340 l3.175 -0.000 l0.000 -4.660 l-3.175 0.000 l0.000 -5.340 l3.175 -0.000 l0.000 -4.660 l-3.175 0.000 l0.000 -5.340 l3.175 -0.000 l0.000 -4.660 l-3.175 0.000 l0.000 -5.340 l3.175 -0.000 l0.000 -4.660 l-3.175 0.000 l0.000 -5.340 l3.175 -0.000 l0.000 -4.660 l-3.175 0.000 l0.000 -5.340 l3.175 -0.000 l0.000 -4.660 l-3.175 0.000 l0.000 -5.340 l3.175 -0.000 l0.000 -4.660 l-3.175 0.000 l0.000 -5.340 l3.175 -0.000 l0.000 -4.660 l-3.175 0.000 l0.000 -5.340 l3.175 -0.000 l0.000 -4.660 l-3.175 0.000 l0.000 -5.340 l3.175 -0.000 l0.000 -4.660 l-3.175 0.000 l0.000 -5.340 l3.175 -0.000 l0.000 -4.660 l-3.175 0.000 l0.000 -5.340 l3.175 -0.000 l0.000 -4.660 l-3.175 0.000 l0.000 -5.340 l3.175 -0.000 l0.000 -4.660 l-3.175 0.000 l0.000 -5.340 l3.175 -0.000 l0.000 -4.660 l-3.175 0.000 l0.000 -5.340 l3.175 -0.000 l0.000 -4.660 l-3.175 0.000 l0.000 -5.340 l3.175 -0.000 l0.000 -4.660 l-3.175 0.000 l0.000 -5.340 l3.175 -0.000 l0.000 -4.660 l-3.175 0.000 l0.000 -7.665 Z" stroke="rgb(0,0,0)" stroke-width="0.1"/>
</g>
<g id="p-5" style="fill:none;stroke-linecap:round;stroke-linejoin:round;">
  <path d = "M270.000 330.000 l7.665 0.000 l-0.000 3.175 l4.660 0.000 l0.000 -3.175 l5.340 0.000 l-0.000 3.175 l4.660 0.000 l0.000 -3.175 l5.340 0.000 l-0.000 3.175 l4.660 0.000 l0.000 -3.175 l5.340 0.000 l-0.000 3.175 l4.660 0.000 l0.000 -3.175 l5.340 0.000 l-0.000 3.175 l4.660 0.000 l0.000 -3.175 l5.340 0.000 l-0.000 3.175 l4.660 0.000 l0.000 -3.175 l5.340 0.000 l-0.000 3.175 l4.660 0.000 l0.000 -3.175 l5.340 0.000 l-0.000 3.175 l4.660 0.000 l0.000 -3.175 l5.340 0.000 l-0.000 3.175 l4.660 0.000 l0.000 -3.175 l7.665 0.000 l0.000 7.665 l-3.175 -0.000 l0.000 4.660 l3.175 0.000 l0.000 5.340 l-3.175 -0.000 l0.000 4.660 l3.175 0.000 l0.000 5.340 l-3.175 -0.000 l0.000 4.660 l3.175 0.000 l0.000 5.340 l-3.175 -0.000 l0.000 4.660 l3.175 0.000 l0.000 5.340 l-3.175 -0.000 l0.000 4.660 l3.175 0.000 l0.000 5.340 l-3.175 -0.000 l0.000 4.660 l3.175 0.000 l0.000 5.340 l-3.175 -0.000 l0.000 4.660 l3.175 0.000 l0.000 5.340 l-3.175 -0.000 l0.000 4.660 l3.175 0.000 l0.000 5.340 l-3.175 -0.000 l0.000 4.660 l3.175 0.000 l0.000 5.340 l-3.175 -0.000 l0.000 4.660 l3.175 0.000 l0.000 5.340 l-3.175 -0.000 l0.000 4.660 l3.175 0.000 l0.000 5.340 l-3.175 -0.000 l0.000 4.660 l3.175 0.000 l0.000 5.340 l-3.175 -0.000 l0.000 4.660 l3.175 0.000 l0.000 5.340 l-3.175 -0.000 l0.000 4.660 l3.175 0.000 l0.000 5.340 l-3.175 -0.000 l0.000 4.660 l3.175 0.000 l0.000 5.340 l-3.175 -0.000 l0.000 4.660 l3.175 0.000 l0.000 5.340 l-3.175 -0.000 l0.000 4.660 l3.175 0.000 l0.000 5.340 l-3.175 -0.000 l0.000 4.660 l3.175 0.000 l0.000 5.340 l-3.175 -0.000 l0.000 4.660 l3.175 0.000 l0.000 7.665 l-7.665 0.000 l-0.000 -3.175 l-4.660 0.000 l0.000 3.175 l-5.340 0.000 l-0.000 -3.175 l-4.660 0.000 l0.000 3.175 l-5.340 0.000 l-0.000 -3.175 l-4.660 0.000 l0.000 3.175 l-5.340 0.000 l-0.000 -3.175 l-4.660 0.000 l0.000 3.175 l-5.340 0.000 l-0.000 -3.175 l-4.660 0.000 l0.000 3.175 l-5.340 0.000 l-0.000 -3.175 l-4.660 0.000 l0.000 3.175 l-5.340 0.000 l-0.000 -3.175 l-4.660 0.000 l0.000 3.175 l-5.340 0.000 l-0.000 -3.175 l-4.660 0.000 l0.000 3.175 l-5.340 0.000 l-0.000 -3.175 l-4.660 0.000 l0.000 3.175 l-7.665 0.000 l0.000 -7.665 l3.175 -0.000 l0.000 -4.660 l-3.175 0.000 l0.000 -5.340 l3.175 -0.000 l0.000 -4.660 l-3.175 0.000 l0.000 -5.340 l3.175 -0.000 l0.000 -4.660 l-3.175 0.000 l0.000 -5.340 l3.175 -0.000 l0.000 -4.660 l-3.175 0.000 l0.000 -5.340 l3.175 -0.000 l0.000 -4.660 l-3.175 0.000 l0.000 -5.340 l3.175 -0.000 l0.000 -4.660 l-3.175 0.000 l0.000 -5.340 l3.175 -0.000 l0.000 -4.660 l-3.175 0.000 l0.000 -5.340 l3.175 -0.000 l0.000 -4.660 l-3.175 0.000 l0.000 -5.340 l3.175 -0.000 l0.000 -4.660 l-3.175 0.000 l0.000 -5.340 l3.175 -0.000 l0.000 -4.660 l-3.175 0.000 l0.000 -5.340 l3.175 -0.000 l0.000 -4.660 l-3.175 0.000 l0.000 -5.340 l3.175 -0.000 l0.000 -4.660 l-3.175 0.000 l0.000 -5.340 l3.175 -0.000 l0.000 -4.660 l-3.175 0.000 l0.000 -5.340 l3.175 -0.000 l0.000 -4.660 l-3.175 0.000 l0.000 -5.340 l3.175 -0.000 l0.000 -4.660 l-3.175 0.000 l0.000 -5.340 l3.175 -0.000 l0.000 -4.660 l-3.175 0.000 l0.000 -5.340 l3.175 -0.000 l0.000 -4.660 l-3.175 0.000 l0.000 -5.340 l3.175 -0.000 l0.000 -4.660 l-3.175 0.000 l0.000 -5.340 l3.175 -0.000 l0.000 -4.660 l-3.175 0.000 l0.000 -7.665 Z" stroke="rgb(0,0,0)" stroke-width="0.1"/>
</g>
</svg>