<?xml version='1.0' encoding='utf-8'?>
  <svg height="110mm" viewBox="0.0 0.0 110 110" width="110mm"
   xmlns:xlink="http://www.w3.org/1999/xlink">

<g id="p-0" style="fill:none;stroke-linecap:round;stroke-linejoin:round;">
<path d="M5.000 5.000 l6.250 0.000 l0.000 -3.175 l6.250 0.000 l-0.000 3.175 l6.250 0.000 l0.000 -3.175 l6.250 0.000 l-0.000 3.175 l6.250 0.000 l0.000 -3.175 l6.250 0.000 l-0.000 3.175 l6.250 0.000 l0.000 -3.175 l6.250 0.000 l-0.000 3.175 l3.175 0.000 l0.000 12.500 l-3.175 -0.000 l0.000 12.500 l3.175 0.000 l0.000 12.500 l-3.175 -0.000 l0.000 12.500 l3.175 0.000 l0.000 12.500 l-3.175 -0.000 l0.000 12.500 l3.175 0.000 l0.000 12.500 l-3.175 -0.000 l0.000 12.500 l-6.250 0.000 l0.000 3.175 l-6.250 0.000 l-0.000 -3.175 l-6.250 0.000 l0.000 3.175 l-6.250 0.000 l-0.000 -3.175 l-6.250 0.000 l0.000 3.175 l-6.250 0.000 l-0.000 -3.175 l-6.250 0.000 l0.000 3.175 l-6.250 0.000 l-0.000 -3.175 l-3.175 0.000 l0.000 -12.500 l3.175 -0.000 l0.000 -12.500 l-3.175 0.000 l0.000 -12.500 l3.175 -0.000 l0.000 -12.500 l-3.175 0.000 l0.000 -12.500 l3.175 -0.000 l0.000 -12.500 l-3.175 0.000 l0.000 -12.500 l3.175 -0.000 l0.000 -12.500 Z" stroke="rgb(0,0,0)" stroke-width="0.10" />
</g>
</svg>
