<?xml version='1.0' encoding='utf-8'?>
<svg height="350.0mm" viewBox="0.0 0.0 250.0 350.0" width="250.0mm" 
xmlns="http://www.w3.org/2000/svg" xmlns:cc="http://creativecommons.org/ns#" xmlns:dc="http://purl.org/dc/elements/1.1/"
xmlns:inkscape="http://www.inkscape.org/namespaces/inkscape" xmlns:rdf="http://www.w3.org/1999/02/22-rdf-syntax-ns#"
xmlns:svg="http://www.w3.org/2000/svg" xmlns:xlink="http://www.w3.org/1999/xlink">

<rect height="100%" width="100%" fill="rgba(255, 255, 255, 1)"/>
<g id="p-0" style="fill:none;stroke-linecap:round;stroke-linejoin:round;">
  <path d = "M8.175 10.000 l4.285 0.000 l4.285 0.000 l0.000 4.285 l0.000 4.285 l-4.285 0.000 l-4.285 0.000 l0.000 -4.285 l0.000 -4.285 Z" stroke="rgb(0,0,0)" stroke-width="0.1"/>
</g>
<g id="p-1" style="fill:none;stroke-linecap:round;stroke-linejoin:round;">
  <path d = "M28.175 10.000 l4.285 0.000 l4.285 0.000 l0.000 4.285 l0.000 4.285 l-4.285 0.000 l-4.285 0.000 l0.000 -4.285 l0.000 -4.285 Z" stroke="rgb(0,0,0)" stroke-width="0.1"/>
</g>
<g id="p-2" style="fill:none;stroke-linecap:round;stroke-linejoin:round;">
  <path d = "M5.000 30.000 l7.460 0.000 l7.460 0.000 l0.000 4.365 l0.000 4.365 l-7.460 0.000 l-7.460 0.000 l0.000 -4.365 l0.000 -4.365 Z" stroke="rgb(0,0,0)" stroke-width="0.1"/>
</g>
<g id="p-3" style="fill:none;stroke-linecap:round;stroke-linejoin:round;">
  <path d = "M25.000 30.000 l7.460 0.000 l7.460 0.000 l0.000 4.365 l0.000 4.365 l-7.460 0.000 l-7.460 0.000 l0.000 -4.365 l0.000 -4.365 Z" stroke="rgb(0,0,0)" stroke-width="0.1"/>
</g>
<g id="p-4" style="fill:none;stroke-linecap:round;stroke-linejoin:round;">
  <path d = "M5.000 50.000 l7.540 0.000 l7.540 0.000 l0.000 7.540 l0.000 7.540 l-7.540 0.000 l-7.540 0.000 l0.000 -7.540 l0.000 -7.540 Z" stroke="rgb(0,0,0)" stroke-width="0.1"/>
</g>
<g id="p-5" style="fill:none;stroke-linecap:round;stroke-linejoin:round;">
  <path d = "M25.000 50.000 l21.350 0.000 l0.000 21.350 l-21.350 0.000 l0.000 -21.350 Z" stroke="rgb(0,0,0)" stroke-width="0.1"/>
</g>
</svg>