<?xml version='1.0' encoding='utf-8'?>
<svg height="350.0mm" viewBox="0.0 0.0 250.0 350.0" width="250.0mm" 
xmlns="http://www.w3.org/2000/svg" xmlns:cc="http://creativecommons.org/ns#" xmlns:dc="http://purl.org/dc/elements/1.1/"
xmlns:inkscape="http://www.inkscape.org/namespaces/inkscape" xmlns:rdf="http://www.w3.org/1999/02/22-rdf-syntax-ns#"
xmlns:svg="http://www.w3.org/2000/svg" xmlns:xlink="http://www.w3.org/1999/xlink">

<g id="p-0" style="fill:none;stroke-linecap:round;stroke-linejoin:round;">
<text font-size="20px" style="font-family: sans-serif ; font-weight: bold; font-style: normal; fill: rgb(0,0,0)" text-anchor="middle" transform="matrix( 1.000 0.000 0.000 1.000 40.675 50.0 )">DD</text>  <path d = "M15.675 10.000 l9.825 0.000 l0.000 -3.175 l8.000 0.000 l-0.000 3.175 l8.000 0.000 l0.000 -3.175 l8.000 0.000 l-0.000 3.175 l9.825 0.000 l0.000 8.825 l3.175 0.000 l0.000 8.000 l-3.175 -0.000 l0.000 8.000 l3.175 0.000 l0.000 8.000 l-3.175 -0.000 l0.000 8.000 l3.175 0.000 l0.000 8.000 l-3.175 -0.000 l0.000 8.000 l3.175 0.000 l0.000 8.000 l-3.175 -0.000 l0.000 8.825 l-9.825 0.000 l0.000 3.175 l-8.000 0.000 l-0.000 -3.175 l-8.000 0.000 l0.000 3.175 l-8.000 0.000 l-0.000 -3.175 l-9.825 0.000 l0.000 -8.825 l-3.175 0.000 l0.000 -8.000 l3.175 -0.000 l0.000 -8.000 l-3.175 0.000 l0.000 -8.000 l3.175 -0.000 l0.000 -8.000 l-3.175 0.000 l0.000 -8.000 l3.175 -0.000 l0.000 -8.000 l-3.175 0.000 l0.000 -8.000 l3.175 -0.000 l0.000 -8.825 Z" stroke="rgb(0,0,0)" stroke-width="0.1"/>
</g>
<g id="p-1" style="fill:none;stroke-linecap:round;stroke-linejoin:round;">
<text font-size="20px" style="font-family: sans-serif ; font-weight: bold; font-style: normal; fill: rgb(0,0,0)" text-anchor="middle" transform="matrix( 1.000 0.000 0.000 1.000 110.675 50.0 )">DD</text>  <path d = "M85.675 10.000 l9.825 0.000 l0.000 -3.175 l8.000 0.000 l-0.000 3.175 l8.000 0.000 l0.000 -3.175 l8.000 0.000 l-0.000 3.175 l9.825 0.000 l0.000 8.825 l3.175 0.000 l0.000 8.000 l-3.175 -0.000 l0.000 8.000 l3.175 0.000 l0.000 8.000 l-3.175 -0.000 l0.000 8.000 l3.175 0.000 l0.000 8.000 l-3.175 -0.000 l0.000 8.000 l3.175 0.000 l0.000 8.000 l-3.175 -0.000 l0.000 8.825 l-9.825 0.000 l0.000 3.175 l-8.000 0.000 l-0.000 -3.175 l-8.000 0.000 l0.000 3.175 l-8.000 0.000 l-0.000 -3.175 l-9.825 0.000 l0.000 -8.825 l-3.175 0.000 l0.000 -8.000 l3.175 -0.000 l0.000 -8.000 l-3.175 0.000 l0.000 -8.000 l3.175 -0.000 l0.000 -8.000 l-3.175 0.000 l0.000 -8.000 l3.175 -0.000 l0.000 -8.000 l-3.175 0.000 l0.000 -8.000 l3.175 -0.000 l0.000 -8.825 Z" stroke="rgb(0,0,0)" stroke-width="0.1"/>
</g>
<g id="p-2" style="fill:none;stroke-linecap:round;stroke-linejoin:round;">
<text font-size="20px" style="font-family: sans-serif ; font-weight: bold; font-style: normal; fill: rgb(0,0,0)" text-anchor="middle" transform="matrix( 1.000 0.000 0.000 1.000 37.5 135.0 )">DD</text>  <path d = "M5.000 95.000 l12.500 0.000 l0.000 -3.175 l8.000 0.000 l-0.000 3.175 l8.000 0.000 l0.000 -3.175 l8.000 0.000 l-0.000 3.175 l8.000 0.000 l0.000 -3.175 l8.000 0.000 l-0.000 3.175 l12.500 0.000 l0.000 8.825 l-3.175 -0.000 l0.000 8.000 l3.175 0.000 l0.000 8.000 l-3.175 -0.000 l0.000 8.000 l3.175 0.000 l0.000 8.000 l-3.175 -0.000 l0.000 8.000 l3.175 0.000 l0.000 8.000 l-3.175 -0.000 l0.000 8.000 l3.175 0.000 l0.000 8.825 l-12.500 0.000 l0.000 3.175 l-8.000 0.000 l-0.000 -3.175 l-8.000 0.000 l0.000 3.175 l-8.000 0.000 l-0.000 -3.175 l-8.000 0.000 l0.000 3.175 l-8.000 0.000 l-0.000 -3.175 l-12.500 0.000 l0.000 -8.825 l3.175 -0.000 l0.000 -8.000 l-3.175 0.000 l0.000 -8.000 l3.175 -0.000 l0.000 -8.000 l-3.175 0.000 l0.000 -8.000 l3.175 -0.000 l0.000 -8.000 l-3.175 0.000 l0.000 -8.000 l3.175 -0.000 l0.000 -8.000 l-3.175 0.000 l0.000 -8.825 Z" stroke="rgb(0,0,0)" stroke-width="0.1"/>
</g>
<g id="p-3" style="fill:none;stroke-linecap:round;stroke-linejoin:round;">
<text font-size="20px" style="font-family: sans-serif ; font-weight: bold; font-style: normal; fill: rgb(0,0,0)" text-anchor="middle" transform="matrix( 1.000 0.000 0.000 1.000 107.5 135.0 )">DD</text>  <path d = "M75.000 95.000 l12.500 0.000 l0.000 -3.175 l8.000 0.000 l-0.000 3.175 l8.000 0.000 l0.000 -3.175 l8.000 0.000 l-0.000 3.175 l8.000 0.000 l0.000 -3.175 l8.000 0.000 l-0.000 3.175 l12.500 0.000 l0.000 8.825 l-3.175 -0.000 l0.000 8.000 l3.175 0.000 l0.000 8.000 l-3.175 -0.000 l0.000 8.000 l3.175 0.000 l0.000 8.000 l-3.175 -0.000 l0.000 8.000 l3.175 0.000 l0.000 8.000 l-3.175 -0.000 l0.000 8.000 l3.175 0.000 l0.000 8.825 l-12.500 0.000 l0.000 3.175 l-8.000 0.000 l-0.000 -3.175 l-8.000 0.000 l0.000 3.175 l-8.000 0.000 l-0.000 -3.175 l-8.000 0.000 l0.000 3.175 l-8.000 0.000 l-0.000 -3.175 l-12.500 0.000 l0.000 -8.825 l3.175 -0.000 l0.000 -8.000 l-3.175 0.000 l0.000 -8.000 l3.175 -0.000 l0.000 -8.000 l-3.175 0.000 l0.000 -8.000 l3.175 -0.000 l0.000 -8.000 l-3.175 0.000 l0.000 -8.000 l3.175 -0.000 l0.000 -8.000 l-3.175 0.000 l0.000 -8.825 Z" stroke="rgb(0,0,0)" stroke-width="0.1"/>
</g>
<g id="p-4" style="fill:none;stroke-linecap:round;stroke-linejoin:round;">
<text font-size="20px" style="font-family: sans-serif ; font-weight: bold; font-style: normal; fill: rgb(0,0,0)" text-anchor="middle" transform="matrix( 1.000 0.000 0.000 1.000 37.5 205.0 )">DD</text>  <path d = "M5.000 180.000 l12.500 0.000 l-0.000 3.175 l8.000 0.000 l0.000 -3.175 l8.000 0.000 l-0.000 3.175 l8.000 0.000 l0.000 -3.175 l8.000 0.000 l-0.000 3.175 l8.000 0.000 l0.000 -3.175 l12.500 0.000 l0.000 13.000 l-3.175 -0.000 l0.000 8.000 l3.175 0.000 l0.000 8.000 l-3.175 -0.000 l0.000 8.000 l3.175 0.000 l0.000 13.000 l-12.500 0.000 l-0.000 -3.175 l-8.000 0.000 l0.000 3.175 l-8.000 0.000 l-0.000 -3.175 l-8.000 0.000 l0.000 3.175 l-8.000 0.000 l-0.000 -3.175 l-8.000 0.000 l0.000 3.175 l-12.500 0.000 l0.000 -13.000 l3.175 -0.000 l0.000 -8.000 l-3.175 0.000 l0.000 -8.000 l3.175 -0.000 l0.000 -8.000 l-3.175 0.000 l0.000 -13.000 Z" stroke="rgb(0,0,0)" stroke-width="0.1"/>
</g>
<g id="p-5" style="fill:none;stroke-linecap:round;stroke-linejoin:round;">
<text font-size="20px" style="font-family: sans-serif ; font-weight: bold; font-style: normal; fill: rgb(0,0,0)" text-anchor="middle" transform="matrix( 1.000 0.000 0.000 1.000 107.5 205.0 )">DD</text>  <path d = "M75.000 180.000 l71.350 0.000 l0.000 56.350 l-71.350 0.000 l0.000 -56.350 Z" stroke="rgb(0,0,0)" stroke-width="0.1"/>
<path d="M90.675 183.175 l8.000 0.000 l0.000 3.175 l-8.000 -0.000 l-0.000 -3.175 Z" stroke="rgb(0,0,0)" stroke-width="0.1"/>
<path d="M106.675 183.175 l8.000 0.000 l0.000 3.175 l-8.000 -0.000 l-0.000 -3.175 Z" stroke="rgb(0,0,0)" stroke-width="0.1"/>
<path d="M122.675 183.175 l8.000 0.000 l0.000 3.175 l-8.000 -0.000 l-0.000 -3.175 Z" stroke="rgb(0,0,0)" stroke-width="0.1"/>
<path d="M143.175 196.175 l0.000 8.000 l-3.175 0.000 l-0.000 -8.000 l3.175 -0.000 Z" stroke="rgb(0,0,0)" stroke-width="0.1"/>
<path d="M143.175 212.175 l0.000 8.000 l-3.175 0.000 l-0.000 -8.000 l3.175 -0.000 Z" stroke="rgb(0,0,0)" stroke-width="0.1"/>
<path d="M130.675 233.175 l-8.000 0.000 l0.000 -3.175 l8.000 -0.000 l-0.000 3.175 Z" stroke="rgb(0,0,0)" stroke-width="0.1"/>
<path d="M114.675 233.175 l-8.000 0.000 l0.000 -3.175 l8.000 -0.000 l-0.000 3.175 Z" stroke="rgb(0,0,0)" stroke-width="0.1"/>
<path d="M98.675 233.175 l-8.000 0.000 l0.000 -3.175 l8.000 -0.000 l-0.000 3.175 Z" stroke="rgb(0,0,0)" stroke-width="0.1"/>
<path d="M78.175 220.175 l0.000 -8.000 l3.175 0.000 l-0.000 8.000 l-3.175 -0.000 Z" stroke="rgb(0,0,0)" stroke-width="0.1"/>
<path d="M78.175 204.175 l0.000 -8.000 l3.175 0.000 l-0.000 8.000 l-3.175 -0.000 Z" stroke="rgb(0,0,0)" stroke-width="0.1"/>
</g>
</svg>