<?xml version='1.0' encoding='utf-8'?>
<svg height="700.0mm" viewBox="0.0 0.0 250.0 700.0" width="250.0mm" 
xmlns="http://www.w3.org/2000/svg" xmlns:cc="http://creativecommons.org/ns#" xmlns:dc="http://purl.org/dc/elements/1.1/"
xmlns:inkscape="http://www.inkscape.org/namespaces/inkscape" xmlns:rdf="http://www.w3.org/1999/02/22-rdf-syntax-ns#"
xmlns:svg="http://www.w3.org/2000/svg" xmlns:xlink="http://www.w3.org/1999/xlink">

<rect height="100%" width="100%" fill="rgba(255, 255, 255, 1)"/>
<g id="p-0" style="fill:none;stroke-linecap:round;stroke-linejoin:round;">
  <path d = "M10.000 10.000 l100.000 0.000 l0.000 8.825 l-3.175 -0.000 l0.000 13.650 l3.175 0.000 l0.000 14.350 l-3.175 -0.000 l0.000 13.650 l3.175 0.000 l0.000 14.350 l-3.175 -0.000 l0.000 13.650 l3.175 0.000 l0.000 12.000 l-14.825 0.000 l0.000 3.175 l-14.350 0.000 l-0.000 -3.175 l-13.650 0.000 l0.000 3.175 l-14.350 0.000 l-0.000 -3.175 l-13.650 0.000 l0.000 3.175 l-14.350 0.000 l-0.000 -3.175 l-14.825 0.000 l0.000 -12.000 l3.175 -0.000 l0.000 -13.650 l-3.175 0.000 l0.000 -14.350 l3.175 -0.000 l0.000 -13.650 l-3.175 0.000 l0.000 -14.350 l3.175 -0.000 l0.000 -13.650 l-3.175 0.000 l0.000 -8.825 Z" stroke="rgb(0,0,0)" stroke-width="0.1"/>
<text dominant-baseline="middle" font-size="20px" style="font-family: sans-serif ; font-weight: bold; font-style: normal; fill: rgb(0,0,0)" text-anchor="middle" transform="matrix( 1.000 0.000 0.000 1.000 56.825 58.4125 )"></text>
</g>
<g id="p-1" style="fill:none;stroke-linecap:round;stroke-linejoin:round;">
  <path d = "M120.000 10.000 l15.175 0.000 l-0.000 3.175 l13.650 0.000 l0.000 -3.175 l14.350 0.000 l-0.000 3.175 l13.650 0.000 l0.000 -3.175 l14.350 0.000 l-0.000 3.175 l13.650 0.000 l0.000 -3.175 l15.175 0.000 l0.000 15.175 l-3.175 -0.000 l0.000 13.650 l3.175 0.000 l0.000 14.350 l-3.175 -0.000 l0.000 13.650 l3.175 0.000 l0.000 14.350 l-3.175 -0.000 l0.000 13.650 l3.175 0.000 l0.000 12.000 l-14.825 0.000 l0.000 3.175 l-14.350 0.000 l-0.000 -3.175 l-13.650 0.000 l0.000 3.175 l-14.350 0.000 l-0.000 -3.175 l-13.650 0.000 l0.000 3.175 l-14.350 0.000 l-0.000 -3.175 l-14.825 0.000 l0.000 -12.000 l3.175 -0.000 l0.000 -13.650 l-3.175 0.000 l0.000 -14.350 l3.175 -0.000 l0.000 -13.650 l-3.175 0.000 l0.000 -14.350 l3.175 -0.000 l0.000 -13.650 l-3.175 0.000 l0.000 -15.175 Z" stroke="rgb(0,0,0)" stroke-width="0.1"/>
<text dominant-baseline="middle" font-size="20px" style="font-family: sans-serif ; font-weight: bold; font-style: normal; fill: rgb(0,0,0)" text-anchor="middle" transform="matrix( 1.000 0.000 0.000 1.000 166.825 58.4125 )"></text>
</g>
<g id="p-2" style="fill:none;stroke-linecap:round;stroke-linejoin:round;">
  <path d = "M13.175 120.000 l12.000 0.000 l-0.000 3.175 l13.650 0.000 l0.000 -3.175 l14.350 0.000 l-0.000 3.175 l13.650 0.000 l0.000 -3.175 l14.350 0.000 l-0.000 3.175 l13.650 0.000 l0.000 -3.175 l12.000 0.000 l0.000 14.825 l3.175 0.000 l0.000 14.350 l-3.175 -0.000 l0.000 13.650 l3.175 0.000 l0.000 14.350 l-3.175 -0.000 l0.000 13.650 l3.175 0.000 l0.000 14.350 l-3.175 -0.000 l0.000 11.650 l-11.650 0.000 l0.000 3.175 l-14.350 0.000 l-0.000 -3.175 l-13.650 0.000 l0.000 3.175 l-14.350 0.000 l-0.000 -3.175 l-13.650 0.000 l0.000 3.175 l-14.350 0.000 l-0.000 -3.175 l-11.650 0.000 l0.000 -11.650 l-3.175 0.000 l0.000 -14.350 l3.175 -0.000 l0.000 -13.650 l-3.175 0.000 l0.000 -14.350 l3.175 -0.000 l0.000 -13.650 l-3.175 0.000 l0.000 -14.350 l3.175 -0.000 l0.000 -14.825 Z" stroke="rgb(0,0,0)" stroke-width="0.1"/>
<path d="M25.000 126.350 l14.000 0.000 l0.000 3.175 l-14.000 -0.000 l-0.000 -3.175 Z" stroke="rgb(0,0,0)" stroke-width="0.1"/>
<path d="M53.000 126.350 l14.000 0.000 l0.000 3.175 l-14.000 -0.000 l-0.000 -3.175 Z" stroke="rgb(0,0,0)" stroke-width="0.1"/>
<path d="M81.000 126.350 l14.000 0.000 l0.000 3.175 l-14.000 -0.000 l-0.000 -3.175 Z" stroke="rgb(0,0,0)" stroke-width="0.1"/>
<text dominant-baseline="middle" font-size="20px" style="font-family: sans-serif ; font-weight: bold; font-style: normal; fill: rgb(0,0,0)" text-anchor="middle" transform="matrix( 1.000 0.000 0.000 1.000 63.175 168.4125 )"></text>
</g>
<g id="p-3" style="fill:none;stroke-linecap:round;stroke-linejoin:round;">
  <path d = "M123.175 120.000 l12.000 0.000 l-0.000 3.175 l13.650 0.000 l0.000 -3.175 l14.350 0.000 l-0.000 3.175 l13.650 0.000 l0.000 -3.175 l14.350 0.000 l-0.000 3.175 l13.650 0.000 l0.000 -3.175 l12.000 0.000 l0.000 14.825 l3.175 0.000 l0.000 14.350 l-3.175 -0.000 l0.000 13.650 l3.175 0.000 l0.000 14.350 l-3.175 -0.000 l0.000 13.650 l3.175 0.000 l0.000 14.350 l-3.175 -0.000 l0.000 11.650 l-11.650 0.000 l0.000 3.175 l-14.350 0.000 l-0.000 -3.175 l-13.650 0.000 l0.000 3.175 l-14.350 0.000 l-0.000 -3.175 l-13.650 0.000 l0.000 3.175 l-14.350 0.000 l-0.000 -3.175 l-11.650 0.000 l0.000 -11.650 l-3.175 0.000 l0.000 -14.350 l3.175 -0.000 l0.000 -13.650 l-3.175 0.000 l0.000 -14.350 l3.175 -0.000 l0.000 -13.650 l-3.175 0.000 l0.000 -14.350 l3.175 -0.000 l0.000 -14.825 Z" stroke="rgb(0,0,0)" stroke-width="0.1"/>
<path d="M135.000 126.350 l14.000 0.000 l0.000 3.175 l-14.000 -0.000 l-0.000 -3.175 Z" stroke="rgb(0,0,0)" stroke-width="0.1"/>
<path d="M163.000 126.350 l14.000 0.000 l0.000 3.175 l-14.000 -0.000 l-0.000 -3.175 Z" stroke="rgb(0,0,0)" stroke-width="0.1"/>
<path d="M191.000 126.350 l14.000 0.000 l0.000 3.175 l-14.000 -0.000 l-0.000 -3.175 Z" stroke="rgb(0,0,0)" stroke-width="0.1"/>
<text dominant-baseline="middle" font-size="20px" style="font-family: sans-serif ; font-weight: bold; font-style: normal; fill: rgb(0,0,0)" text-anchor="middle" transform="matrix( 1.000 0.000 0.000 1.000 173.175 168.4125 )"></text>
</g>
<g id="p-4" style="fill:none;stroke-linecap:round;stroke-linejoin:round;">
  <path d = "M13.175 231.588 l93.650 0.000 l0.000 96.825 l-93.650 0.000 l0.000 -96.825 Z" stroke="rgb(0,0,0)" stroke-width="0.1"/>
</g>
<g id="p-5" style="fill:none;stroke-linecap:round;stroke-linejoin:round;">
  <path d = "M120.000 230.000 l15.175 0.000 l-0.000 3.175 l13.650 0.000 l0.000 -3.175 l14.350 0.000 l-0.000 3.175 l13.650 0.000 l0.000 -3.175 l14.350 0.000 l-0.000 3.175 l13.650 0.000 l0.000 -3.175 l15.175 0.000 l0.000 15.175 l-3.175 -0.000 l0.000 13.650 l3.175 0.000 l0.000 14.350 l-3.175 -0.000 l0.000 13.650 l3.175 0.000 l0.000 14.350 l-3.175 -0.000 l0.000 13.650 l3.175 0.000 l0.000 15.175 l-15.175 0.000 l-0.000 -3.175 l-13.650 0.000 l0.000 3.175 l-14.350 0.000 l-0.000 -3.175 l-13.650 0.000 l0.000 3.175 l-14.350 0.000 l-0.000 -3.175 l-13.650 0.000 l0.000 3.175 l-15.175 0.000 l0.000 -15.175 l3.175 -0.000 l0.000 -13.650 l-3.175 0.000 l0.000 -14.350 l3.175 -0.000 l0.000 -13.650 l-3.175 0.000 l0.000 -14.350 l3.175 -0.000 l0.000 -13.650 l-3.175 0.000 l0.000 -15.175 Z" stroke="rgb(0,0,0)" stroke-width="0.1"/>
</g>
<g id="p-6" style="fill:none;stroke-linecap:round;stroke-linejoin:round;">
  <path d = "M10.000 340.000 l93.650 0.000 l0.000 4.825 l-11.650 0.000 l0.000 3.175 l-14.350 0.000 l-0.000 -3.175 l-13.650 0.000 l0.000 3.175 l-14.350 0.000 l-0.000 -3.175 l-13.650 0.000 l0.000 3.175 l-14.350 0.000 l-0.000 -3.175 l-11.650 0.000 l0.000 -4.825 Z" stroke="rgb(0,0,0)" stroke-width="0.1"/>
</g>
<g id="p-7" style="fill:none;stroke-linecap:round;stroke-linejoin:round;">
  <path d = "M120.000 340.000 l93.650 0.000 l0.000 4.825 l-11.650 0.000 l0.000 3.175 l-14.350 0.000 l-0.000 -3.175 l-13.650 0.000 l0.000 3.175 l-14.350 0.000 l-0.000 -3.175 l-13.650 0.000 l0.000 3.175 l-14.350 0.000 l-0.000 -3.175 l-11.650 0.000 l0.000 -4.825 Z" stroke="rgb(0,0,0)" stroke-width="0.1"/>
</g>
<g id="p-8" style="fill:none;stroke-linecap:round;stroke-linejoin:round;">
  <path d = "M10.000 358.000 l96.825 0.000 l0.000 4.825 l-11.650 0.000 l0.000 3.175 l-14.350 0.000 l-0.000 -3.175 l-13.650 0.000 l0.000 3.175 l-14.350 0.000 l-0.000 -3.175 l-13.650 0.000 l0.000 3.175 l-14.350 0.000 l-0.000 -3.175 l-14.825 0.000 l0.000 -4.825 Z" stroke="rgb(0,0,0)" stroke-width="0.1"/>
</g>
<g id="p-9" style="fill:none;stroke-linecap:round;stroke-linejoin:round;">
  <path d = "M120.000 358.000 l96.825 0.000 l0.000 4.825 l-14.825 0.000 l0.000 3.175 l-14.350 0.000 l-0.000 -3.175 l-13.650 0.000 l0.000 3.175 l-14.350 0.000 l-0.000 -3.175 l-13.650 0.000 l0.000 3.175 l-14.350 0.000 l-0.000 -3.175 l-11.650 0.000 l0.000 -4.825 Z" stroke="rgb(0,0,0)" stroke-width="0.1"/>
</g>
<g id="p-10" style="fill:none;stroke-linecap:round;stroke-linejoin:round;">
  <path d = "M10.000 376.000 l84.000 0.000 l0.000 4.825 l-6.825 0.000 l0.000 3.175 l-14.350 0.000 l-0.000 -3.175 l-13.650 0.000 l0.000 3.175 l-14.350 0.000 l-0.000 -3.175 l-13.650 0.000 l0.000 3.175 l-14.350 0.000 l-0.000 -3.175 l-6.825 0.000 l0.000 -4.825 Z" stroke="rgb(0,0,0)" stroke-width="0.1"/>
</g>
</svg>