<?xml version='1.0' encoding='utf-8'?>
<svg height="350.0mm" viewBox="0.0 0.0 250.0 350.0" width="250.0mm" 
xmlns="http://www.w3.org/2000/svg" xmlns:cc="http://creativecommons.org/ns#" xmlns:dc="http://purl.org/dc/elements/1.1/"
xmlns:inkscape="http://www.inkscape.org/namespaces/inkscape" xmlns:rdf="http://www.w3.org/1999/02/22-rdf-syntax-ns#"
xmlns:svg="http://www.w3.org/2000/svg" xmlns:xlink="http://www.w3.org/1999/xlink">

<g id="p-0" style="fill:none;stroke-linecap:round;stroke-linejoin:round;">
  <path d = "M8.175 10.000 l6.650 0.000 l6.650 0.000 l0.000 6.650 l0.000 6.650 l-6.650 0.000 l-6.650 0.000 l0.000 -6.650 l0.000 -6.650 Z" stroke="rgb(0,0,0)" stroke-width="0.1"/>
<text dominant-baseline="middle" font-size="20px" style="font-family: sans-serif ; font-weight: bold; font-style: normal; fill: rgb(0,0,0)" text-anchor="middle" transform="matrix( 1.000 0.000 0.000 1.000 15.0 18.4125 )">B</text>
</g>
<g id="p-1" style="fill:none;stroke-linecap:round;stroke-linejoin:round;">
  <path d = "M33.175 10.000 l6.650 0.000 l6.650 0.000 l0.000 6.650 l0.000 6.650 l-6.650 0.000 l-6.650 0.000 l0.000 -6.650 l0.000 -6.650 Z" stroke="rgb(0,0,0)" stroke-width="0.1"/>
<text dominant-baseline="middle" font-size="20px" style="font-family: sans-serif ; font-weight: bold; font-style: normal; fill: rgb(0,0,0)" text-anchor="middle" transform="matrix( 1.000 0.000 0.000 1.000 40.0 18.4125 )">B</text>
</g>
<g id="p-2" style="fill:none;stroke-linecap:round;stroke-linejoin:round;">
  <path d = "M5.000 35.000 l9.825 0.000 l9.825 0.000 l0.000 7.000 l0.000 7.000 l-9.825 0.000 l-9.825 0.000 l0.000 -7.000 l0.000 -7.000 Z" stroke="rgb(0,0,0)" stroke-width="0.1"/>
<text dominant-baseline="middle" font-size="20px" style="font-family: sans-serif ; font-weight: bold; font-style: normal; fill: rgb(0,0,0)" text-anchor="middle" transform="matrix( 1.000 0.000 0.000 1.000 15.0 43.4125 )">B</text>
</g>
<g id="p-3" style="fill:none;stroke-linecap:round;stroke-linejoin:round;">
  <path d = "M30.000 35.000 l9.825 0.000 l9.825 0.000 l0.000 7.000 l0.000 7.000 l-9.825 0.000 l-9.825 0.000 l0.000 -7.000 l0.000 -7.000 Z" stroke="rgb(0,0,0)" stroke-width="0.1"/>
<text dominant-baseline="middle" font-size="20px" style="font-family: sans-serif ; font-weight: bold; font-style: normal; fill: rgb(0,0,0)" text-anchor="middle" transform="matrix( 1.000 0.000 0.000 1.000 40.0 43.4125 )">B</text>
</g>
<g id="p-4" style="fill:none;stroke-linecap:round;stroke-linejoin:round;">
  <path d = "M5.000 60.000 l10.175 0.000 l10.175 0.000 l0.000 10.175 l0.000 10.175 l-10.175 0.000 l-10.175 0.000 l0.000 -10.175 l0.000 -10.175 Z" stroke="rgb(0,0,0)" stroke-width="0.1"/>
</g>
<g id="p-5" style="fill:none;stroke-linecap:round;stroke-linejoin:round;">
  <path d = "M30.000 60.000 l26.350 0.000 l0.000 26.350 l-26.350 0.000 l0.000 -26.350 Z" stroke="rgb(0,0,0)" stroke-width="0.1"/>
</g>
</svg>