<?xml version='1.0' encoding='utf-8'?>
<svg height="350.0mm" viewBox="0.0 0.0 250.0 350.0" width="250.0mm" 
xmlns="http://www.w3.org/2000/svg" xmlns:cc="http://creativecommons.org/ns#" xmlns:dc="http://purl.org/dc/elements/1.1/"
xmlns:inkscape="http://www.inkscape.org/namespaces/inkscape" xmlns:rdf="http://www.w3.org/1999/02/22-rdf-syntax-ns#"
xmlns:svg="http://www.w3.org/2000/svg" xmlns:xlink="http://www.w3.org/1999/xlink">

<g id="p-0" style="fill:none;stroke-linecap:round;stroke-linejoin:round;">
  <path d = "M13.175 10.000 l4.150 0.000 l0.000 -3.175 l5.350 0.000 l-0.000 3.175 l4.650 0.000 l0.000 -3.175 l5.350 0.000 l-0.000 3.175 l4.650 0.000 l0.000 -3.175 l5.350 0.000 l-0.000 3.175 l4.650 0.000 l0.000 -3.175 l5.350 0.000 l-0.000 3.175 l4.150 0.000 l0.000 4.150 l3.175 0.000 l0.000 5.350 l-3.175 -0.000 l0.000 4.650 l3.175 0.000 l0.000 5.350 l-3.175 -0.000 l0.000 4.650 l3.175 0.000 l0.000 5.350 l-3.175 -0.000 l0.000 4.150 l-4.150 0.000 l0.000 3.175 l-5.350 0.000 l-0.000 -3.175 l-4.650 0.000 l0.000 3.175 l-5.350 0.000 l-0.000 -3.175 l-4.650 0.000 l0.000 3.175 l-5.350 0.000 l-0.000 -3.175 l-4.650 0.000 l0.000 3.175 l-5.350 0.000 l-0.000 -3.175 l-4.150 0.000 l0.000 -4.150 l-3.175 0.000 l0.000 -5.350 l3.175 -0.000 l0.000 -4.650 l-3.175 0.000 l0.000 -5.350 l3.175 -0.000 l0.000 -4.650 l-3.175 0.000 l0.000 -5.350 l3.175 -0.000 l0.000 -4.150 Z" stroke="rgb(0,0,0)" stroke-width="0.1"/>
<text dominant-baseline="middle" font-size="20px" style="font-family: sans-serif ; font-weight: bold; font-style: normal; fill: rgb(0,0,0)" text-anchor="middle" transform="matrix( 1.000 0.000 0.000 1.000 35.0 28.4125 )">Musa B</text>
</g>
<g id="p-1" style="fill:none;stroke-linecap:round;stroke-linejoin:round;">
  <path d = "M78.175 10.000 l4.150 0.000 l0.000 -3.175 l5.350 0.000 l-0.000 3.175 l4.650 0.000 l0.000 -3.175 l5.350 0.000 l-0.000 3.175 l4.650 0.000 l0.000 -3.175 l5.350 0.000 l-0.000 3.175 l4.650 0.000 l0.000 -3.175 l5.350 0.000 l-0.000 3.175 l4.150 0.000 l0.000 4.150 l3.175 0.000 l0.000 5.350 l-3.175 -0.000 l0.000 4.650 l3.175 0.000 l0.000 5.350 l-3.175 -0.000 l0.000 4.650 l3.175 0.000 l0.000 5.350 l-3.175 -0.000 l0.000 4.150 l-4.150 0.000 l0.000 3.175 l-5.350 0.000 l-0.000 -3.175 l-4.650 0.000 l0.000 3.175 l-5.350 0.000 l-0.000 -3.175 l-4.650 0.000 l0.000 3.175 l-5.350 0.000 l-0.000 -3.175 l-4.650 0.000 l0.000 3.175 l-5.350 0.000 l-0.000 -3.175 l-4.150 0.000 l0.000 -4.150 l-3.175 0.000 l0.000 -5.350 l3.175 -0.000 l0.000 -4.650 l-3.175 0.000 l0.000 -5.350 l3.175 -0.000 l0.000 -4.650 l-3.175 0.000 l0.000 -5.350 l3.175 -0.000 l0.000 -4.150 Z" stroke="rgb(0,0,0)" stroke-width="0.1"/>
<text dominant-baseline="middle" font-size="20px" style="font-family: sans-serif ; font-weight: bold; font-style: normal; fill: rgb(0,0,0)" text-anchor="middle" transform="matrix( 1.000 0.000 0.000 1.000 100.0 28.4125 )">Musa B</text>
</g>
<g id="p-2" style="fill:none;stroke-linecap:round;stroke-linejoin:round;">
  <path d = "M5.000 55.000 l7.325 0.000 l0.000 -3.175 l5.350 0.000 l-0.000 3.175 l4.650 0.000 l0.000 -3.175 l5.350 0.000 l-0.000 3.175 l4.650 0.000 l0.000 -3.175 l5.350 0.000 l-0.000 3.175 l4.650 0.000 l0.000 -3.175 l5.350 0.000 l-0.000 3.175 l4.650 0.000 l0.000 -3.175 l5.350 0.000 l-0.000 3.175 l7.325 0.000 l0.000 4.500 l-3.175 -0.000 l0.000 4.650 l3.175 0.000 l0.000 5.350 l-3.175 -0.000 l0.000 4.650 l3.175 0.000 l0.000 5.350 l-3.175 -0.000 l0.000 4.650 l3.175 0.000 l0.000 4.500 l-7.325 0.000 l0.000 3.175 l-5.350 0.000 l-0.000 -3.175 l-4.650 0.000 l0.000 3.175 l-5.350 0.000 l-0.000 -3.175 l-4.650 0.000 l0.000 3.175 l-5.350 0.000 l-0.000 -3.175 l-4.650 0.000 l0.000 3.175 l-5.350 0.000 l-0.000 -3.175 l-4.650 0.000 l0.000 3.175 l-5.350 0.000 l-0.000 -3.175 l-7.325 0.000 l0.000 -4.500 l3.175 -0.000 l0.000 -4.650 l-3.175 0.000 l0.000 -5.350 l3.175 -0.000 l0.000 -4.650 l-3.175 0.000 l0.000 -5.350 l3.175 -0.000 l0.000 -4.650 l-3.175 0.000 l0.000 -4.500 Z" stroke="rgb(0,0,0)" stroke-width="0.1"/>
<text dominant-baseline="middle" font-size="20px" style="font-family: sans-serif ; font-weight: bold; font-style: normal; fill: rgb(0,0,0)" text-anchor="middle" transform="matrix( 1.000 0.000 0.000 1.000 35.0 73.4125 )">Musa B</text>
</g>
<g id="p-3" style="fill:none;stroke-linecap:round;stroke-linejoin:round;">
  <path d = "M70.000 55.000 l7.325 0.000 l0.000 -3.175 l5.350 0.000 l-0.000 3.175 l4.650 0.000 l0.000 -3.175 l5.350 0.000 l-0.000 3.175 l4.650 0.000 l0.000 -3.175 l5.350 0.000 l-0.000 3.175 l4.650 0.000 l0.000 -3.175 l5.350 0.000 l-0.000 3.175 l4.650 0.000 l0.000 -3.175 l5.350 0.000 l-0.000 3.175 l7.325 0.000 l0.000 4.500 l-3.175 -0.000 l0.000 4.650 l3.175 0.000 l0.000 5.350 l-3.175 -0.000 l0.000 4.650 l3.175 0.000 l0.000 5.350 l-3.175 -0.000 l0.000 4.650 l3.175 0.000 l0.000 4.500 l-7.325 0.000 l0.000 3.175 l-5.350 0.000 l-0.000 -3.175 l-4.650 0.000 l0.000 3.175 l-5.350 0.000 l-0.000 -3.175 l-4.650 0.000 l0.000 3.175 l-5.350 0.000 l-0.000 -3.175 l-4.650 0.000 l0.000 3.175 l-5.350 0.000 l-0.000 -3.175 l-4.650 0.000 l0.000 3.175 l-5.350 0.000 l-0.000 -3.175 l-7.325 0.000 l0.000 -4.500 l3.175 -0.000 l0.000 -4.650 l-3.175 0.000 l0.000 -5.350 l3.175 -0.000 l0.000 -4.650 l-3.175 0.000 l0.000 -5.350 l3.175 -0.000 l0.000 -4.650 l-3.175 0.000 l0.000 -4.500 Z" stroke="rgb(0,0,0)" stroke-width="0.1"/>
<text dominant-baseline="middle" font-size="20px" style="font-family: sans-serif ; font-weight: bold; font-style: normal; fill: rgb(0,0,0)" text-anchor="middle" transform="matrix( 1.000 0.000 0.000 1.000 100.0 73.4125 )">Musa B</text>
</g>
<g id="p-4" style="fill:none;stroke-linecap:round;stroke-linejoin:round;">
  <path d = "M5.000 100.000 l7.675 0.000 l-0.000 3.175 l4.650 0.000 l0.000 -3.175 l5.350 0.000 l-0.000 3.175 l4.650 0.000 l0.000 -3.175 l5.350 0.000 l-0.000 3.175 l4.650 0.000 l0.000 -3.175 l5.350 0.000 l-0.000 3.175 l4.650 0.000 l0.000 -3.175 l5.350 0.000 l-0.000 3.175 l4.650 0.000 l0.000 -3.175 l7.675 0.000 l0.000 7.675 l-3.175 -0.000 l0.000 4.650 l3.175 0.000 l0.000 5.350 l-3.175 -0.000 l0.000 4.650 l3.175 0.000 l0.000 5.350 l-3.175 -0.000 l0.000 4.650 l3.175 0.000 l0.000 5.350 l-3.175 -0.000 l0.000 4.650 l3.175 0.000 l0.000 7.675 l-7.675 0.000 l-0.000 -3.175 l-4.650 0.000 l0.000 3.175 l-5.350 0.000 l-0.000 -3.175 l-4.650 0.000 l0.000 3.175 l-5.350 0.000 l-0.000 -3.175 l-4.650 0.000 l0.000 3.175 l-5.350 0.000 l-0.000 -3.175 l-4.650 0.000 l0.000 3.175 l-5.350 0.000 l-0.000 -3.175 l-4.650 0.000 l0.000 3.175 l-7.675 0.000 l0.000 -7.675 l3.175 -0.000 l0.000 -4.650 l-3.175 0.000 l0.000 -5.350 l3.175 -0.000 l0.000 -4.650 l-3.175 0.000 l0.000 -5.350 l3.175 -0.000 l0.000 -4.650 l-3.175 0.000 l0.000 -5.350 l3.175 -0.000 l0.000 -4.650 l-3.175 0.000 l0.000 -7.675 Z" stroke="rgb(0,0,0)" stroke-width="0.1"/>
</g>
<g id="p-5" style="fill:none;stroke-linecap:round;stroke-linejoin:round;">
  <path d = "M70.000 100.000 l66.350 0.000 l0.000 56.350 l-66.350 0.000 l0.000 -56.350 Z" stroke="rgb(0,0,0)" stroke-width="0.1"/>
<path d="M80.675 103.175 l5.000 0.000 l0.000 3.175 l-5.000 -0.000 l-0.000 -3.175 Z" stroke="rgb(0,0,0)" stroke-width="0.1"/>
<path d="M90.675 103.175 l5.000 0.000 l0.000 3.175 l-5.000 -0.000 l-0.000 -3.175 Z" stroke="rgb(0,0,0)" stroke-width="0.1"/>
<path d="M100.675 103.175 l5.000 0.000 l0.000 3.175 l-5.000 -0.000 l-0.000 -3.175 Z" stroke="rgb(0,0,0)" stroke-width="0.1"/>
<path d="M110.675 103.175 l5.000 0.000 l0.000 3.175 l-5.000 -0.000 l-0.000 -3.175 Z" stroke="rgb(0,0,0)" stroke-width="0.1"/>
<path d="M120.675 103.175 l5.000 0.000 l0.000 3.175 l-5.000 -0.000 l-0.000 -3.175 Z" stroke="rgb(0,0,0)" stroke-width="0.1"/>
<path d="M133.175 110.675 l0.000 5.000 l-3.175 0.000 l-0.000 -5.000 l3.175 -0.000 Z" stroke="rgb(0,0,0)" stroke-width="0.1"/>
<path d="M133.175 120.675 l0.000 5.000 l-3.175 0.000 l-0.000 -5.000 l3.175 -0.000 Z" stroke="rgb(0,0,0)" stroke-width="0.1"/>
<path d="M133.175 130.675 l0.000 5.000 l-3.175 0.000 l-0.000 -5.000 l3.175 -0.000 Z" stroke="rgb(0,0,0)" stroke-width="0.1"/>
<path d="M133.175 140.675 l0.000 5.000 l-3.175 0.000 l-0.000 -5.000 l3.175 -0.000 Z" stroke="rgb(0,0,0)" stroke-width="0.1"/>
<path d="M125.675 153.175 l-5.000 0.000 l0.000 -3.175 l5.000 -0.000 l-0.000 3.175 Z" stroke="rgb(0,0,0)" stroke-width="0.1"/>
<path d="M115.675 153.175 l-5.000 0.000 l0.000 -3.175 l5.000 -0.000 l-0.000 3.175 Z" stroke="rgb(0,0,0)" stroke-width="0.1"/>
<path d="M105.675 153.175 l-5.000 0.000 l0.000 -3.175 l5.000 -0.000 l-0.000 3.175 Z" stroke="rgb(0,0,0)" stroke-width="0.1"/>
<path d="M95.675 153.175 l-5.000 0.000 l0.000 -3.175 l5.000 -0.000 l-0.000 3.175 Z" stroke="rgb(0,0,0)" stroke-width="0.1"/>
<path d="M85.675 153.175 l-5.000 0.000 l0.000 -3.175 l5.000 -0.000 l-0.000 3.175 Z" stroke="rgb(0,0,0)" stroke-width="0.1"/>
<path d="M73.175 145.675 l0.000 -5.000 l3.175 0.000 l-0.000 5.000 l-3.175 -0.000 Z" stroke="rgb(0,0,0)" stroke-width="0.1"/>
<path d="M73.175 135.675 l0.000 -5.000 l3.175 0.000 l-0.000 5.000 l-3.175 -0.000 Z" stroke="rgb(0,0,0)" stroke-width="0.1"/>
<path d="M73.175 125.675 l0.000 -5.000 l3.175 0.000 l-0.000 5.000 l-3.175 -0.000 Z" stroke="rgb(0,0,0)" stroke-width="0.1"/>
<path d="M73.175 115.675 l0.000 -5.000 l3.175 0.000 l-0.000 5.000 l-3.175 -0.000 Z" stroke="rgb(0,0,0)" stroke-width="0.1"/>
</g>
</svg>