<?xml version='1.0' encoding='utf-8'?>
<svg height="700.0mm" viewBox="0.0 0.0 250.0 700.0" width="250.0mm" 
xmlns="http://www.w3.org/2000/svg" xmlns:cc="http://creativecommons.org/ns#" xmlns:dc="http://purl.org/dc/elements/1.1/"
xmlns:inkscape="http://www.inkscape.org/namespaces/inkscape" xmlns:rdf="http://www.w3.org/1999/02/22-rdf-syntax-ns#"
xmlns:svg="http://www.w3.org/2000/svg" xmlns:xlink="http://www.w3.org/1999/xlink">

<g id="p-0" style="fill:none;stroke-linecap:round;stroke-linejoin:round;">
  <path d = "M10.000 10.000 l50.000 0.000 l0.000 3.815 l-3.175 -0.000 l0.000 5.660 l3.175 0.000 l0.000 6.340 l-3.175 -0.000 l0.000 5.660 l3.175 0.000 l0.000 6.340 l-3.175 -0.000 l0.000 5.660 l3.175 0.000 l0.000 6.990 l-9.835 0.000 l0.000 3.175 l-6.340 0.000 l-0.000 -3.175 l-5.660 0.000 l0.000 3.175 l-6.340 0.000 l-0.000 -3.175 l-5.660 0.000 l0.000 3.175 l-6.340 0.000 l-0.000 -3.175 l-9.835 0.000 l0.000 -6.990 l3.175 -0.000 l0.000 -5.660 l-3.175 0.000 l0.000 -6.340 l3.175 -0.000 l0.000 -5.660 l-3.175 0.000 l0.000 -6.340 l3.175 -0.000 l0.000 -5.660 l-3.175 0.000 l0.000 -3.815 Z" stroke="rgb(0,0,0)" stroke-width="0.1"/>
<text dominant-baseline="middle" font-size="20px" style="font-family: sans-serif ; font-weight: bold; font-style: normal; fill: rgb(0,0,0)" text-anchor="middle" transform="matrix( 1.000 0.000 0.000 1.000 31.825 33.4125 )"></text>
</g>
<g id="p-1" style="fill:none;stroke-linecap:round;stroke-linejoin:round;">
  <path d = "M70.000 10.000 l10.165 0.000 l-0.000 3.175 l5.660 0.000 l0.000 -3.175 l6.340 0.000 l-0.000 3.175 l5.660 0.000 l0.000 -3.175 l6.340 0.000 l-0.000 3.175 l5.660 0.000 l0.000 -3.175 l10.165 0.000 l0.000 10.165 l-3.175 -0.000 l0.000 5.660 l3.175 0.000 l0.000 6.340 l-3.175 -0.000 l0.000 5.660 l3.175 0.000 l0.000 6.340 l-3.175 -0.000 l0.000 5.660 l3.175 0.000 l0.000 6.990 l-9.835 0.000 l0.000 3.175 l-6.340 0.000 l-0.000 -3.175 l-5.660 0.000 l0.000 3.175 l-6.340 0.000 l-0.000 -3.175 l-5.660 0.000 l0.000 3.175 l-6.340 0.000 l-0.000 -3.175 l-9.835 0.000 l0.000 -6.990 l3.175 -0.000 l0.000 -5.660 l-3.175 0.000 l0.000 -6.340 l3.175 -0.000 l0.000 -5.660 l-3.175 0.000 l0.000 -6.340 l3.175 -0.000 l0.000 -5.660 l-3.175 0.000 l0.000 -10.165 Z" stroke="rgb(0,0,0)" stroke-width="0.1"/>
<text dominant-baseline="middle" font-size="20px" style="font-family: sans-serif ; font-weight: bold; font-style: normal; fill: rgb(0,0,0)" text-anchor="middle" transform="matrix( 1.000 0.000 0.000 1.000 91.825 33.4125 )"></text>
</g>
<g id="p-2" style="fill:none;stroke-linecap:round;stroke-linejoin:round;">
  <path d = "M13.175 70.000 l6.990 0.000 l-0.000 3.175 l5.660 0.000 l0.000 -3.175 l6.340 0.000 l-0.000 3.175 l5.660 0.000 l0.000 -3.175 l6.340 0.000 l-0.000 3.175 l5.660 0.000 l0.000 -3.175 l6.990 0.000 l0.000 9.835 l3.175 0.000 l0.000 6.340 l-3.175 -0.000 l0.000 5.660 l3.175 0.000 l0.000 6.340 l-3.175 -0.000 l0.000 5.660 l3.175 0.000 l0.000 6.340 l-3.175 -0.000 l0.000 6.660 l-6.660 0.000 l0.000 3.175 l-6.340 0.000 l-0.000 -3.175 l-5.660 0.000 l0.000 3.175 l-6.340 0.000 l-0.000 -3.175 l-5.660 0.000 l0.000 3.175 l-6.340 0.000 l-0.000 -3.175 l-6.660 0.000 l0.000 -6.660 l-3.175 0.000 l0.000 -6.340 l3.175 -0.000 l0.000 -5.660 l-3.175 0.000 l0.000 -6.340 l3.175 -0.000 l0.000 -5.660 l-3.175 0.000 l0.000 -6.340 l3.175 -0.000 l0.000 -9.835 Z" stroke="rgb(0,0,0)" stroke-width="0.1"/>
<path d="M20.175 76.350 l5.650 0.000 l0.000 3.175 l-5.650 -0.000 l-0.000 -3.175 Z" stroke="rgb(0,0,0)" stroke-width="0.1"/>
<path d="M32.175 76.350 l5.650 0.000 l0.000 3.175 l-5.650 -0.000 l-0.000 -3.175 Z" stroke="rgb(0,0,0)" stroke-width="0.1"/>
<path d="M44.175 76.350 l5.650 0.000 l0.000 3.175 l-5.650 -0.000 l-0.000 -3.175 Z" stroke="rgb(0,0,0)" stroke-width="0.1"/>
<text dominant-baseline="middle" font-size="20px" style="font-family: sans-serif ; font-weight: bold; font-style: normal; fill: rgb(0,0,0)" text-anchor="middle" transform="matrix( 1.000 0.000 0.000 1.000 38.175 93.4125 )"></text>
</g>
<g id="p-3" style="fill:none;stroke-linecap:round;stroke-linejoin:round;">
  <path d = "M73.175 70.000 l6.990 0.000 l-0.000 3.175 l5.660 0.000 l0.000 -3.175 l6.340 0.000 l-0.000 3.175 l5.660 0.000 l0.000 -3.175 l6.340 0.000 l-0.000 3.175 l5.660 0.000 l0.000 -3.175 l6.990 0.000 l0.000 9.835 l3.175 0.000 l0.000 6.340 l-3.175 -0.000 l0.000 5.660 l3.175 0.000 l0.000 6.340 l-3.175 -0.000 l0.000 5.660 l3.175 0.000 l0.000 6.340 l-3.175 -0.000 l0.000 6.660 l-6.660 0.000 l0.000 3.175 l-6.340 0.000 l-0.000 -3.175 l-5.660 0.000 l0.000 3.175 l-6.340 0.000 l-0.000 -3.175 l-5.660 0.000 l0.000 3.175 l-6.340 0.000 l-0.000 -3.175 l-6.660 0.000 l0.000 -6.660 l-3.175 0.000 l0.000 -6.340 l3.175 -0.000 l0.000 -5.660 l-3.175 0.000 l0.000 -6.340 l3.175 -0.000 l0.000 -5.660 l-3.175 0.000 l0.000 -6.340 l3.175 -0.000 l0.000 -9.835 Z" stroke="rgb(0,0,0)" stroke-width="0.1"/>
<path d="M80.175 76.350 l5.650 0.000 l0.000 3.175 l-5.650 -0.000 l-0.000 -3.175 Z" stroke="rgb(0,0,0)" stroke-width="0.1"/>
<path d="M92.175 76.350 l5.650 0.000 l0.000 3.175 l-5.650 -0.000 l-0.000 -3.175 Z" stroke="rgb(0,0,0)" stroke-width="0.1"/>
<path d="M104.175 76.350 l5.650 0.000 l0.000 3.175 l-5.650 -0.000 l-0.000 -3.175 Z" stroke="rgb(0,0,0)" stroke-width="0.1"/>
<text dominant-baseline="middle" font-size="20px" style="font-family: sans-serif ; font-weight: bold; font-style: normal; fill: rgb(0,0,0)" text-anchor="middle" transform="matrix( 1.000 0.000 0.000 1.000 98.175 93.4125 )"></text>
</g>
<g id="p-4" style="fill:none;stroke-linecap:round;stroke-linejoin:round;">
  <path d = "M13.175 131.588 l43.650 0.000 l0.000 46.825 l-43.650 0.000 l0.000 -46.825 Z" stroke="rgb(0,0,0)" stroke-width="0.1"/>
</g>
<g id="p-5" style="fill:none;stroke-linecap:round;stroke-linejoin:round;">
  <path d = "M70.000 130.000 l10.165 0.000 l-0.000 3.175 l5.660 0.000 l0.000 -3.175 l6.340 0.000 l-0.000 3.175 l5.660 0.000 l0.000 -3.175 l6.340 0.000 l-0.000 3.175 l5.660 0.000 l0.000 -3.175 l10.165 0.000 l0.000 10.165 l-3.175 -0.000 l0.000 5.660 l3.175 0.000 l0.000 6.340 l-3.175 -0.000 l0.000 5.660 l3.175 0.000 l0.000 6.340 l-3.175 -0.000 l0.000 5.660 l3.175 0.000 l0.000 10.165 l-10.165 0.000 l-0.000 -3.175 l-5.660 0.000 l0.000 3.175 l-6.340 0.000 l-0.000 -3.175 l-5.660 0.000 l0.000 3.175 l-6.340 0.000 l-0.000 -3.175 l-5.660 0.000 l0.000 3.175 l-10.165 0.000 l0.000 -10.165 l3.175 -0.000 l0.000 -5.660 l-3.175 0.000 l0.000 -6.340 l3.175 -0.000 l0.000 -5.660 l-3.175 0.000 l0.000 -6.340 l3.175 -0.000 l0.000 -5.660 l-3.175 0.000 l0.000 -10.165 Z" stroke="rgb(0,0,0)" stroke-width="0.1"/>
</g>
<g id="p-6" style="fill:none;stroke-linecap:round;stroke-linejoin:round;">
  <path d = "M10.000 190.000 l43.650 0.000 l0.000 4.825 l-6.660 0.000 l0.000 3.175 l-6.340 0.000 l-0.000 -3.175 l-5.660 0.000 l0.000 3.175 l-6.340 0.000 l-0.000 -3.175 l-5.660 0.000 l0.000 3.175 l-6.340 0.000 l-0.000 -3.175 l-6.660 0.000 l0.000 -4.825 Z" stroke="rgb(0,0,0)" stroke-width="0.1"/>
</g>
<g id="p-7" style="fill:none;stroke-linecap:round;stroke-linejoin:round;">
  <path d = "M70.000 190.000 l43.650 0.000 l0.000 4.825 l-6.660 0.000 l0.000 3.175 l-6.340 0.000 l-0.000 -3.175 l-5.660 0.000 l0.000 3.175 l-6.340 0.000 l-0.000 -3.175 l-5.660 0.000 l0.000 3.175 l-6.340 0.000 l-0.000 -3.175 l-6.660 0.000 l0.000 -4.825 Z" stroke="rgb(0,0,0)" stroke-width="0.1"/>
</g>
<g id="p-8" style="fill:none;stroke-linecap:round;stroke-linejoin:round;">
  <path d = "M10.000 208.000 l46.825 0.000 l0.000 4.825 l-6.660 0.000 l0.000 3.175 l-6.340 0.000 l-0.000 -3.175 l-5.660 0.000 l0.000 3.175 l-6.340 0.000 l-0.000 -3.175 l-5.660 0.000 l0.000 3.175 l-6.340 0.000 l-0.000 -3.175 l-9.835 0.000 l0.000 -4.825 Z" stroke="rgb(0,0,0)" stroke-width="0.1"/>
</g>
<g id="p-9" style="fill:none;stroke-linecap:round;stroke-linejoin:round;">
  <path d = "M70.000 208.000 l46.825 0.000 l0.000 4.825 l-9.835 0.000 l0.000 3.175 l-6.340 0.000 l-0.000 -3.175 l-5.660 0.000 l0.000 3.175 l-6.340 0.000 l-0.000 -3.175 l-5.660 0.000 l0.000 3.175 l-6.340 0.000 l-0.000 -3.175 l-6.660 0.000 l0.000 -4.825 Z" stroke="rgb(0,0,0)" stroke-width="0.1"/>
</g>
<g id="p-10" style="fill:none;stroke-linecap:round;stroke-linejoin:round;">
  <path d = "M10.000 226.000 l34.000 0.000 l0.000 4.825 l-1.835 0.000 l0.000 3.175 l-6.340 0.000 l-0.000 -3.175 l-5.660 0.000 l0.000 3.175 l-6.340 0.000 l-0.000 -3.175 l-5.660 0.000 l0.000 3.175 l-6.340 0.000 l-0.000 -3.175 l-1.835 0.000 l0.000 -4.825 Z" stroke="rgb(0,0,0)" stroke-width="0.1"/>
</g>
</svg>