<?xml version='1.0' encoding='utf-8'?>
<svg height="564.40mm" viewBox="0.0 0.0 221.90 564.40" width="221.90mm" xmlns="http://www.w3.org/2000/svg" xmlns:cc="http://creativecommons.org/ns#" xmlns:dc="http://purl.org/dc/elements/1.1/" xmlns:inkscape="http://www.inkscape.org/namespaces/inkscape" xmlns:rdf="http://www.w3.org/1999/02/22-rdf-syntax-ns#" xmlns:svg="http://www.w3.org/2000/svg" xmlns:xlink="http://www.w3.org/1999/xlink">

<title>SimpleBox</title>
<metadata>
<rdf:RDF><cc:Work>
<dc:title>Simple Box With Lid And Handle</dc:title>
<dc:date>2025-10-01 16:57:30</dc:date>
</cc:Work></rdf:RDF></metadata>
<g id="p-0" style="fill:none;stroke-linecap:round;stroke-linejoin:round;">
  <path d="M 10.100 554.400 H 110.100 V 544.400 H 10.100 V 554.400 Z" stroke="rgb(0,0,0)" stroke-width="0.20" />
  <text dominant-baseline="hanging" font-size="6px" style="font-family: sans-serif ; font-weight: normal; font-style: normal; fill: rgb(255,0,0)" text-anchor="middle" transform="matrix( 1.000 0.000 0.000 1.000 60.100 546.400 )">100.0mm, burn:0.10mm</text>
</g>
<g id="p-1" style="fill:none;stroke-linecap:round;stroke-linejoin:round;">
  <path d="M 24.100 539.500 H 21.200 C 21.100 539.500 21.200 539.600 21.200 539.500 V 536.700 C 21.200 536.600 21.100 536.700 21.200 536.700 H 27.000 C 27.100 536.700 27.000 536.600 27.000 536.700 V 539.500 C 27.000 539.600 27.100 539.500 27.000 539.500 H 24.100 Z" stroke="rgb(0,0,255)" stroke-width="0.20" />
  <path d="M 36.100 539.500 H 33.200 C 33.100 539.500 33.200 539.600 33.200 539.500 V 536.700 C 33.200 536.600 33.100 536.700 33.200 536.700 H 39.000 C 39.100 536.700 39.000 536.600 39.000 536.700 V 539.500 C 39.000 539.600 39.100 539.500 39.000 539.500 H 36.100 Z" stroke="rgb(0,0,255)" stroke-width="0.20" />
  <path d="M 48.100 539.500 H 45.200 C 45.100 539.500 45.200 539.600 45.200 539.500 V 536.700 C 45.200 536.600 45.100 536.700 45.200 536.700 H 51.000 C 51.100 536.700 51.000 536.600 51.000 536.700 V 539.500 C 51.000 539.600 51.100 539.500 51.000 539.500 H 48.100 Z" stroke="rgb(0,0,255)" stroke-width="0.20" />
  <path d="M 60.100 539.500 H 57.200 C 57.100 539.500 57.200 539.600 57.200 539.500 V 536.700 C 57.200 536.600 57.100 536.700 57.200 536.700 H 63.000 C 63.100 536.700 63.000 536.600 63.000 536.700 V 539.500 C 63.000 539.600 63.100 539.500 63.000 539.500 H 60.100 Z" stroke="rgb(0,0,255)" stroke-width="0.20" />
  <path d="M 72.100 539.500 H 69.200 C 69.100 539.500 69.200 539.600 69.200 539.500 V 536.700 C 69.200 536.600 69.100 536.700 69.200 536.700 H 75.000 C 75.100 536.700 75.000 536.600 75.000 536.700 V 539.500 C 75.000 539.600 75.100 539.500 75.000 539.500 H 72.100 Z" stroke="rgb(0,0,255)" stroke-width="0.20" />
  <path d="M 84.100 539.500 H 81.200 C 81.100 539.500 81.200 539.600 81.200 539.500 V 536.700 C 81.200 536.600 81.100 536.700 81.200 536.700 H 87.000 C 87.100 536.700 87.000 536.600 87.000 536.700 V 539.500 C 87.000 539.600 87.100 539.500 87.000 539.500 H 84.100 Z" stroke="rgb(0,0,255)" stroke-width="0.20" />
  <path d="M 96.100 539.500 H 93.200 C 93.100 539.500 93.200 539.600 93.200 539.500 V 536.700 C 93.200 536.600 93.100 536.700 93.200 536.700 H 99.000 C 99.100 536.700 99.000 536.600 99.000 536.700 V 539.500 C 99.000 539.600 99.100 539.500 99.000 539.500 H 96.100 Z" stroke="rgb(0,0,255)" stroke-width="0.20" />
  <text dominant-baseline="hanging" font-size="4px" style="font-family: sans-serif ; font-weight: normal; font-style: normal; fill: rgb(255,0,0)" text-anchor="middle" transform="matrix( 1.000 0.000 0.000 1.000 60.100 490.700 )">front</text><path d="M 13.100 542.700 H 107.100 H 110.100 C 110.155 542.700 110.200 542.655 110.200 542.600 V 533.100 C 110.200 533.045 110.155 533.000 110.100 533.000 H 107.200 C 107.100 533.000 107.200 533.100 107.200 533.000 V 527.200 C 107.200 527.100 107.100 527.200 107.200 527.200 H 110.100 C 110.155 527.200 110.200 527.155 110.200 527.100 V 521.100 C 110.200 521.045 110.155 521.000 110.100 521.000 H 107.200 C 107.100 521.000 107.200 521.100 107.200 521.000 V 515.200 C 107.200 515.100 107.100 515.200 107.200 515.200 H 110.100 C 110.155 515.200 110.200 515.155 110.200 515.100 V 509.100 C 110.200 509.045 110.155 509.000 110.100 509.000 H 107.200 C 107.100 509.000 107.200 509.100 107.200 509.000 V 503.200 C 107.200 503.100 107.100 503.200 107.200 503.200 H 110.100 C 110.155 503.200 110.200 503.155 110.200 503.100 V 497.100 C 110.200 497.045 110.155 497.000 110.100 497.000 H 107.200 C 107.100 497.000 107.200 497.100 107.200 497.000 V 491.200 C 107.200 491.100 107.100 491.200 107.200 491.200 H 110.100 C 110.155 491.200 110.200 491.155 110.200 491.100 V 485.100 C 110.200 485.045 110.155 485.000 110.100 485.000 H 107.200 C 107.100 485.000 107.200 485.100 107.200 485.000 V 479.200 C 107.200 479.100 107.100 479.200 107.200 479.200 H 110.100 C 110.155 479.200 110.200 479.155 110.200 479.100 V 473.100 C 110.200 473.045 110.155 473.000 110.100 473.000 H 107.200 C 107.100 473.000 107.200 473.100 107.200 473.000 V 467.200 C 107.200 467.100 107.100 467.200 107.200 467.200 H 110.100 C 110.155 467.200 110.200 467.155 110.200 467.100 V 461.100 C 110.200 461.045 110.155 461.000 110.100 461.000 H 107.200 C 107.100 461.000 107.200 461.100 107.200 461.000 V 455.200 C 107.200 455.100 107.100 455.200 107.200 455.200 H 110.100 C 110.155 455.200 110.200 455.155 110.200 455.100 V 445.600 V 442.600 C 110.200 442.545 110.155 442.500 110.100 442.500 H 107.100 H 13.100 H 10.100 C 10.045 442.500 10.000 442.545 10.000 442.600 V 445.600 V 455.100 C 10.000 455.155 10.045 455.200 10.100 455.200 H 13.000 C 13.100 455.200 13.000 455.100 13.000 455.200 V 461.000 C 13.000 461.100 13.100 461.000 13.000 461.000 H 10.100 C 10.045 461.000 10.000 461.045 10.000 461.100 V 467.100 C 10.000 467.155 10.045 467.200 10.100 467.200 H 13.000 C 13.100 467.200 13.000 467.100 13.000 467.200 V 473.000 C 13.000 473.100 13.100 473.000 13.000 473.000 H 10.100 C 10.045 473.000 10.000 473.045 10.000 473.100 V 479.100 C 10.000 479.155 10.045 479.200 10.100 479.200 H 13.000 C 13.100 479.200 13.000 479.100 13.000 479.200 V 485.000 C 13.000 485.100 13.100 485.000 13.000 485.000 H 10.100 C 10.045 485.000 10.000 485.045 10.000 485.100 V 491.100 C 10.000 491.155 10.045 491.200 10.100 491.200 H 13.000 C 13.100 491.200 13.000 491.100 13.000 491.200 V 497.000 C 13.000 497.100 13.100 497.000 13.000 497.000 H 10.100 C 10.045 497.000 10.000 497.045 10.000 497.100 V 503.100 C 10.000 503.155 10.045 503.200 10.100 503.200 H 13.000 C 13.100 503.200 13.000 503.100 13.000 503.200 V 509.000 C 13.000 509.100 13.100 509.000 13.000 509.000 H 10.100 C 10.045 509.000 10.000 509.045 10.000 509.100 V 515.100 C 10.000 515.155 10.045 515.200 10.100 515.200 H 13.000 C 13.100 515.200 13.000 515.100 13.000 515.200 V 521.000 C 13.000 521.100 13.100 521.000 13.000 521.000 H 10.100 C 10.045 521.000 10.000 521.045 10.000 521.100 V 527.100 C 10.000 527.155 10.045 527.200 10.100 527.200 H 13.000 C 13.100 527.200 13.000 527.100 13.000 527.200 V 533.000 C 13.000 533.100 13.100 533.000 13.000 533.000 H 10.100 C 10.045 533.000 10.000 533.045 10.000 533.100 V 542.600 C 10.000 542.655 10.045 542.700 10.100 542.700 H 13.100" stroke="rgb(0,0,0)" stroke-width="0.20" />
</g>
<g id="p-2" style="fill:none;stroke-linecap:round;stroke-linejoin:round;">
  <path d="M 24.100 437.800 H 21.200 C 21.100 437.800 21.200 437.900 21.200 437.800 V 435.000 C 21.200 434.900 21.100 435.000 21.200 435.000 H 27.000 C 27.100 435.000 27.000 434.900 27.000 435.000 V 437.800 C 27.000 437.900 27.100 437.800 27.000 437.800 H 24.100 Z" stroke="rgb(0,0,255)" stroke-width="0.20" />
  <path d="M 36.100 437.800 H 33.200 C 33.100 437.800 33.200 437.900 33.200 437.800 V 435.000 C 33.200 434.900 33.100 435.000 33.200 435.000 H 39.000 C 39.100 435.000 39.000 434.900 39.000 435.000 V 437.800 C 39.000 437.900 39.100 437.800 39.000 437.800 H 36.100 Z" stroke="rgb(0,0,255)" stroke-width="0.20" />
  <path d="M 48.100 437.800 H 45.200 C 45.100 437.800 45.200 437.900 45.200 437.800 V 435.000 C 45.200 434.900 45.100 435.000 45.200 435.000 H 51.000 C 51.100 435.000 51.000 434.900 51.000 435.000 V 437.800 C 51.000 437.900 51.100 437.800 51.000 437.800 H 48.100 Z" stroke="rgb(0,0,255)" stroke-width="0.20" />
  <path d="M 60.100 437.800 H 57.200 C 57.100 437.800 57.200 437.900 57.200 437.800 V 435.000 C 57.200 434.900 57.100 435.000 57.200 435.000 H 63.000 C 63.100 435.000 63.000 434.900 63.000 435.000 V 437.800 C 63.000 437.900 63.100 437.800 63.000 437.800 H 60.100 Z" stroke="rgb(0,0,255)" stroke-width="0.20" />
  <path d="M 72.100 437.800 H 69.200 C 69.100 437.800 69.200 437.900 69.200 437.800 V 435.000 C 69.200 434.900 69.100 435.000 69.200 435.000 H 75.000 C 75.100 435.000 75.000 434.900 75.000 435.000 V 437.800 C 75.000 437.900 75.100 437.800 75.000 437.800 H 72.100 Z" stroke="rgb(0,0,255)" stroke-width="0.20" />
  <path d="M 84.100 437.800 H 81.200 C 81.100 437.800 81.200 437.900 81.200 437.800 V 435.000 C 81.200 434.900 81.100 435.000 81.200 435.000 H 87.000 C 87.100 435.000 87.000 434.900 87.000 435.000 V 437.800 C 87.000 437.900 87.100 437.800 87.000 437.800 H 84.100 Z" stroke="rgb(0,0,255)" stroke-width="0.20" />
  <path d="M 96.100 437.800 H 93.200 C 93.100 437.800 93.200 437.900 93.200 437.800 V 435.000 C 93.200 434.900 93.100 435.000 93.200 435.000 H 99.000 C 99.100 435.000 99.000 434.900 99.000 435.000 V 437.800 C 99.000 437.900 99.100 437.800 99.000 437.800 H 96.100 Z" stroke="rgb(0,0,255)" stroke-width="0.20" />
  <text dominant-baseline="hanging" font-size="4px" style="font-family: sans-serif ; font-weight: normal; font-style: normal; fill: rgb(255,0,0)" text-anchor="middle" transform="matrix( 1.000 0.000 0.000 1.000 60.100 389.000 )">back</text><path d="M 13.100 441.000 H 107.100 H 110.100 C 110.155 441.000 110.200 440.955 110.200 440.900 V 431.400 C 110.200 431.345 110.155 431.300 110.100 431.300 H 107.200 C 107.100 431.300 107.200 431.400 107.200 431.300 V 425.500 C 107.200 425.400 107.100 425.500 107.200 425.500 H 110.100 C 110.155 425.500 110.200 425.455 110.200 425.400 V 419.400 C 110.200 419.345 110.155 419.300 110.100 419.300 H 107.200 C 107.100 419.300 107.200 419.400 107.200 419.300 V 413.500 C 107.200 413.400 107.100 413.500 107.200 413.500 H 110.100 C 110.155 413.500 110.200 413.455 110.200 413.400 V 407.400 C 110.200 407.345 110.155 407.300 110.100 407.300 H 107.200 C 107.100 407.300 107.200 407.400 107.200 407.300 V 401.500 C 107.200 401.400 107.100 401.500 107.200 401.500 H 110.100 C 110.155 401.500 110.200 401.455 110.200 401.400 V 395.400 C 110.200 395.345 110.155 395.300 110.100 395.300 H 107.200 C 107.100 395.300 107.200 395.400 107.200 395.300 V 389.500 C 107.200 389.400 107.100 389.500 107.200 389.500 H 110.100 C 110.155 389.500 110.200 389.455 110.200 389.400 V 383.400 C 110.200 383.345 110.155 383.300 110.100 383.300 H 107.200 C 107.100 383.300 107.200 383.400 107.200 383.300 V 377.500 C 107.200 377.400 107.100 377.500 107.200 377.500 H 110.100 C 110.155 377.500 110.200 377.455 110.200 377.400 V 371.400 C 110.200 371.345 110.155 371.300 110.100 371.300 H 107.200 C 107.100 371.300 107.200 371.400 107.200 371.300 V 365.500 C 107.200 365.400 107.100 365.500 107.200 365.500 H 110.100 C 110.155 365.500 110.200 365.455 110.200 365.400 V 359.400 C 110.200 359.345 110.155 359.300 110.100 359.300 H 107.200 C 107.100 359.300 107.200 359.400 107.200 359.300 V 353.500 C 107.200 353.400 107.100 353.500 107.200 353.500 H 110.100 C 110.155 353.500 110.200 353.455 110.200 353.400 V 343.900 V 340.900 C 110.200 340.845 110.155 340.800 110.100 340.800 H 107.100 H 13.100 H 10.100 C 10.045 340.800 10.000 340.845 10.000 340.900 V 343.900 V 353.400 C 10.000 353.455 10.045 353.500 10.100 353.500 H 13.000 C 13.100 353.500 13.000 353.400 13.000 353.500 V 359.300 C 13.000 359.400 13.100 359.300 13.000 359.300 H 10.100 C 10.045 359.300 10.000 359.345 10.000 359.400 V 365.400 C 10.000 365.455 10.045 365.500 10.100 365.500 H 13.000 C 13.100 365.500 13.000 365.400 13.000 365.500 V 371.300 C 13.000 371.400 13.100 371.300 13.000 371.300 H 10.100 C 10.045 371.300 10.000 371.345 10.000 371.400 V 377.400 C 10.000 377.455 10.045 377.500 10.100 377.500 H 13.000 C 13.100 377.500 13.000 377.400 13.000 377.500 V 383.300 C 13.000 383.400 13.100 383.300 13.000 383.300 H 10.100 C 10.045 383.300 10.000 383.345 10.000 383.400 V 389.400 C 10.000 389.455 10.045 389.500 10.100 389.500 H 13.000 C 13.100 389.500 13.000 389.400 13.000 389.500 V 395.300 C 13.000 395.400 13.100 395.300 13.000 395.300 H 10.100 C 10.045 395.300 10.000 395.345 10.000 395.400 V 401.400 C 10.000 401.455 10.045 401.500 10.100 401.500 H 13.000 C 13.100 401.500 13.000 401.400 13.000 401.500 V 407.300 C 13.000 407.400 13.100 407.300 13.000 407.300 H 10.100 C 10.045 407.300 10.000 407.345 10.000 407.400 V 413.400 C 10.000 413.455 10.045 413.500 10.100 413.500 H 13.000 C 13.100 413.500 13.000 413.400 13.000 413.500 V 419.300 C 13.000 419.400 13.100 419.300 13.000 419.300 H 10.100 C 10.045 419.300 10.000 419.345 10.000 419.400 V 425.400 C 10.000 425.455 10.045 425.500 10.100 425.500 H 13.000 C 13.100 425.500 13.000 425.400 13.000 425.500 V 431.300 C 13.000 431.400 13.100 431.300 13.000 431.300 H 10.100 C 10.045 431.300 10.000 431.345 10.000 431.400 V 440.900 C 10.000 440.955 10.045 441.000 10.100 441.000 H 13.100" stroke="rgb(0,0,0)" stroke-width="0.20" />
</g>
<g id="p-3" style="fill:none;stroke-linecap:round;stroke-linejoin:round;">
  <text dominant-baseline="hanging" font-size="4px" style="font-family: sans-serif ; font-weight: normal; font-style: normal; fill: rgb(255,0,0)" text-anchor="middle" transform="matrix( 1.000 0.000 0.000 1.000 60.100 287.300 )">bottom</text><path d="M 13.100 336.300 H 21.000 C 21.100 336.300 21.000 336.200 21.000 336.300 V 339.200 C 21.000 339.255 21.045 339.300 21.100 339.300 H 27.100 C 27.155 339.300 27.200 339.255 27.200 339.200 V 336.300 C 27.200 336.200 27.100 336.300 27.200 336.300 H 33.000 C 33.100 336.300 33.000 336.200 33.000 336.300 V 339.200 C 33.000 339.255 33.045 339.300 33.100 339.300 H 39.100 C 39.155 339.300 39.200 339.255 39.200 339.200 V 336.300 C 39.200 336.200 39.100 336.300 39.200 336.300 H 45.000 C 45.100 336.300 45.000 336.200 45.000 336.300 V 339.200 C 45.000 339.255 45.045 339.300 45.100 339.300 H 51.100 C 51.155 339.300 51.200 339.255 51.200 339.200 V 336.300 C 51.200 336.200 51.100 336.300 51.200 336.300 H 57.000 C 57.100 336.300 57.000 336.200 57.000 336.300 V 339.200 C 57.000 339.255 57.045 339.300 57.100 339.300 H 63.100 C 63.155 339.300 63.200 339.255 63.200 339.200 V 336.300 C 63.200 336.200 63.100 336.300 63.200 336.300 H 69.000 C 69.100 336.300 69.000 336.200 69.000 336.300 V 339.200 C 69.000 339.255 69.045 339.300 69.100 339.300 H 75.100 C 75.155 339.300 75.200 339.255 75.200 339.200 V 336.300 C 75.200 336.200 75.100 336.300 75.200 336.300 H 81.000 C 81.100 336.300 81.000 336.200 81.000 336.300 V 339.200 C 81.000 339.255 81.045 339.300 81.100 339.300 H 87.100 C 87.155 339.300 87.200 339.255 87.200 339.200 V 336.300 C 87.200 336.200 87.100 336.300 87.200 336.300 H 93.000 C 93.100 336.300 93.000 336.200 93.000 336.300 V 339.200 C 93.000 339.255 93.045 339.300 93.100 339.300 H 99.100 C 99.155 339.300 99.200 339.255 99.200 339.200 V 336.300 C 99.200 336.200 99.100 336.300 99.200 336.300 H 107.100 C 107.155 336.300 107.200 336.255 107.200 336.200 V 328.300 C 107.200 328.200 107.100 328.300 107.200 328.300 H 110.100 C 110.155 328.300 110.200 328.255 110.200 328.200 V 322.200 C 110.200 322.145 110.155 322.100 110.100 322.100 H 107.200 C 107.100 322.100 107.200 322.200 107.200 322.100 V 316.300 C 107.200 316.200 107.100 316.300 107.200 316.300 H 110.100 C 110.155 316.300 110.200 316.255 110.200 316.200 V 310.200 C 110.200 310.145 110.155 310.100 110.100 310.100 H 107.200 C 107.100 310.100 107.200 310.200 107.200 310.100 V 304.300 C 107.200 304.200 107.100 304.300 107.200 304.300 H 110.100 C 110.155 304.300 110.200 304.255 110.200 304.200 V 298.200 C 110.200 298.145 110.155 298.100 110.100 298.100 H 107.200 C 107.100 298.100 107.200 298.200 107.200 298.100 V 292.300 C 107.200 292.200 107.100 292.300 107.200 292.300 H 110.100 C 110.155 292.300 110.200 292.255 110.200 292.200 V 286.200 C 110.200 286.145 110.155 286.100 110.100 286.100 H 107.200 C 107.100 286.100 107.200 286.200 107.200 286.100 V 280.300 C 107.200 280.200 107.100 280.300 107.200 280.300 H 110.100 C 110.155 280.300 110.200 280.255 110.200 280.200 V 274.200 C 110.200 274.145 110.155 274.100 110.100 274.100 H 107.200 C 107.100 274.100 107.200 274.200 107.200 274.100 V 268.300 C 107.200 268.200 107.100 268.300 107.200 268.300 H 110.100 C 110.155 268.300 110.200 268.255 110.200 268.200 V 262.200 C 110.200 262.145 110.155 262.100 110.100 262.100 H 107.200 C 107.100 262.100 107.200 262.200 107.200 262.100 V 256.300 C 107.200 256.200 107.100 256.300 107.200 256.300 H 110.100 C 110.155 256.300 110.200 256.255 110.200 256.200 V 250.200 C 110.200 250.145 110.155 250.100 110.100 250.100 H 107.200 C 107.100 250.100 107.200 250.200 107.200 250.100 V 242.200 C 107.200 242.145 107.155 242.100 107.100 242.100 H 99.200 C 99.100 242.100 99.200 242.200 99.200 242.100 V 239.200 C 99.200 239.145 99.155 239.100 99.100 239.100 H 93.100 C 93.045 239.100 93.000 239.145 93.000 239.200 V 242.100 C 93.000 242.200 93.100 242.100 93.000 242.100 H 87.200 C 87.100 242.100 87.200 242.200 87.200 242.100 V 239.200 C 87.200 239.145 87.155 239.100 87.100 239.100 H 81.100 C 81.045 239.100 81.000 239.145 81.000 239.200 V 242.100 C 81.000 242.200 81.100 242.100 81.000 242.100 H 75.200 C 75.100 242.100 75.200 242.200 75.200 242.100 V 239.200 C 75.200 239.145 75.155 239.100 75.100 239.100 H 69.100 C 69.045 239.100 69.000 239.145 69.000 239.200 V 242.100 C 69.000 242.200 69.100 242.100 69.000 242.100 H 63.200 C 63.100 242.100 63.200 242.200 63.200 242.100 V 239.200 C 63.200 239.145 63.155 239.100 63.100 239.100 H 57.100 C 57.045 239.100 57.000 239.145 57.000 239.200 V 242.100 C 57.000 242.200 57.100 242.100 57.000 242.100 H 51.200 C 51.100 242.100 51.200 242.200 51.200 242.100 V 239.200 C 51.200 239.145 51.155 239.100 51.100 239.100 H 45.100 C 45.045 239.100 45.000 239.145 45.000 239.200 V 242.100 C 45.000 242.200 45.100 242.100 45.000 242.100 H 39.200 C 39.100 242.100 39.200 242.200 39.200 242.100 V 239.200 C 39.200 239.145 39.155 239.100 39.100 239.100 H 33.100 C 33.045 239.100 33.000 239.145 33.000 239.200 V 242.100 C 33.000 242.200 33.100 242.100 33.000 242.100 H 27.200 C 27.100 242.100 27.200 242.200 27.200 242.100 V 239.200 C 27.200 239.145 27.155 239.100 27.100 239.100 H 21.100 C 21.045 239.100 21.000 239.145 21.000 239.200 V 242.100 C 21.000 242.200 21.100 242.100 21.000 242.100 H 13.100 C 13.045 242.100 13.000 242.145 13.000 242.200 V 250.100 C 13.000 250.200 13.100 250.100 13.000 250.100 H 10.100 C 10.045 250.100 10.000 250.145 10.000 250.200 V 256.200 C 10.000 256.255 10.045 256.300 10.100 256.300 H 13.000 C 13.100 256.300 13.000 256.200 13.000 256.300 V 262.100 C 13.000 262.200 13.100 262.100 13.000 262.100 H 10.100 C 10.045 262.100 10.000 262.145 10.000 262.200 V 268.200 C 10.000 268.255 10.045 268.300 10.100 268.300 H 13.000 C 13.100 268.300 13.000 268.200 13.000 268.300 V 274.100 C 13.000 274.200 13.100 274.100 13.000 274.100 H 10.100 C 10.045 274.100 10.000 274.145 10.000 274.200 V 280.200 C 10.000 280.255 10.045 280.300 10.100 280.300 H 13.000 C 13.100 280.300 13.000 280.200 13.000 280.300 V 286.100 C 13.000 286.200 13.100 286.100 13.000 286.100 H 10.100 C 10.045 286.100 10.000 286.145 10.000 286.200 V 292.200 C 10.000 292.255 10.045 292.300 10.100 292.300 H 13.000 C 13.100 292.300 13.000 292.200 13.000 292.300 V 298.100 C 13.000 298.200 13.100 298.100 13.000 298.100 H 10.100 C 10.045 298.100 10.000 298.145 10.000 298.200 V 304.200 C 10.000 304.255 10.045 304.300 10.100 304.300 H 13.000 C 13.100 304.300 13.000 304.200 13.000 304.300 V 310.100 C 13.000 310.200 13.100 310.100 13.000 310.100 H 10.100 C 10.045 310.100 10.000 310.145 10.000 310.200 V 316.200 C 10.000 316.255 10.045 316.300 10.100 316.300 H 13.000 C 13.100 316.300 13.000 316.200 13.000 316.300 V 322.100 C 13.000 322.200 13.100 322.100 13.000 322.100 H 10.100 C 10.045 322.100 10.000 322.145 10.000 322.200 V 328.200 C 10.000 328.255 10.045 328.300 10.100 328.300 H 13.000 C 13.100 328.300 13.000 328.200 13.000 328.300 V 336.200 C 13.000 336.255 13.045 336.300 13.100 336.300" stroke="rgb(0,0,0)" stroke-width="0.20" />
</g>
<g id="p-4" style="fill:none;stroke-linecap:round;stroke-linejoin:round;">
  <path d="M 57.100 191.900 H 33.700 C 33.600 191.900 33.700 192.000 33.700 191.900 V 189.100 C 33.700 189.000 33.600 189.100 33.700 189.100 H 80.500 C 80.600 189.100 80.500 189.000 80.500 189.100 V 191.900 C 80.500 192.000 80.600 191.900 80.500 191.900 H 57.100 Z" stroke="rgb(0,0,255)" stroke-width="0.20" />
  <text dominant-baseline="hanging" font-size="4px" style="font-family: sans-serif ; font-weight: normal; font-style: normal; fill: rgb(255,0,0)" text-anchor="middle" transform="matrix( 1.000 0.000 0.000 1.000 57.100 188.600 )">lid bottom</text><path d="M 10.100 237.600 H 104.100 C 104.155 237.600 104.200 237.555 104.200 237.500 V 143.500 C 104.200 143.445 104.155 143.400 104.100 143.400 H 10.100 C 10.045 143.400 10.000 143.445 10.000 143.500 V 237.500 C 10.000 237.555 10.045 237.600 10.100 237.600" stroke="rgb(0,0,0)" stroke-width="0.20" />
</g>
<g id="p-5" style="fill:none;stroke-linecap:round;stroke-linejoin:round;">
  <path d="M 60.100 93.200 H 36.700 C 36.600 93.200 36.700 93.300 36.700 93.200 V 90.400 C 36.700 90.300 36.600 90.400 36.700 90.400 H 83.500 C 83.600 90.400 83.500 90.300 83.500 90.400 V 93.200 C 83.500 93.300 83.600 93.200 83.500 93.200 H 60.100 Z" stroke="rgb(0,0,255)" stroke-width="0.20" />
  <text dominant-baseline="hanging" font-size="4px" style="font-family: sans-serif ; font-weight: normal; font-style: normal; fill: rgb(255,0,0)" text-anchor="middle" transform="matrix( 1.000 0.000 0.000 1.000 60.100 89.900 )">lid top</text><path d="M 13.100 141.900 H 107.100 H 110.100 C 110.155 141.900 110.200 141.855 110.200 141.800 V 138.800 V 44.800 V 41.800 C 110.200 41.745 110.155 41.700 110.100 41.700 H 107.100 H 13.100 H 10.100 C 10.045 41.700 10.000 41.745 10.000 41.800 V 44.800 V 138.800 V 141.800 C 10.000 141.855 10.045 141.900 10.100 141.900 H 13.100" stroke="rgb(0,0,0)" stroke-width="0.20" />
</g>
<g id="p-6" style="fill:none;stroke-linecap:round;stroke-linejoin:round;">
  <path d="M 11.600 40.200 H 61.600 C 61.881 40.200 62.157 40.126 62.400 39.986 C 62.643 39.845 62.845 39.643 62.986 39.400 C 63.126 39.157 63.200 38.881 63.200 38.600 V 37.100 C 63.200 37.045 63.155 37.000 63.100 37.000 H 60.200 C 60.100 37.000 60.200 37.100 60.200 37.000 V 22.100 C 60.200 19.976 59.641 17.889 58.579 16.050 C 57.517 14.211 55.989 12.683 54.150 11.621 C 52.311 10.559 50.224 10.000 48.100 10.000 H 25.100 C 22.976 10.000 20.889 10.559 19.050 11.621 C 17.211 12.683 15.683 14.211 14.621 16.050 C 13.559 17.889 13.000 19.976 13.000 22.100 V 37.000 C 13.000 37.100 13.100 37.000 13.000 37.000 H 10.100 C 10.045 37.000 10.000 37.045 10.000 37.100 V 38.600 C 10.000 38.881 10.074 39.157 10.214 39.400 C 10.355 39.643 10.557 39.845 10.800 39.986 C 11.043 40.126 11.319 40.200 11.600 40.200 Z" stroke="rgb(0,0,0)" stroke-width="0.20" />
</g>
<g id="p-7" style="fill:none;stroke-linecap:round;stroke-linejoin:round;">
  <path d="M 125.800 539.500 H 122.900 C 122.800 539.500 122.900 539.600 122.900 539.500 V 536.700 C 122.900 536.600 122.800 536.700 122.900 536.700 H 128.700 C 128.800 536.700 128.700 536.600 128.700 536.700 V 539.500 C 128.700 539.600 128.800 539.500 128.700 539.500 H 125.800 Z" stroke="rgb(0,0,255)" stroke-width="0.20" />
  <path d="M 137.800 539.500 H 134.900 C 134.800 539.500 134.900 539.600 134.900 539.500 V 536.700 C 134.900 536.600 134.800 536.700 134.900 536.700 H 140.700 C 140.800 536.700 140.700 536.600 140.700 536.700 V 539.500 C 140.700 539.600 140.800 539.500 140.700 539.500 H 137.800 Z" stroke="rgb(0,0,255)" stroke-width="0.20" />
  <path d="M 149.800 539.500 H 146.900 C 146.800 539.500 146.900 539.600 146.900 539.500 V 536.700 C 146.900 536.600 146.800 536.700 146.900 536.700 H 152.700 C 152.800 536.700 152.700 536.600 152.700 536.700 V 539.500 C 152.700 539.600 152.800 539.500 152.700 539.500 H 149.800 Z" stroke="rgb(0,0,255)" stroke-width="0.20" />
  <path d="M 161.800 539.500 H 158.900 C 158.800 539.500 158.900 539.600 158.900 539.500 V 536.700 C 158.900 536.600 158.800 536.700 158.900 536.700 H 164.700 C 164.800 536.700 164.700 536.600 164.700 536.700 V 539.500 C 164.700 539.600 164.800 539.500 164.700 539.500 H 161.800 Z" stroke="rgb(0,0,255)" stroke-width="0.20" />
  <path d="M 173.800 539.500 H 170.900 C 170.800 539.500 170.900 539.600 170.900 539.500 V 536.700 C 170.900 536.600 170.800 536.700 170.900 536.700 H 176.700 C 176.800 536.700 176.700 536.600 176.700 536.700 V 539.500 C 176.700 539.600 176.800 539.500 176.700 539.500 H 173.800 Z" stroke="rgb(0,0,255)" stroke-width="0.20" />
  <path d="M 185.800 539.500 H 182.900 C 182.800 539.500 182.900 539.600 182.900 539.500 V 536.700 C 182.900 536.600 182.800 536.700 182.900 536.700 H 188.700 C 188.800 536.700 188.700 536.600 188.700 536.700 V 539.500 C 188.700 539.600 188.800 539.500 188.700 539.500 H 185.800 Z" stroke="rgb(0,0,255)" stroke-width="0.20" />
  <path d="M 197.800 539.500 H 194.900 C 194.800 539.500 194.900 539.600 194.900 539.500 V 536.700 C 194.900 536.600 194.800 536.700 194.900 536.700 H 200.700 C 200.800 536.700 200.700 536.600 200.700 536.700 V 539.500 C 200.700 539.600 200.800 539.500 200.700 539.500 H 197.800 Z" stroke="rgb(0,0,255)" stroke-width="0.20" />
  <text dominant-baseline="hanging" font-size="4px" style="font-family: sans-serif ; font-weight: normal; font-style: normal; fill: rgb(255,0,0)" text-anchor="middle" transform="matrix( 1.000 0.000 0.000 1.000 161.800 490.700 )">left</text><path d="M 114.800 542.700 H 208.800 C 208.855 542.700 208.900 542.655 208.900 542.600 V 533.200 C 208.900 533.100 208.800 533.200 208.900 533.200 H 211.800 C 211.855 533.200 211.900 533.155 211.900 533.100 V 527.100 C 211.900 527.045 211.855 527.000 211.800 527.000 H 208.900 C 208.800 527.000 208.900 527.100 208.900 527.000 V 521.200 C 208.900 521.100 208.800 521.200 208.900 521.200 H 211.800 C 211.855 521.200 211.900 521.155 211.900 521.100 V 515.100 C 211.900 515.045 211.855 515.000 211.800 515.000 H 208.900 C 208.800 515.000 208.900 515.100 208.900 515.000 V 509.200 C 208.900 509.100 208.800 509.200 208.900 509.200 H 211.800 C 211.855 509.200 211.900 509.155 211.900 509.100 V 503.100 C 211.900 503.045 211.855 503.000 211.800 503.000 H 208.900 C 208.800 503.000 208.900 503.100 208.900 503.000 V 497.200 C 208.900 497.100 208.800 497.200 208.900 497.200 H 211.800 C 211.855 497.200 211.900 497.155 211.900 497.100 V 491.100 C 211.900 491.045 211.855 491.000 211.800 491.000 H 208.900 C 208.800 491.000 208.900 491.100 208.900 491.000 V 485.200 C 208.900 485.100 208.800 485.200 208.900 485.200 H 211.800 C 211.855 485.200 211.900 485.155 211.900 485.100 V 479.100 C 211.900 479.045 211.855 479.000 211.800 479.000 H 208.900 C 208.800 479.000 208.900 479.100 208.900 479.000 V 473.200 C 208.900 473.100 208.800 473.200 208.900 473.200 H 211.800 C 211.855 473.200 211.900 473.155 211.900 473.100 V 467.100 C 211.900 467.045 211.855 467.000 211.800 467.000 H 208.900 C 208.800 467.000 208.900 467.100 208.900 467.000 V 461.200 C 208.900 461.100 208.800 461.200 208.900 461.200 H 211.800 C 211.855 461.200 211.900 461.155 211.900 461.100 V 455.100 C 211.900 455.045 211.855 455.000 211.800 455.000 H 208.900 C 208.800 455.000 208.900 455.100 208.900 455.000 V 445.600 V 442.600 C 208.900 442.545 208.855 442.500 208.800 442.500 H 114.800 C 114.745 442.500 114.700 442.545 114.700 442.600 V 445.600 V 455.000 C 114.700 455.100 114.800 455.000 114.700 455.000 H 111.800 C 111.745 455.000 111.700 455.045 111.700 455.100 V 461.100 C 111.700 461.155 111.745 461.200 111.800 461.200 H 114.700 C 114.800 461.200 114.700 461.100 114.700 461.200 V 467.000 C 114.700 467.100 114.800 467.000 114.700 467.000 H 111.800 C 111.745 467.000 111.700 467.045 111.700 467.100 V 473.100 C 111.700 473.155 111.745 473.200 111.800 473.200 H 114.700 C 114.800 473.200 114.700 473.100 114.700 473.200 V 479.000 C 114.700 479.100 114.800 479.000 114.700 479.000 H 111.800 C 111.745 479.000 111.700 479.045 111.700 479.100 V 485.100 C 111.700 485.155 111.745 485.200 111.800 485.200 H 114.700 C 114.800 485.200 114.700 485.100 114.700 485.200 V 491.000 C 114.700 491.100 114.800 491.000 114.700 491.000 H 111.800 C 111.745 491.000 111.700 491.045 111.700 491.100 V 497.100 C 111.700 497.155 111.745 497.200 111.800 497.200 H 114.700 C 114.800 497.200 114.700 497.100 114.700 497.200 V 503.000 C 114.700 503.100 114.800 503.000 114.700 503.000 H 111.800 C 111.745 503.000 111.700 503.045 111.700 503.100 V 509.100 C 111.700 509.155 111.745 509.200 111.800 509.200 H 114.700 C 114.800 509.200 114.700 509.100 114.700 509.200 V 515.000 C 114.700 515.100 114.800 515.000 114.700 515.000 H 111.800 C 111.745 515.000 111.700 515.045 111.700 515.100 V 521.100 C 111.700 521.155 111.745 521.200 111.800 521.200 H 114.700 C 114.800 521.200 114.700 521.100 114.700 521.200 V 527.000 C 114.700 527.100 114.800 527.000 114.700 527.000 H 111.800 C 111.745 527.000 111.700 527.045 111.700 527.100 V 533.100 C 111.700 533.155 111.745 533.200 111.800 533.200 H 114.700 C 114.800 533.200 114.700 533.100 114.700 533.200 V 542.600 C 114.700 542.655 114.745 542.700 114.800 542.700" stroke="rgb(0,0,0)" stroke-width="0.20" />
</g>
<g id="p-8" style="fill:none;stroke-linecap:round;stroke-linejoin:round;">
  <path d="M 125.800 437.800 H 122.900 C 122.800 437.800 122.900 437.900 122.900 437.800 V 435.000 C 122.900 434.900 122.800 435.000 122.900 435.000 H 128.700 C 128.800 435.000 128.700 434.900 128.700 435.000 V 437.800 C 128.700 437.900 128.800 437.800 128.700 437.800 H 125.800 Z" stroke="rgb(0,0,255)" stroke-width="0.20" />
  <path d="M 137.800 437.800 H 134.900 C 134.800 437.800 134.900 437.900 134.900 437.800 V 435.000 C 134.900 434.900 134.800 435.000 134.900 435.000 H 140.700 C 140.800 435.000 140.700 434.900 140.700 435.000 V 437.800 C 140.700 437.900 140.800 437.800 140.700 437.800 H 137.800 Z" stroke="rgb(0,0,255)" stroke-width="0.20" />
  <path d="M 149.800 437.800 H 146.900 C 146.800 437.800 146.900 437.900 146.900 437.800 V 435.000 C 146.900 434.900 146.800 435.000 146.900 435.000 H 152.700 C 152.800 435.000 152.700 434.900 152.700 435.000 V 437.800 C 152.700 437.900 152.800 437.800 152.700 437.800 H 149.800 Z" stroke="rgb(0,0,255)" stroke-width="0.20" />
  <path d="M 161.800 437.800 H 158.900 C 158.800 437.800 158.900 437.900 158.900 437.800 V 435.000 C 158.900 434.900 158.800 435.000 158.900 435.000 H 164.700 C 164.800 435.000 164.700 434.900 164.700 435.000 V 437.800 C 164.700 437.900 164.800 437.800 164.700 437.800 H 161.800 Z" stroke="rgb(0,0,255)" stroke-width="0.20" />
  <path d="M 173.800 437.800 H 170.900 C 170.800 437.800 170.900 437.900 170.900 437.800 V 435.000 C 170.900 434.900 170.800 435.000 170.900 435.000 H 176.700 C 176.800 435.000 176.700 434.900 176.700 435.000 V 437.800 C 176.700 437.900 176.800 437.800 176.700 437.800 H 173.800 Z" stroke="rgb(0,0,255)" stroke-width="0.20" />
  <path d="M 185.800 437.800 H 182.900 C 182.800 437.800 182.900 437.900 182.900 437.800 V 435.000 C 182.900 434.900 182.800 435.000 182.900 435.000 H 188.700 C 188.800 435.000 188.700 434.900 188.700 435.000 V 437.800 C 188.700 437.900 188.800 437.800 188.700 437.800 H 185.800 Z" stroke="rgb(0,0,255)" stroke-width="0.20" />
  <path d="M 197.800 437.800 H 194.900 C 194.800 437.800 194.900 437.900 194.900 437.800 V 435.000 C 194.900 434.900 194.800 435.000 194.900 435.000 H 200.700 C 200.800 435.000 200.700 434.900 200.700 435.000 V 437.800 C 200.700 437.900 200.800 437.800 200.700 437.800 H 197.800 Z" stroke="rgb(0,0,255)" stroke-width="0.20" />
  <text dominant-baseline="hanging" font-size="4px" style="font-family: sans-serif ; font-weight: normal; font-style: normal; fill: rgb(255,0,0)" text-anchor="middle" transform="matrix( 1.000 0.000 0.000 1.000 161.800 389.000 )">right</text><path d="M 114.800 441.000 H 208.800 C 208.855 441.000 208.900 440.955 208.900 440.900 V 431.500 C 208.900 431.400 208.800 431.500 208.900 431.500 H 211.800 C 211.855 431.500 211.900 431.455 211.900 431.400 V 425.400 C 211.900 425.345 211.855 425.300 211.800 425.300 H 208.900 C 208.800 425.300 208.900 425.400 208.900 425.300 V 419.500 C 208.900 419.400 208.800 419.500 208.900 419.500 H 211.800 C 211.855 419.500 211.900 419.455 211.900 419.400 V 413.400 C 211.900 413.345 211.855 413.300 211.800 413.300 H 208.900 C 208.800 413.300 208.900 413.400 208.900 413.300 V 407.500 C 208.900 407.400 208.800 407.500 208.900 407.500 H 211.800 C 211.855 407.500 211.900 407.455 211.900 407.400 V 401.400 C 211.900 401.345 211.855 401.300 211.800 401.300 H 208.900 C 208.800 401.300 208.900 401.400 208.900 401.300 V 395.500 C 208.900 395.400 208.800 395.500 208.900 395.500 H 211.800 C 211.855 395.500 211.900 395.455 211.900 395.400 V 389.400 C 211.900 389.345 211.855 389.300 211.800 389.300 H 208.900 C 208.800 389.300 208.900 389.400 208.900 389.300 V 383.500 C 208.900 383.400 208.800 383.500 208.900 383.500 H 211.800 C 211.855 383.500 211.900 383.455 211.900 383.400 V 377.400 C 211.900 377.345 211.855 377.300 211.800 377.300 H 208.900 C 208.800 377.300 208.900 377.400 208.900 377.300 V 371.500 C 208.900 371.400 208.800 371.500 208.900 371.500 H 211.800 C 211.855 371.500 211.900 371.455 211.900 371.400 V 365.400 C 211.900 365.345 211.855 365.300 211.800 365.300 H 208.900 C 208.800 365.300 208.900 365.400 208.900 365.300 V 359.500 C 208.900 359.400 208.800 359.500 208.900 359.500 H 211.800 C 211.855 359.500 211.900 359.455 211.900 359.400 V 353.400 C 211.900 353.345 211.855 353.300 211.800 353.300 H 208.900 C 208.800 353.300 208.900 353.400 208.900 353.300 V 343.900 V 340.900 C 208.900 340.845 208.855 340.800 208.800 340.800 H 114.800 C 114.745 340.800 114.700 340.845 114.700 340.900 V 343.900 V 353.300 C 114.700 353.400 114.800 353.300 114.700 353.300 H 111.800 C 111.745 353.300 111.700 353.345 111.700 353.400 V 359.400 C 111.700 359.455 111.745 359.500 111.800 359.500 H 114.700 C 114.800 359.500 114.700 359.400 114.700 359.500 V 365.300 C 114.700 365.400 114.800 365.300 114.700 365.300 H 111.800 C 111.745 365.300 111.700 365.345 111.700 365.400 V 371.400 C 111.700 371.455 111.745 371.500 111.800 371.500 H 114.700 C 114.800 371.500 114.700 371.400 114.700 371.500 V 377.300 C 114.700 377.400 114.800 377.300 114.700 377.300 H 111.800 C 111.745 377.300 111.700 377.345 111.700 377.400 V 383.400 C 111.700 383.455 111.745 383.500 111.800 383.500 H 114.700 C 114.800 383.500 114.700 383.400 114.700 383.500 V 389.300 C 114.700 389.400 114.800 389.300 114.700 389.300 H 111.800 C 111.745 389.300 111.700 389.345 111.700 389.400 V 395.400 C 111.700 395.455 111.745 395.500 111.800 395.500 H 114.700 C 114.800 395.500 114.700 395.400 114.700 395.500 V 401.300 C 114.700 401.400 114.800 401.300 114.700 401.300 H 111.800 C 111.745 401.300 111.700 401.345 111.700 401.400 V 407.400 C 111.700 407.455 111.745 407.500 111.800 407.500 H 114.700 C 114.800 407.500 114.700 407.400 114.700 407.500 V 413.300 C 114.700 413.400 114.800 413.300 114.700 413.300 H 111.800 C 111.745 413.300 111.700 413.345 111.700 413.400 V 419.400 C 111.700 419.455 111.745 419.500 111.800 419.500 H 114.700 C 114.800 419.500 114.700 419.400 114.700 419.500 V 425.300 C 114.700 425.400 114.800 425.300 114.700 425.300 H 111.800 C 111.745 425.300 111.700 425.345 111.700 425.400 V 431.400 C 111.700 431.455 111.745 431.500 111.800 431.500 H 114.700 C 114.800 431.500 114.700 431.400 114.700 431.500 V 440.900 C 114.700 440.955 114.745 441.000 114.800 441.000" stroke="rgb(0,0,0)" stroke-width="0.20" />
</g>
</svg>