<?xml version='1.0' encoding='utf-8'?>
<svg height="700.0mm" viewBox="0.0 0.0 250.0 700.0" width="250.0mm" 
xmlns="http://www.w3.org/2000/svg" xmlns:cc="http://creativecommons.org/ns#" xmlns:dc="http://purl.org/dc/elements/1.1/"
xmlns:inkscape="http://www.inkscape.org/namespaces/inkscape" xmlns:rdf="http://www.w3.org/1999/02/22-rdf-syntax-ns#"
xmlns:svg="http://www.w3.org/2000/svg" xmlns:xlink="http://www.w3.org/1999/xlink">

<g id="p-0" style="fill:none;stroke-linecap:round;stroke-linejoin:round;">
  <path d = "M13.175 10.000 l10.660 0.000 l0.000 -3.175 l8.340 0.000 l-0.000 3.175 l7.660 0.000 l0.000 -3.175 l8.340 0.000 l-0.000 3.175 l7.660 0.000 l0.000 -3.175 l8.340 0.000 l-0.000 3.175 l7.660 0.000 l0.000 -3.175 l8.340 0.000 l-0.000 3.175 l7.660 0.000 l0.000 -3.175 l8.340 0.000 l-0.000 3.175 l10.660 0.000 l0.000 10.660 l3.175 0.000 l0.000 8.340 l-3.175 -0.000 l0.000 7.660 l3.175 0.000 l0.000 8.340 l-3.175 -0.000 l0.000 7.660 l3.175 0.000 l0.000 8.340 l-3.175 -0.000 l0.000 7.660 l3.175 0.000 l0.000 8.340 l-3.175 -0.000 l0.000 7.660 l3.175 0.000 l0.000 8.340 l-3.175 -0.000 l0.000 10.660 l-10.660 0.000 l0.000 3.175 l-8.340 0.000 l-0.000 -3.175 l-7.660 0.000 l0.000 3.175 l-8.340 0.000 l-0.000 -3.175 l-7.660 0.000 l0.000 3.175 l-8.340 0.000 l-0.000 -3.175 l-7.660 0.000 l0.000 3.175 l-8.340 0.000 l-0.000 -3.175 l-7.660 0.000 l0.000 3.175 l-8.340 0.000 l-0.000 -3.175 l-10.660 0.000 l0.000 -10.660 l-3.175 0.000 l0.000 -8.340 l3.175 -0.000 l0.000 -7.660 l-3.175 0.000 l0.000 -8.340 l3.175 -0.000 l0.000 -7.660 l-3.175 0.000 l0.000 -8.340 l3.175 -0.000 l0.000 -7.660 l-3.175 0.000 l0.000 -8.340 l3.175 -0.000 l0.000 -7.660 l-3.175 0.000 l0.000 -8.340 l3.175 -0.000 l0.000 -10.660 Z" stroke="rgb(0,0,0)" stroke-width="0.1"/>
<text dominant-baseline="middle" font-size="20px" style="font-family: sans-serif ; font-weight: bold; font-style: normal; fill: rgb(0,0,0)" text-anchor="middle" transform="matrix( 1.000 0.000 0.000 1.000 60.0 58.4125 )"></text>
</g>
<g id="p-1" style="fill:none;stroke-linecap:round;stroke-linejoin:round;">
  <path d = "M123.175 10.000 l10.660 0.000 l0.000 -3.175 l8.340 0.000 l-0.000 3.175 l7.660 0.000 l0.000 -3.175 l8.340 0.000 l-0.000 3.175 l7.660 0.000 l0.000 -3.175 l8.340 0.000 l-0.000 3.175 l7.660 0.000 l0.000 -3.175 l8.340 0.000 l-0.000 3.175 l7.660 0.000 l0.000 -3.175 l8.340 0.000 l-0.000 3.175 l10.660 0.000 l0.000 10.660 l3.175 0.000 l0.000 8.340 l-3.175 -0.000 l0.000 7.660 l3.175 0.000 l0.000 8.340 l-3.175 -0.000 l0.000 7.660 l3.175 0.000 l0.000 8.340 l-3.175 -0.000 l0.000 7.660 l3.175 0.000 l0.000 8.340 l-3.175 -0.000 l0.000 7.660 l3.175 0.000 l0.000 8.340 l-3.175 -0.000 l0.000 10.660 l-10.660 0.000 l0.000 3.175 l-8.340 0.000 l-0.000 -3.175 l-7.660 0.000 l0.000 3.175 l-8.340 0.000 l-0.000 -3.175 l-7.660 0.000 l0.000 3.175 l-8.340 0.000 l-0.000 -3.175 l-7.660 0.000 l0.000 3.175 l-8.340 0.000 l-0.000 -3.175 l-7.660 0.000 l0.000 3.175 l-8.340 0.000 l-0.000 -3.175 l-10.660 0.000 l0.000 -10.660 l-3.175 0.000 l0.000 -8.340 l3.175 -0.000 l0.000 -7.660 l-3.175 0.000 l0.000 -8.340 l3.175 -0.000 l0.000 -7.660 l-3.175 0.000 l0.000 -8.340 l3.175 -0.000 l0.000 -7.660 l-3.175 0.000 l0.000 -8.340 l3.175 -0.000 l0.000 -7.660 l-3.175 0.000 l0.000 -8.340 l3.175 -0.000 l0.000 -10.660 Z" stroke="rgb(0,0,0)" stroke-width="0.1"/>
<text dominant-baseline="middle" font-size="20px" style="font-family: sans-serif ; font-weight: bold; font-style: normal; fill: rgb(0,0,0)" text-anchor="middle" transform="matrix( 1.000 0.000 0.000 1.000 170.0 58.4125 )"></text>
</g>
<g id="p-2" style="fill:none;stroke-linecap:round;stroke-linejoin:round;">
  <path d = "M10.000 120.000 l13.835 0.000 l0.000 -3.175 l8.340 0.000 l-0.000 3.175 l7.660 0.000 l0.000 -3.175 l8.340 0.000 l-0.000 3.175 l7.660 0.000 l0.000 -3.175 l8.340 0.000 l-0.000 3.175 l7.660 0.000 l0.000 -3.175 l8.340 0.000 l-0.000 3.175 l7.660 0.000 l0.000 -3.175 l8.340 0.000 l-0.000 3.175 l13.835 0.000 l0.000 10.990 l-3.175 -0.000 l0.000 7.660 l3.175 0.000 l0.000 8.340 l-3.175 -0.000 l0.000 7.660 l3.175 0.000 l0.000 8.340 l-3.175 -0.000 l0.000 7.660 l3.175 0.000 l0.000 8.340 l-3.175 -0.000 l0.000 7.660 l3.175 0.000 l0.000 8.340 l-3.175 -0.000 l0.000 7.660 l3.175 0.000 l0.000 10.990 l-13.835 0.000 l0.000 3.175 l-8.340 0.000 l-0.000 -3.175 l-7.660 0.000 l0.000 3.175 l-8.340 0.000 l-0.000 -3.175 l-7.660 0.000 l0.000 3.175 l-8.340 0.000 l-0.000 -3.175 l-7.660 0.000 l0.000 3.175 l-8.340 0.000 l-0.000 -3.175 l-7.660 0.000 l0.000 3.175 l-8.340 0.000 l-0.000 -3.175 l-13.835 0.000 l0.000 -10.990 l3.175 -0.000 l0.000 -7.660 l-3.175 0.000 l0.000 -8.340 l3.175 -0.000 l0.000 -7.660 l-3.175 0.000 l0.000 -8.340 l3.175 -0.000 l0.000 -7.660 l-3.175 0.000 l0.000 -8.340 l3.175 -0.000 l0.000 -7.660 l-3.175 0.000 l0.000 -8.340 l3.175 -0.000 l0.000 -7.660 l-3.175 0.000 l0.000 -10.990 Z" stroke="rgb(0,0,0)" stroke-width="0.1"/>
<text dominant-baseline="middle" font-size="20px" style="font-family: sans-serif ; font-weight: bold; font-style: normal; fill: rgb(0,0,0)" text-anchor="middle" transform="matrix( 1.000 0.000 0.000 1.000 60.0 168.4125 )"></text>
</g>
<g id="p-3" style="fill:none;stroke-linecap:round;stroke-linejoin:round;">
  <path d = "M120.000 120.000 l13.835 0.000 l0.000 -3.175 l8.340 0.000 l-0.000 3.175 l7.660 0.000 l0.000 -3.175 l8.340 0.000 l-0.000 3.175 l7.660 0.000 l0.000 -3.175 l8.340 0.000 l-0.000 3.175 l7.660 0.000 l0.000 -3.175 l8.340 0.000 l-0.000 3.175 l7.660 0.000 l0.000 -3.175 l8.340 0.000 l-0.000 3.175 l13.835 0.000 l0.000 10.990 l-3.175 -0.000 l0.000 7.660 l3.175 0.000 l0.000 8.340 l-3.175 -0.000 l0.000 7.660 l3.175 0.000 l0.000 8.340 l-3.175 -0.000 l0.000 7.660 l3.175 0.000 l0.000 8.340 l-3.175 -0.000 l0.000 7.660 l3.175 0.000 l0.000 8.340 l-3.175 -0.000 l0.000 7.660 l3.175 0.000 l0.000 10.990 l-13.835 0.000 l0.000 3.175 l-8.340 0.000 l-0.000 -3.175 l-7.660 0.000 l0.000 3.175 l-8.340 0.000 l-0.000 -3.175 l-7.660 0.000 l0.000 3.175 l-8.340 0.000 l-0.000 -3.175 l-7.660 0.000 l0.000 3.175 l-8.340 0.000 l-0.000 -3.175 l-7.660 0.000 l0.000 3.175 l-8.340 0.000 l-0.000 -3.175 l-13.835 0.000 l0.000 -10.990 l3.175 -0.000 l0.000 -7.660 l-3.175 0.000 l0.000 -8.340 l3.175 -0.000 l0.000 -7.660 l-3.175 0.000 l0.000 -8.340 l3.175 -0.000 l0.000 -7.660 l-3.175 0.000 l0.000 -8.340 l3.175 -0.000 l0.000 -7.660 l-3.175 0.000 l0.000 -8.340 l3.175 -0.000 l0.000 -7.660 l-3.175 0.000 l0.000 -10.990 Z" stroke="rgb(0,0,0)" stroke-width="0.1"/>
<text dominant-baseline="middle" font-size="20px" style="font-family: sans-serif ; font-weight: bold; font-style: normal; fill: rgb(0,0,0)" text-anchor="middle" transform="matrix( 1.000 0.000 0.000 1.000 170.0 168.4125 )"></text>
</g>
<g id="p-4" style="fill:none;stroke-linecap:round;stroke-linejoin:round;">
  <path d = "M10.000 230.000 l14.165 0.000 l-0.000 3.175 l7.660 0.000 l0.000 -3.175 l8.340 0.000 l-0.000 3.175 l7.660 0.000 l0.000 -3.175 l8.340 0.000 l-0.000 3.175 l7.660 0.000 l0.000 -3.175 l8.340 0.000 l-0.000 3.175 l7.660 0.000 l0.000 -3.175 l8.340 0.000 l-0.000 3.175 l7.660 0.000 l0.000 -3.175 l14.165 0.000 l0.000 14.165 l-3.175 -0.000 l0.000 7.660 l3.175 0.000 l0.000 8.340 l-3.175 -0.000 l0.000 7.660 l3.175 0.000 l0.000 8.340 l-3.175 -0.000 l0.000 7.660 l3.175 0.000 l0.000 8.340 l-3.175 -0.000 l0.000 7.660 l3.175 0.000 l0.000 8.340 l-3.175 -0.000 l0.000 7.660 l3.175 0.000 l0.000 14.165 l-14.165 0.000 l-0.000 -3.175 l-7.660 0.000 l0.000 3.175 l-8.340 0.000 l-0.000 -3.175 l-7.660 0.000 l0.000 3.175 l-8.340 0.000 l-0.000 -3.175 l-7.660 0.000 l0.000 3.175 l-8.340 0.000 l-0.000 -3.175 l-7.660 0.000 l0.000 3.175 l-8.340 0.000 l-0.000 -3.175 l-7.660 0.000 l0.000 3.175 l-14.165 0.000 l0.000 -14.165 l3.175 -0.000 l0.000 -7.660 l-3.175 0.000 l0.000 -8.340 l3.175 -0.000 l0.000 -7.660 l-3.175 0.000 l0.000 -8.340 l3.175 -0.000 l0.000 -7.660 l-3.175 0.000 l0.000 -8.340 l3.175 -0.000 l0.000 -7.660 l-3.175 0.000 l0.000 -8.340 l3.175 -0.000 l0.000 -7.660 l-3.175 0.000 l0.000 -14.165 Z" stroke="rgb(0,0,0)" stroke-width="0.1"/>
</g>
<g id="p-5" style="fill:none;stroke-linecap:round;stroke-linejoin:round;">
  <path d = "M120.000 230.000 l14.165 0.000 l-0.000 3.175 l7.660 0.000 l0.000 -3.175 l8.340 0.000 l-0.000 3.175 l7.660 0.000 l0.000 -3.175 l8.340 0.000 l-0.000 3.175 l7.660 0.000 l0.000 -3.175 l8.340 0.000 l-0.000 3.175 l7.660 0.000 l0.000 -3.175 l8.340 0.000 l-0.000 3.175 l7.660 0.000 l0.000 -3.175 l14.165 0.000 l0.000 14.165 l-3.175 -0.000 l0.000 7.660 l3.175 0.000 l0.000 8.340 l-3.175 -0.000 l0.000 7.660 l3.175 0.000 l0.000 8.340 l-3.175 -0.000 l0.000 7.660 l3.175 0.000 l0.000 8.340 l-3.175 -0.000 l0.000 7.660 l3.175 0.000 l0.000 8.340 l-3.175 -0.000 l0.000 7.660 l3.175 0.000 l0.000 14.165 l-14.165 0.000 l-0.000 -3.175 l-7.660 0.000 l0.000 3.175 l-8.340 0.000 l-0.000 -3.175 l-7.660 0.000 l0.000 3.175 l-8.340 0.000 l-0.000 -3.175 l-7.660 0.000 l0.000 3.175 l-8.340 0.000 l-0.000 -3.175 l-7.660 0.000 l0.000 3.175 l-8.340 0.000 l-0.000 -3.175 l-7.660 0.000 l0.000 3.175 l-14.165 0.000 l0.000 -14.165 l3.175 -0.000 l0.000 -7.660 l-3.175 0.000 l0.000 -8.340 l3.175 -0.000 l0.000 -7.660 l-3.175 0.000 l0.000 -8.340 l3.175 -0.000 l0.000 -7.660 l-3.175 0.000 l0.000 -8.340 l3.175 -0.000 l0.000 -7.660 l-3.175 0.000 l0.000 -8.340 l3.175 -0.000 l0.000 -7.660 l-3.175 0.000 l0.000 -14.165 Z" stroke="rgb(0,0,0)" stroke-width="0.1"/>
</g>
</svg>