<?xml version='1.0' encoding='utf-8'?>
<svg height="1000.0mm" viewBox="0.0 0.0 1000.0 1000.0" width="1000.0mm" 
xmlns="http://www.w3.org/2000/svg" xmlns:cc="http://creativecommons.org/ns#" xmlns:dc="http://purl.org/dc/elements/1.1/"
xmlns:inkscape="http://www.inkscape.org/namespaces/inkscape" xmlns:rdf="http://www.w3.org/1999/02/22-rdf-syntax-ns#"
xmlns:svg="http://www.w3.org/2000/svg" xmlns:xlink="http://www.w3.org/1999/xlink">

<g id="p-0" style="fill:none;stroke-linecap:round;stroke-linejoin:round;">
  <path d = "M22.500 19.000 l7.860 0.000 l0.000 -3.175 l12.290 0.000 l-0.000 3.175 l11.710 0.000 l0.000 -3.175 l12.290 0.000 l-0.000 3.175 l11.710 0.000 l0.000 -3.175 l12.290 0.000 l-0.000 3.175 l11.710 0.000 l0.000 -3.175 l12.290 0.000 l-0.000 3.175 l7.860 0.000 l0.000 8.965 l-3.175 -0.000 l0.000 11.710 l3.175 0.000 l0.000 12.140 l-100.000 0.000 l0.000 -12.140 l3.175 -0.000 l0.000 -11.710 l-3.175 0.000 l0.000 -8.965 Z" stroke="rgb(0,0,0)" stroke-width="0.1"/>
<text dominant-baseline="middle" font-size="20px" style="font-family: sans-serif ; font-weight: bold; font-style: normal; fill: rgb(0,0,0)" text-anchor="middle" transform="matrix( 1.000 0.000 0.000 1.000 69.325 35.4125 )"></text>
</g>
<g id="p-1" style="fill:none;stroke-linecap:round;stroke-linejoin:round;">
  <path d = "M157.500 10.000 l100.000 0.000 l0.000 9.140 l-3.175 -0.000 l0.000 11.710 l3.175 0.000 l0.000 12.290 l-3.175 -0.000 l0.000 11.710 l3.175 0.000 l0.000 5.965 l-7.860 0.000 l0.000 3.175 l-12.290 0.000 l-0.000 -3.175 l-11.710 0.000 l0.000 3.175 l-12.290 0.000 l-0.000 -3.175 l-11.710 0.000 l0.000 3.175 l-12.290 0.000 l-0.000 -3.175 l-11.710 0.000 l0.000 3.175 l-12.290 0.000 l-0.000 -3.175 l-7.860 0.000 l0.000 -5.965 l3.175 -0.000 l0.000 -11.710 l-3.175 0.000 l0.000 -12.290 l3.175 -0.000 l0.000 -11.710 l-3.175 0.000 l0.000 -9.140 Z" stroke="rgb(0,0,0)" stroke-width="0.1"/>
<text dominant-baseline="middle" font-size="20px" style="font-family: sans-serif ; font-weight: bold; font-style: normal; fill: rgb(0,0,0)" text-anchor="middle" transform="matrix( 1.000 0.000 0.000 1.000 204.325 35.4125 )"></text>
</g>
<g id="p-2" style="fill:none;stroke-linecap:round;stroke-linejoin:round;">
  <path d = "M22.500 83.000 l7.860 0.000 l0.000 -3.175 l12.290 0.000 l-0.000 3.175 l11.710 0.000 l0.000 -3.175 l12.290 0.000 l-0.000 3.175 l11.710 0.000 l0.000 -3.175 l12.290 0.000 l-0.000 3.175 l11.710 0.000 l0.000 -3.175 l12.290 0.000 l-0.000 3.175 l7.860 0.000 l0.000 5.965 l-3.175 -0.000 l0.000 11.710 l3.175 0.000 l0.000 7.140 l-3.175 -0.000 l0.000 4.710 l3.175 0.000 l0.000 3.580 l-100.000 0.000 l0.000 -3.580 l3.175 -0.000 l0.000 -4.710 l-3.175 0.000 l0.000 -7.140 l3.175 -0.000 l0.000 -11.710 l-3.175 0.000 l0.000 -5.965 Z" stroke="rgb(0,0,0)" stroke-width="0.1"/>
<text dominant-baseline="middle" font-size="20px" style="font-family: sans-serif ; font-weight: bold; font-style: normal; fill: rgb(0,0,0)" text-anchor="middle" transform="matrix( 1.000 0.000 0.000 1.000 72.5 99.4125 )"></text>
</g>
<g id="p-3" style="fill:none;stroke-linecap:round;stroke-linejoin:round;">
  <path d = "M160.675 74.000 l93.650 0.000 l0.000 8.000 l3.175 0.000 l0.000 15.552 l-3.175 -0.000 l0.000 11.710 l3.175 0.000 l0.000 15.552 l-7.860 0.000 l0.000 3.175 l-12.290 0.000 l-0.000 -3.175 l-11.710 0.000 l0.000 3.175 l-12.290 0.000 l-0.000 -3.175 l-11.710 0.000 l0.000 3.175 l-12.290 0.000 l-0.000 -3.175 l-11.710 0.000 l0.000 3.175 l-12.290 0.000 l-0.000 -3.175 l-7.860 0.000 l0.000 -15.552 l3.175 -0.000 l0.000 -11.710 l-3.175 0.000 l0.000 -15.552 l3.175 -0.000 l0.000 -8.000 Z" stroke="rgb(0,0,0)" stroke-width="0.1"/>
<text dominant-baseline="middle" font-size="20px" style="font-family: sans-serif ; font-weight: bold; font-style: normal; fill: rgb(0,0,0)" text-anchor="middle" transform="matrix( 1.000 0.000 0.000 1.000 207.5 99.4125 )"></text>
</g>
<g id="p-4" style="fill:none;stroke-linecap:round;stroke-linejoin:round;">
  <path d = "M13.175 147.000 l5.185 0.000 l0.000 -3.175 l12.290 0.000 l-0.000 3.175 l11.710 0.000 l0.000 -3.175 l12.290 0.000 l-0.000 3.175 l11.710 0.000 l0.000 -3.175 l12.290 0.000 l-0.000 3.175 l11.710 0.000 l0.000 -3.175 l12.290 0.000 l-0.000 3.175 l11.710 0.000 l0.000 -3.175 l12.290 0.000 l-0.000 3.175 l5.185 0.000 l0.000 5.685 l3.175 0.000 l0.000 12.290 l-3.175 -0.000 l0.000 6.860 l3.175 0.000 a 8 8 0 0 0 -8.000 8.000 l-113.825 0.000 l0.000 -11.860 l-3.175 0.000 l0.000 -12.290 l3.175 -0.000 l0.000 -8.685 Z" stroke="rgb(0,0,0)" stroke-width="0.1"/>
</g>
<g id="p-5" style="fill:none;stroke-linecap:round;stroke-linejoin:round;">
  <path d = "M148.175 138.000 l113.825 0.000 a 8 8 0 0 1 8.000 -8.000 a 8 8 0 0 1 8.000 8.000 a 8 8 0 0 1 -8.000 8.000 l-3.175 -0.000 l0.000 15.272 l3.175 0.000 l0.000 12.290 l-3.175 -0.000 l0.000 15.272 l-5.185 0.000 l0.000 3.175 l-12.290 0.000 l-0.000 -3.175 l-11.710 0.000 l0.000 3.175 l-12.290 0.000 l-0.000 -3.175 l-11.710 0.000 l0.000 3.175 l-12.290 0.000 l-0.000 -3.175 l-11.710 0.000 l0.000 3.175 l-12.290 0.000 l-0.000 -3.175 l-11.710 0.000 l0.000 3.175 l-12.290 0.000 l-0.000 -3.175 l-5.185 0.000 l0.000 -5.685 l-3.175 0.000 l0.000 -12.290 l3.175 -0.000 l0.000 -11.710 l-3.175 0.000 l0.000 -12.290 l3.175 -0.000 l0.000 -8.860 Z" stroke="rgb(0,0,0)" stroke-width="0.1"/>
<path d=" M 265.000 138.000 a 5 5 0 0 1 10 0 a 5 5 0 0 1 -10 0 Z" stroke="rgb(0,0,0)" stroke-width="0.1"/>
<path d= " M 266.825 134.700 l2.885 0.000 l0.000 3.290 l-2.885 -0.000 l-0.000 -2.710 Z" stroke="rgb(0,0,0)" stroke-width="0.1"/>
</g>
<g id="p-6" style="fill:none;stroke-linecap:round;stroke-linejoin:round;">
  <path d = "M10.000 211.000 l5.185 0.000 l0.000 -3.175 l12.290 0.000 l-0.000 3.175 l11.710 0.000 l0.000 -3.175 l12.290 0.000 l-0.000 3.175 l11.710 0.000 l0.000 -3.175 l12.290 0.000 l-0.000 3.175 l11.710 0.000 l0.000 -3.175 l12.290 0.000 l-0.000 3.175 l11.710 0.000 l0.000 -3.175 l12.290 0.000 l-0.000 3.175 l5.185 0.000 l0.000 8.685 l3.175 0.000 l0.000 12.290 l-3.175 -0.000 l0.000 11.860 l-113.825 0.000 a 8 8 0 0 0 -8.000 -8.000 l3.175 -0.000 l0.000 -6.860 l-3.175 0.000 l0.000 -12.290 l3.175 -0.000 l0.000 -5.685 Z" stroke="rgb(0,0,0)" stroke-width="0.1"/>
</g>
<g id="p-7" style="fill:none;stroke-linecap:round;stroke-linejoin:round;">
  <path d = "M153.000 202.000 l113.825 0.000 l0.000 8.860 l3.175 0.000 l0.000 12.290 l-3.175 -0.000 l0.000 11.710 l3.175 0.000 l0.000 12.290 l-3.175 -0.000 l0.000 5.685 l-5.185 0.000 l0.000 3.175 l-12.290 0.000 l-0.000 -3.175 l-11.710 0.000 l0.000 3.175 l-12.290 0.000 l-0.000 -3.175 l-11.710 0.000 l0.000 3.175 l-12.290 0.000 l-0.000 -3.175 l-11.710 0.000 l0.000 3.175 l-12.290 0.000 l-0.000 -3.175 l-11.710 0.000 l0.000 3.175 l-12.290 0.000 l-0.000 -3.175 l-5.185 0.000 l0.000 -15.272 l-3.175 0.000 l0.000 -12.290 l3.175 -0.000 l0.000 -15.272 l-3.175 0.000 a 8 8 0 0 1 -8.000 -8.000 a 8 8 0 0 1 8.000 -8.000 a 8 8 0 0 1 8.000 8.000 Z" stroke="rgb(0,0,0)" stroke-width="0.1"/>
<path d=" M 140.000 202.000 a 5 5 0 0 1 10 0 a 5 5 0 0 1 -10 0 Z" stroke="rgb(0,0,0)" stroke-width="0.1"/>
<path d= " M 145.300 198.700 l2.885 0.000 l0.000 3.290 l-2.885 -0.000 l-0.000 -2.710 Z" stroke="rgb(0,0,0)" stroke-width="0.1"/>
</g>
<g id="p-8" style="fill:none;stroke-linecap:round;stroke-linejoin:round;">
  <path d = "M22.500 266.000 l8.140 0.000 l-0.000 3.175 l11.710 0.000 l0.000 -3.175 l12.290 0.000 l-0.000 3.175 l11.710 0.000 l0.000 -3.175 l12.290 0.000 l-0.000 3.175 l11.710 0.000 l0.000 -3.175 l12.290 0.000 l-0.000 3.175 l11.710 0.000 l0.000 -3.175 l8.140 0.000 l0.000 8.640 l-3.175 -0.000 l0.000 11.710 l3.175 0.000 l0.000 12.290 l-3.175 -0.000 l0.000 11.710 l3.175 0.000 l0.000 12.290 l-3.175 -0.000 l0.000 11.710 l3.175 0.000 l0.000 12.290 l-3.175 -0.000 l0.000 11.710 l3.175 0.000 l0.000 12.290 l-3.175 -0.000 l0.000 11.710 l3.175 0.000 l0.000 8.640 l-8.140 0.000 l-0.000 -3.175 l-11.710 0.000 l0.000 3.175 l-12.290 0.000 l-0.000 -3.175 l-11.710 0.000 l0.000 3.175 l-12.290 0.000 l-0.000 -3.175 l-11.710 0.000 l0.000 3.175 l-12.290 0.000 l-0.000 -3.175 l-11.710 0.000 l0.000 3.175 l-8.140 0.000 l0.000 -8.640 l3.175 -0.000 l0.000 -11.710 l-3.175 0.000 l0.000 -12.290 l3.175 -0.000 l0.000 -11.710 l-3.175 0.000 l0.000 -12.290 l3.175 -0.000 l0.000 -11.710 l-3.175 0.000 l0.000 -12.290 l3.175 -0.000 l0.000 -11.710 l-3.175 0.000 l0.000 -12.290 l3.175 -0.000 l0.000 -11.710 l-3.175 0.000 l0.000 -8.640 Z" stroke="rgb(0,0,0)" stroke-width="0.1"/>
</g>
<g id="p-9" style="fill:none;stroke-linecap:round;stroke-linejoin:round;">
  <path d = "M157.500 266.000 l8.140 0.000 l-0.000 3.175 l11.710 0.000 l0.000 -3.175 l12.290 0.000 l-0.000 3.175 l11.710 0.000 l0.000 -3.175 l12.290 0.000 l-0.000 3.175 l11.710 0.000 l0.000 -3.175 l12.290 0.000 l-0.000 3.175 l11.710 0.000 l0.000 -3.175 l8.140 0.000 l0.000 8.640 l-3.175 -0.000 l0.000 11.710 l3.175 0.000 l0.000 12.290 l-3.175 -0.000 l0.000 11.710 l3.175 0.000 l0.000 12.290 l-3.175 -0.000 l0.000 11.710 l3.175 0.000 l0.000 12.290 l-3.175 -0.000 l0.000 11.710 l3.175 0.000 l0.000 12.290 l-3.175 -0.000 l0.000 11.710 l3.175 0.000 l0.000 8.640 l-8.140 0.000 l-0.000 -3.175 l-11.710 0.000 l0.000 3.175 l-12.290 0.000 l-0.000 -3.175 l-11.710 0.000 l0.000 3.175 l-12.290 0.000 l-0.000 -3.175 l-11.710 0.000 l0.000 3.175 l-12.290 0.000 l-0.000 -3.175 l-11.710 0.000 l0.000 3.175 l-8.140 0.000 l0.000 -8.640 l3.175 -0.000 l0.000 -11.710 l-3.175 0.000 l0.000 -12.290 l3.175 -0.000 l0.000 -11.710 l-3.175 0.000 l0.000 -12.290 l3.175 -0.000 l0.000 -11.710 l-3.175 0.000 l0.000 -12.290 l3.175 -0.000 l0.000 -11.710 l-3.175 0.000 l0.000 -12.290 l3.175 -0.000 l0.000 -11.710 l-3.175 0.000 l0.000 -8.640 Z" stroke="rgb(0,0,0)" stroke-width="0.1"/>
</g>
</svg>