<?xml version='1.0' encoding='utf-8'?>
<svg height="1000.0mm" viewBox="0.0 0.0 1000.0 1000.0" width="1000.0mm" 
xmlns="http://www.w3.org/2000/svg" xmlns:cc="http://creativecommons.org/ns#" xmlns:dc="http://purl.org/dc/elements/1.1/"
xmlns:inkscape="http://www.inkscape.org/namespaces/inkscape" xmlns:rdf="http://www.w3.org/1999/02/22-rdf-syntax-ns#"
xmlns:svg="http://www.w3.org/2000/svg" xmlns:xlink="http://www.w3.org/1999/xlink">

<g id="p-0" style="fill:none;stroke-linecap:round;stroke-linejoin:round;">
  <path d = "M10.000 16.000 l7.835 0.000 l0.000 -3.175 l4.340 0.000 l-0.000 3.175 l3.660 0.000 l0.000 -3.175 l4.340 0.000 l-0.000 3.175 l3.660 0.000 l0.000 -3.175 l4.340 0.000 l-0.000 3.175 l3.660 0.000 l0.000 -3.175 l4.340 0.000 l-0.000 3.175 l3.660 0.000 l0.000 -3.175 l4.340 0.000 l-0.000 3.175 l3.660 0.000 l0.000 -3.175 l4.340 0.000 l-0.000 3.175 l3.660 0.000 l0.000 -3.175 l4.340 0.000 l-0.000 3.175 l3.660 0.000 l0.000 -3.175 l4.340 0.000 l-0.000 3.175 l3.660 0.000 l0.000 -3.175 l4.340 0.000 l-0.000 3.175 l3.660 0.000 l0.000 -3.175 l4.340 0.000 l-0.000 3.175 l3.660 0.000 l0.000 -3.175 l4.340 0.000 l-0.000 3.175 l7.835 0.000 l0.000 6.990 l-3.175 -0.000 l0.000 3.660 l3.175 0.000 l0.000 10.165 l-100.000 0.000 l0.000 -10.165 l3.175 -0.000 l0.000 -3.660 l-3.175 0.000 l0.000 -6.990 Z" stroke="rgb(0,0,0)" stroke-width="0.1"/>
<text dominant-baseline="middle" font-size="20px" style="font-family: sans-serif ; font-weight: bold; font-style: normal; fill: rgb(0,0,0)" text-anchor="middle" transform="matrix( 1.000 0.000 0.000 1.000 56.825 26.4125 )"></text>
</g>
<g id="p-1" style="fill:none;stroke-linecap:round;stroke-linejoin:round;">
  <path d = "M120.000 10.000 l100.000 0.000 l0.000 8.165 l-3.175 -0.000 l0.000 3.660 l3.175 0.000 l0.000 4.340 l-3.175 -0.000 l0.000 3.660 l3.175 0.000 l0.000 4.340 l-3.175 -0.000 l0.000 3.660 l3.175 0.000 l0.000 4.990 l-7.835 0.000 l0.000 3.175 l-4.340 0.000 l-0.000 -3.175 l-3.660 0.000 l0.000 3.175 l-4.340 0.000 l-0.000 -3.175 l-3.660 0.000 l0.000 3.175 l-4.340 0.000 l-0.000 -3.175 l-3.660 0.000 l0.000 3.175 l-4.340 0.000 l-0.000 -3.175 l-3.660 0.000 l0.000 3.175 l-4.340 0.000 l-0.000 -3.175 l-3.660 0.000 l0.000 3.175 l-4.340 0.000 l-0.000 -3.175 l-3.660 0.000 l0.000 3.175 l-4.340 0.000 l-0.000 -3.175 l-3.660 0.000 l0.000 3.175 l-4.340 0.000 l-0.000 -3.175 l-3.660 0.000 l0.000 3.175 l-4.340 0.000 l-0.000 -3.175 l-3.660 0.000 l0.000 3.175 l-4.340 0.000 l-0.000 -3.175 l-3.660 0.000 l0.000 3.175 l-4.340 0.000 l-0.000 -3.175 l-7.835 0.000 l0.000 -4.990 l3.175 -0.000 l0.000 -3.660 l-3.175 0.000 l0.000 -4.340 l3.175 -0.000 l0.000 -3.660 l-3.175 0.000 l0.000 -4.340 l3.175 -0.000 l0.000 -3.660 l-3.175 0.000 l0.000 -8.165 Z" stroke="rgb(0,0,0)" stroke-width="0.1"/>
<text dominant-baseline="middle" font-size="20px" style="font-family: sans-serif ; font-weight: bold; font-style: normal; fill: rgb(0,0,0)" text-anchor="middle" transform="matrix( 1.000 0.000 0.000 1.000 166.825 26.4125 )"></text>
</g>
<g id="p-2" style="fill:none;stroke-linecap:round;stroke-linejoin:round;">
  <path d = "M10.000 62.000 l7.835 0.000 l0.000 -3.175 l4.340 0.000 l-0.000 3.175 l3.660 0.000 l0.000 -3.175 l4.340 0.000 l-0.000 3.175 l3.660 0.000 l0.000 -3.175 l4.340 0.000 l-0.000 3.175 l3.660 0.000 l0.000 -3.175 l4.340 0.000 l-0.000 3.175 l3.660 0.000 l0.000 -3.175 l4.340 0.000 l-0.000 3.175 l3.660 0.000 l0.000 -3.175 l4.340 0.000 l-0.000 3.175 l3.660 0.000 l0.000 -3.175 l4.340 0.000 l-0.000 3.175 l3.660 0.000 l0.000 -3.175 l4.340 0.000 l-0.000 3.175 l3.660 0.000 l0.000 -3.175 l4.340 0.000 l-0.000 3.175 l3.660 0.000 l0.000 -3.175 l4.340 0.000 l-0.000 3.175 l3.660 0.000 l0.000 -3.175 l4.340 0.000 l-0.000 3.175 l7.835 0.000 l0.000 6.990 l-3.175 -0.000 l0.000 3.660 l3.175 0.000 l0.000 10.165 l-100.000 0.000 l0.000 -10.165 l3.175 -0.000 l0.000 -3.660 l-3.175 0.000 l0.000 -6.990 Z" stroke="rgb(0,0,0)" stroke-width="0.1"/>
<text dominant-baseline="middle" font-size="20px" style="font-family: sans-serif ; font-weight: bold; font-style: normal; fill: rgb(0,0,0)" text-anchor="middle" transform="matrix( 1.000 0.000 0.000 1.000 60.0 72.4125 )"></text>
</g>
<g id="p-3" style="fill:none;stroke-linecap:round;stroke-linejoin:round;">
  <path d = "M123.175 56.000 l93.650 0.000 l0.000 8.000 l3.175 0.000 l0.000 6.578 l-3.175 -0.000 l0.000 3.660 l3.175 0.000 l0.000 4.340 l-3.175 -0.000 l0.000 3.660 l3.175 0.000 l0.000 6.578 l-7.835 0.000 l0.000 3.175 l-4.340 0.000 l-0.000 -3.175 l-3.660 0.000 l0.000 3.175 l-4.340 0.000 l-0.000 -3.175 l-3.660 0.000 l0.000 3.175 l-4.340 0.000 l-0.000 -3.175 l-3.660 0.000 l0.000 3.175 l-4.340 0.000 l-0.000 -3.175 l-3.660 0.000 l0.000 3.175 l-4.340 0.000 l-0.000 -3.175 l-3.660 0.000 l0.000 3.175 l-4.340 0.000 l-0.000 -3.175 l-3.660 0.000 l0.000 3.175 l-4.340 0.000 l-0.000 -3.175 l-3.660 0.000 l0.000 3.175 l-4.340 0.000 l-0.000 -3.175 l-3.660 0.000 l0.000 3.175 l-4.340 0.000 l-0.000 -3.175 l-3.660 0.000 l0.000 3.175 l-4.340 0.000 l-0.000 -3.175 l-3.660 0.000 l0.000 3.175 l-4.340 0.000 l-0.000 -3.175 l-7.835 0.000 l0.000 -6.578 l3.175 -0.000 l0.000 -3.660 l-3.175 0.000 l0.000 -4.340 l3.175 -0.000 l0.000 -3.660 l-3.175 0.000 l0.000 -6.578 l3.175 -0.000 l0.000 -8.000 Z" stroke="rgb(0,0,0)" stroke-width="0.1"/>
<text dominant-baseline="middle" font-size="20px" style="font-family: sans-serif ; font-weight: bold; font-style: normal; fill: rgb(0,0,0)" text-anchor="middle" transform="matrix( 1.000 0.000 0.000 1.000 170.0 72.4125 )"></text>
</g>
<g id="p-4" style="fill:none;stroke-linecap:round;stroke-linejoin:round;">
  <path d = "M13.175 108.000 l4.660 0.000 l0.000 -3.175 l4.340 0.000 l-0.000 3.175 l3.660 0.000 l0.000 -3.175 l4.340 0.000 l-0.000 3.175 l3.660 0.000 l0.000 -3.175 l4.340 0.000 l-0.000 3.175 l3.660 0.000 l0.000 -3.175 l4.340 0.000 l-0.000 3.175 l3.660 0.000 l0.000 -3.175 l4.340 0.000 l-0.000 3.175 l3.660 0.000 l0.000 -3.175 l4.340 0.000 l-0.000 3.175 l3.660 0.000 l0.000 -3.175 l4.340 0.000 l-0.000 3.175 l3.660 0.000 l0.000 -3.175 l4.340 0.000 l-0.000 3.175 l3.660 0.000 l0.000 -3.175 l4.340 0.000 l-0.000 3.175 l3.660 0.000 l0.000 -3.175 l4.340 0.000 l-0.000 3.175 l3.660 0.000 l0.000 -3.175 l4.340 0.000 l-0.000 3.175 l4.660 0.000 l0.000 3.660 l3.175 0.000 l0.000 4.340 l-3.175 -0.000 l0.000 4.835 l3.175 0.000 a 8 8 0 0 0 -8.000 8.000 l-88.825 0.000 l0.000 -9.835 l-3.175 0.000 l0.000 -4.340 l3.175 -0.000 l0.000 -6.660 Z" stroke="rgb(0,0,0)" stroke-width="0.1"/>
</g>
<g id="p-5" style="fill:none;stroke-linecap:round;stroke-linejoin:round;">
  <path d = "M123.175 102.000 l88.825 0.000 a 8 8 0 0 1 8.000 -8.000 a 8 8 0 0 1 8.000 8.000 a 8 8 0 0 1 -8.000 8.000 l-3.175 -0.000 l0.000 6.248 l3.175 0.000 l0.000 4.340 l-3.175 -0.000 l0.000 3.660 l3.175 0.000 l0.000 4.340 l-3.175 -0.000 l0.000 6.248 l-4.660 0.000 l0.000 3.175 l-4.340 0.000 l-0.000 -3.175 l-3.660 0.000 l0.000 3.175 l-4.340 0.000 l-0.000 -3.175 l-3.660 0.000 l0.000 3.175 l-4.340 0.000 l-0.000 -3.175 l-3.660 0.000 l0.000 3.175 l-4.340 0.000 l-0.000 -3.175 l-3.660 0.000 l0.000 3.175 l-4.340 0.000 l-0.000 -3.175 l-3.660 0.000 l0.000 3.175 l-4.340 0.000 l-0.000 -3.175 l-3.660 0.000 l0.000 3.175 l-4.340 0.000 l-0.000 -3.175 l-3.660 0.000 l0.000 3.175 l-4.340 0.000 l-0.000 -3.175 l-3.660 0.000 l0.000 3.175 l-4.340 0.000 l-0.000 -3.175 l-3.660 0.000 l0.000 3.175 l-4.340 0.000 l-0.000 -3.175 l-3.660 0.000 l0.000 3.175 l-4.340 0.000 l-0.000 -3.175 l-4.660 0.000 l0.000 -4.660 l-3.175 0.000 l0.000 -4.340 l3.175 -0.000 l0.000 -3.660 l-3.175 0.000 l0.000 -4.340 l3.175 -0.000 l0.000 -3.660 l-3.175 0.000 l0.000 -4.340 l3.175 -0.000 l0.000 -7.835 Z" stroke="rgb(0,0,0)" stroke-width="0.1"/>
<path d=" M 215.000 102.000 a 5 5 0 0 1 10 0 a 5 5 0 0 1 -10 0 Z" stroke="rgb(0,0,0)" stroke-width="0.1"/>
<path d= " M 216.825 99.000 l3.175 0.000 l0.000 3.340 l-3.175 -0.000 l-0.000 -3.340 Z" stroke="rgb(0,0,0)" stroke-width="0.1"/>
</g>
<g id="p-6" style="fill:none;stroke-linecap:round;stroke-linejoin:round;">
  <path d = "M10.000 154.000 l4.660 0.000 l0.000 -3.175 l4.340 0.000 l-0.000 3.175 l3.660 0.000 l0.000 -3.175 l4.340 0.000 l-0.000 3.175 l3.660 0.000 l0.000 -3.175 l4.340 0.000 l-0.000 3.175 l3.660 0.000 l0.000 -3.175 l4.340 0.000 l-0.000 3.175 l3.660 0.000 l0.000 -3.175 l4.340 0.000 l-0.000 3.175 l3.660 0.000 l0.000 -3.175 l4.340 0.000 l-0.000 3.175 l3.660 0.000 l0.000 -3.175 l4.340 0.000 l-0.000 3.175 l3.660 0.000 l0.000 -3.175 l4.340 0.000 l-0.000 3.175 l3.660 0.000 l0.000 -3.175 l4.340 0.000 l-0.000 3.175 l3.660 0.000 l0.000 -3.175 l4.340 0.000 l-0.000 3.175 l3.660 0.000 l0.000 -3.175 l4.340 0.000 l-0.000 3.175 l4.660 0.000 l0.000 6.660 l3.175 0.000 l0.000 4.340 l-3.175 -0.000 l0.000 9.835 l-88.825 0.000 a 8 8 0 0 0 -8.000 -8.000 l3.175 -0.000 l0.000 -4.835 l-3.175 0.000 l0.000 -4.340 l3.175 -0.000 l0.000 -3.660 Z" stroke="rgb(0,0,0)" stroke-width="0.1"/>
</g>
<g id="p-7" style="fill:none;stroke-linecap:round;stroke-linejoin:round;">
  <path d = "M128.000 148.000 l88.825 0.000 l0.000 7.835 l3.175 0.000 l0.000 4.340 l-3.175 -0.000 l0.000 3.660 l3.175 0.000 l0.000 4.340 l-3.175 -0.000 l0.000 3.660 l3.175 0.000 l0.000 4.340 l-3.175 -0.000 l0.000 4.660 l-4.660 0.000 l0.000 3.175 l-4.340 0.000 l-0.000 -3.175 l-3.660 0.000 l0.000 3.175 l-4.340 0.000 l-0.000 -3.175 l-3.660 0.000 l0.000 3.175 l-4.340 0.000 l-0.000 -3.175 l-3.660 0.000 l0.000 3.175 l-4.340 0.000 l-0.000 -3.175 l-3.660 0.000 l0.000 3.175 l-4.340 0.000 l-0.000 -3.175 l-3.660 0.000 l0.000 3.175 l-4.340 0.000 l-0.000 -3.175 l-3.660 0.000 l0.000 3.175 l-4.340 0.000 l-0.000 -3.175 l-3.660 0.000 l0.000 3.175 l-4.340 0.000 l-0.000 -3.175 l-3.660 0.000 l0.000 3.175 l-4.340 0.000 l-0.000 -3.175 l-3.660 0.000 l0.000 3.175 l-4.340 0.000 l-0.000 -3.175 l-3.660 0.000 l0.000 3.175 l-4.340 0.000 l-0.000 -3.175 l-4.660 0.000 l0.000 -6.248 l-3.175 0.000 l0.000 -4.340 l3.175 -0.000 l0.000 -3.660 l-3.175 0.000 l0.000 -4.340 l3.175 -0.000 l0.000 -6.248 l-3.175 0.000 a 8 8 0 0 1 -8.000 -8.000 a 8 8 0 0 1 8.000 -8.000 a 8 8 0 0 1 8.000 8.000 Z" stroke="rgb(0,0,0)" stroke-width="0.1"/>
<path d=" M 115.000 148.000 a 5 5 0 0 1 10 0 a 5 5 0 0 1 -10 0 Z" stroke="rgb(0,0,0)" stroke-width="0.1"/>
<path d= " M 120.000 145.000 l3.175 0.000 l0.000 3.340 l-3.175 -0.000 l-0.000 -3.340 Z" stroke="rgb(0,0,0)" stroke-width="0.1"/>
</g>
<g id="p-8" style="fill:none;stroke-linecap:round;stroke-linejoin:round;">
  <path d = "M10.000 194.000 l8.165 0.000 l-0.000 3.175 l3.660 0.000 l0.000 -3.175 l4.340 0.000 l-0.000 3.175 l3.660 0.000 l0.000 -3.175 l4.340 0.000 l-0.000 3.175 l3.660 0.000 l0.000 -3.175 l4.340 0.000 l-0.000 3.175 l3.660 0.000 l0.000 -3.175 l4.340 0.000 l-0.000 3.175 l3.660 0.000 l0.000 -3.175 l4.340 0.000 l-0.000 3.175 l3.660 0.000 l0.000 -3.175 l4.340 0.000 l-0.000 3.175 l3.660 0.000 l0.000 -3.175 l4.340 0.000 l-0.000 3.175 l3.660 0.000 l0.000 -3.175 l4.340 0.000 l-0.000 3.175 l3.660 0.000 l0.000 -3.175 l4.340 0.000 l-0.000 3.175 l3.660 0.000 l0.000 -3.175 l4.340 0.000 l-0.000 3.175 l3.660 0.000 l0.000 -3.175 l8.165 0.000 l0.000 8.165 l-3.175 -0.000 l0.000 3.660 l3.175 0.000 l0.000 4.340 l-3.175 -0.000 l0.000 3.660 l3.175 0.000 l0.000 4.340 l-3.175 -0.000 l0.000 3.660 l3.175 0.000 l0.000 4.340 l-3.175 -0.000 l0.000 3.660 l3.175 0.000 l0.000 4.340 l-3.175 -0.000 l0.000 3.660 l3.175 0.000 l0.000 4.340 l-3.175 -0.000 l0.000 3.660 l3.175 0.000 l0.000 4.340 l-3.175 -0.000 l0.000 3.660 l3.175 0.000 l0.000 4.340 l-3.175 -0.000 l0.000 3.660 l3.175 0.000 l0.000 4.340 l-3.175 -0.000 l0.000 3.660 l3.175 0.000 l0.000 4.340 l-3.175 -0.000 l0.000 3.660 l3.175 0.000 l0.000 4.340 l-3.175 -0.000 l0.000 3.660 l3.175 0.000 l0.000 8.165 l-8.165 0.000 l-0.000 -3.175 l-3.660 0.000 l0.000 3.175 l-4.340 0.000 l-0.000 -3.175 l-3.660 0.000 l0.000 3.175 l-4.340 0.000 l-0.000 -3.175 l-3.660 0.000 l0.000 3.175 l-4.340 0.000 l-0.000 -3.175 l-3.660 0.000 l0.000 3.175 l-4.340 0.000 l-0.000 -3.175 l-3.660 0.000 l0.000 3.175 l-4.340 0.000 l-0.000 -3.175 l-3.660 0.000 l0.000 3.175 l-4.340 0.000 l-0.000 -3.175 l-3.660 0.000 l0.000 3.175 l-4.340 0.000 l-0.000 -3.175 l-3.660 0.000 l0.000 3.175 l-4.340 0.000 l-0.000 -3.175 l-3.660 0.000 l0.000 3.175 l-4.340 0.000 l-0.000 -3.175 l-3.660 0.000 l0.000 3.175 l-4.340 0.000 l-0.000 -3.175 l-3.660 0.000 l0.000 3.175 l-8.165 0.000 l0.000 -8.165 l3.175 -0.000 l0.000 -3.660 l-3.175 0.000 l0.000 -4.340 l3.175 -0.000 l0.000 -3.660 l-3.175 0.000 l0.000 -4.340 l3.175 -0.000 l0.000 -3.660 l-3.175 0.000 l0.000 -4.340 l3.175 -0.000 l0.000 -3.660 l-3.175 0.000 l0.000 -4.340 l3.175 -0.000 l0.000 -3.660 l-3.175 0.000 l0.000 -4.340 l3.175 -0.000 l0.000 -3.660 l-3.175 0.000 l0.000 -4.340 l3.175 -0.000 l0.000 -3.660 l-3.175 0.000 l0.000 -4.340 l3.175 -0.000 l0.000 -3.660 l-3.175 0.000 l0.000 -4.340 l3.175 -0.000 l0.000 -3.660 l-3.175 0.000 l0.000 -4.340 l3.175 -0.000 l0.000 -3.660 l-3.175 0.000 l0.000 -4.340 l3.175 -0.000 l0.000 -3.660 l-3.175 0.000 l0.000 -8.165 Z" stroke="rgb(0,0,0)" stroke-width="0.1"/>
</g>
<g id="p-9" style="fill:none;stroke-linecap:round;stroke-linejoin:round;">
  <path d = "M120.000 194.000 l8.165 0.000 l-0.000 3.175 l3.660 0.000 l0.000 -3.175 l4.340 0.000 l-0.000 3.175 l3.660 0.000 l0.000 -3.175 l4.340 0.000 l-0.000 3.175 l3.660 0.000 l0.000 -3.175 l4.340 0.000 l-0.000 3.175 l3.660 0.000 l0.000 -3.175 l4.340 0.000 l-0.000 3.175 l3.660 0.000 l0.000 -3.175 l4.340 0.000 l-0.000 3.175 l3.660 0.000 l0.000 -3.175 l4.340 0.000 l-0.000 3.175 l3.660 0.000 l0.000 -3.175 l4.340 0.000 l-0.000 3.175 l3.660 0.000 l0.000 -3.175 l4.340 0.000 l-0.000 3.175 l3.660 0.000 l0.000 -3.175 l4.340 0.000 l-0.000 3.175 l3.660 0.000 l0.000 -3.175 l4.340 0.000 l-0.000 3.175 l3.660 0.000 l0.000 -3.175 l8.165 0.000 l0.000 8.165 l-3.175 -0.000 l0.000 3.660 l3.175 0.000 l0.000 4.340 l-3.175 -0.000 l0.000 3.660 l3.175 0.000 l0.000 4.340 l-3.175 -0.000 l0.000 3.660 l3.175 0.000 l0.000 4.340 l-3.175 -0.000 l0.000 3.660 l3.175 0.000 l0.000 4.340 l-3.175 -0.000 l0.000 3.660 l3.175 0.000 l0.000 4.340 l-3.175 -0.000 l0.000 3.660 l3.175 0.000 l0.000 4.340 l-3.175 -0.000 l0.000 3.660 l3.175 0.000 l0.000 4.340 l-3.175 -0.000 l0.000 3.660 l3.175 0.000 l0.000 4.340 l-3.175 -0.000 l0.000 3.660 l3.175 0.000 l0.000 4.340 l-3.175 -0.000 l0.000 3.660 l3.175 0.000 l0.000 4.340 l-3.175 -0.000 l0.000 3.660 l3.175 0.000 l0.000 8.165 l-8.165 0.000 l-0.000 -3.175 l-3.660 0.000 l0.000 3.175 l-4.340 0.000 l-0.000 -3.175 l-3.660 0.000 l0.000 3.175 l-4.340 0.000 l-0.000 -3.175 l-3.660 0.000 l0.000 3.175 l-4.340 0.000 l-0.000 -3.175 l-3.660 0.000 l0.000 3.175 l-4.340 0.000 l-0.000 -3.175 l-3.660 0.000 l0.000 3.175 l-4.340 0.000 l-0.000 -3.175 l-3.660 0.000 l0.000 3.175 l-4.340 0.000 l-0.000 -3.175 l-3.660 0.000 l0.000 3.175 l-4.340 0.000 l-0.000 -3.175 l-3.660 0.000 l0.000 3.175 l-4.340 0.000 l-0.000 -3.175 l-3.660 0.000 l0.000 3.175 l-4.340 0.000 l-0.000 -3.175 l-3.660 0.000 l0.000 3.175 l-4.340 0.000 l-0.000 -3.175 l-3.660 0.000 l0.000 3.175 l-8.165 0.000 l0.000 -8.165 l3.175 -0.000 l0.000 -3.660 l-3.175 0.000 l0.000 -4.340 l3.175 -0.000 l0.000 -3.660 l-3.175 0.000 l0.000 -4.340 l3.175 -0.000 l0.000 -3.660 l-3.175 0.000 l0.000 -4.340 l3.175 -0.000 l0.000 -3.660 l-3.175 0.000 l0.000 -4.340 l3.175 -0.000 l0.000 -3.660 l-3.175 0.000 l0.000 -4.340 l3.175 -0.000 l0.000 -3.660 l-3.175 0.000 l0.000 -4.340 l3.175 -0.000 l0.000 -3.660 l-3.175 0.000 l0.000 -4.340 l3.175 -0.000 l0.000 -3.660 l-3.175 0.000 l0.000 -4.340 l3.175 -0.000 l0.000 -3.660 l-3.175 0.000 l0.000 -4.340 l3.175 -0.000 l0.000 -3.660 l-3.175 0.000 l0.000 -4.340 l3.175 -0.000 l0.000 -3.660 l-3.175 0.000 l0.000 -8.165 Z" stroke="rgb(0,0,0)" stroke-width="0.1"/>
</g>
</svg>