<?xml version='1.0' encoding='utf-8'?>
<svg height="1000.0mm" viewBox="0.0 0.0 1000.0 1000.0" width="1000.0mm" 
xmlns="http://www.w3.org/2000/svg" xmlns:cc="http://creativecommons.org/ns#" xmlns:dc="http://purl.org/dc/elements/1.1/"
xmlns:inkscape="http://www.inkscape.org/namespaces/inkscape" xmlns:rdf="http://www.w3.org/1999/02/22-rdf-syntax-ns#"
xmlns:svg="http://www.w3.org/2000/svg" xmlns:xlink="http://www.w3.org/1999/xlink">

<g id="p-0" style="fill:none;stroke-linecap:round;stroke-linejoin:round;">
  <path d = "M10.000 20.000 l13.860 0.000 l0.000 -3.175 l8.290 0.000 l-0.000 3.175 l7.710 0.000 l0.000 -3.175 l8.290 0.000 l-0.000 3.175 l7.710 0.000 l0.000 -3.175 l8.290 0.000 l-0.000 3.175 l7.710 0.000 l0.000 -3.175 l8.290 0.000 l-0.000 3.175 l7.710 0.000 l0.000 -3.175 l8.290 0.000 l-0.000 3.175 l13.860 0.000 l0.000 12.965 l-3.175 -0.000 l0.000 7.710 l3.175 0.000 l0.000 16.140 l-100.000 0.000 l0.000 -16.140 l3.175 -0.000 l0.000 -7.710 l-3.175 0.000 l0.000 -12.965 Z" stroke="rgb(0,0,0)" stroke-width="0.1"/>
<text dominant-baseline="middle" font-size="20px" style="font-family: sans-serif ; font-weight: bold; font-style: normal; fill: rgb(0,0,0)" text-anchor="middle" transform="matrix( 1.000 0.000 0.000 1.000 56.825 38.4125 )"></text>
</g>
<g id="p-1" style="fill:none;stroke-linecap:round;stroke-linejoin:round;">
  <path d = "M120.000 10.000 l100.000 0.000 l0.000 10.140 l-3.175 -0.000 l0.000 7.710 l3.175 0.000 l0.000 8.290 l-3.175 -0.000 l0.000 7.710 l3.175 0.000 l0.000 8.290 l-3.175 -0.000 l0.000 7.710 l3.175 0.000 l0.000 6.965 l-13.860 0.000 l0.000 3.175 l-8.290 0.000 l-0.000 -3.175 l-7.710 0.000 l0.000 3.175 l-8.290 0.000 l-0.000 -3.175 l-7.710 0.000 l0.000 3.175 l-8.290 0.000 l-0.000 -3.175 l-7.710 0.000 l0.000 3.175 l-8.290 0.000 l-0.000 -3.175 l-7.710 0.000 l0.000 3.175 l-8.290 0.000 l-0.000 -3.175 l-13.860 0.000 l0.000 -6.965 l3.175 -0.000 l0.000 -7.710 l-3.175 0.000 l0.000 -8.290 l3.175 -0.000 l0.000 -7.710 l-3.175 0.000 l0.000 -8.290 l3.175 -0.000 l0.000 -7.710 l-3.175 0.000 l0.000 -10.140 Z" stroke="rgb(0,0,0)" stroke-width="0.1"/>
<text dominant-baseline="middle" font-size="20px" style="font-family: sans-serif ; font-weight: bold; font-style: normal; fill: rgb(0,0,0)" text-anchor="middle" transform="matrix( 1.000 0.000 0.000 1.000 166.825 38.4125 )"></text>
</g>
<g id="p-2" style="fill:none;stroke-linecap:round;stroke-linejoin:round;">
  <path d = "M10.000 90.000 l13.860 0.000 l0.000 -3.175 l8.290 0.000 l-0.000 3.175 l7.710 0.000 l0.000 -3.175 l8.290 0.000 l-0.000 3.175 l7.710 0.000 l0.000 -3.175 l8.290 0.000 l-0.000 3.175 l7.710 0.000 l0.000 -3.175 l8.290 0.000 l-0.000 3.175 l7.710 0.000 l0.000 -3.175 l8.290 0.000 l-0.000 3.175 l13.860 0.000 l0.000 9.965 l-3.175 -0.000 l0.000 7.710 l3.175 0.000 l0.000 11.140 l-3.175 -0.000 l0.000 4.710 l3.175 0.000 l0.000 3.580 l-100.000 0.000 l0.000 -3.580 l3.175 -0.000 l0.000 -4.710 l-3.175 0.000 l0.000 -11.140 l3.175 -0.000 l0.000 -7.710 l-3.175 0.000 l0.000 -9.965 Z" stroke="rgb(0,0,0)" stroke-width="0.1"/>
<text dominant-baseline="middle" font-size="20px" style="font-family: sans-serif ; font-weight: bold; font-style: normal; fill: rgb(0,0,0)" text-anchor="middle" transform="matrix( 1.000 0.000 0.000 1.000 60.0 108.4125 )"></text>
</g>
<g id="p-3" style="fill:none;stroke-linecap:round;stroke-linejoin:round;">
  <path d = "M123.175 80.000 l93.650 0.000 l0.000 8.000 l3.175 0.000 l0.000 12.552 l-3.175 -0.000 l0.000 7.710 l3.175 0.000 l0.000 8.290 l-3.175 -0.000 l0.000 7.710 l3.175 0.000 l0.000 12.552 l-13.860 0.000 l0.000 3.175 l-8.290 0.000 l-0.000 -3.175 l-7.710 0.000 l0.000 3.175 l-8.290 0.000 l-0.000 -3.175 l-7.710 0.000 l0.000 3.175 l-8.290 0.000 l-0.000 -3.175 l-7.710 0.000 l0.000 3.175 l-8.290 0.000 l-0.000 -3.175 l-7.710 0.000 l0.000 3.175 l-8.290 0.000 l-0.000 -3.175 l-13.860 0.000 l0.000 -12.552 l3.175 -0.000 l0.000 -7.710 l-3.175 0.000 l0.000 -8.290 l3.175 -0.000 l0.000 -7.710 l-3.175 0.000 l0.000 -12.552 l3.175 -0.000 l0.000 -8.000 Z" stroke="rgb(0,0,0)" stroke-width="0.1"/>
<text dominant-baseline="middle" font-size="20px" style="font-family: sans-serif ; font-weight: bold; font-style: normal; fill: rgb(0,0,0)" text-anchor="middle" transform="matrix( 1.000 0.000 0.000 1.000 170.0 108.4125 )"></text>
</g>
<g id="p-4" style="fill:none;stroke-linecap:round;stroke-linejoin:round;">
  <path d = "M13.175 160.000 l10.685 0.000 l0.000 -3.175 l8.290 0.000 l-0.000 3.175 l7.710 0.000 l0.000 -3.175 l8.290 0.000 l-0.000 3.175 l7.710 0.000 l0.000 -3.175 l8.290 0.000 l-0.000 3.175 l7.710 0.000 l0.000 -3.175 l8.290 0.000 l-0.000 3.175 l7.710 0.000 l0.000 -3.175 l8.290 0.000 l-0.000 3.175 l10.685 0.000 l0.000 9.685 l3.175 0.000 l0.000 8.290 l-3.175 -0.000 l0.000 10.860 l3.175 0.000 a 8 8 0 0 0 -8.000 8.000 l-88.825 0.000 l0.000 -7.860 l-3.175 0.000 l0.000 -8.290 l3.175 -0.000 l0.000 -7.710 l-3.175 0.000 l0.000 -8.290 l3.175 -0.000 l0.000 -4.685 Z" stroke="rgb(0,0,0)" stroke-width="0.1"/>
</g>
<g id="p-5" style="fill:none;stroke-linecap:round;stroke-linejoin:round;">
  <path d = "M123.175 150.000 l88.825 0.000 a 8 8 0 0 1 8.000 -8.000 a 8 8 0 0 1 8.000 8.000 a 8 8 0 0 1 -8.000 8.000 l-3.175 -0.000 l0.000 12.272 l3.175 0.000 l0.000 8.290 l-3.175 -0.000 l0.000 7.710 l3.175 0.000 l0.000 8.290 l-3.175 -0.000 l0.000 12.272 l-10.685 0.000 l0.000 3.175 l-8.290 0.000 l-0.000 -3.175 l-7.710 0.000 l0.000 3.175 l-8.290 0.000 l-0.000 -3.175 l-7.710 0.000 l0.000 3.175 l-8.290 0.000 l-0.000 -3.175 l-7.710 0.000 l0.000 3.175 l-8.290 0.000 l-0.000 -3.175 l-7.710 0.000 l0.000 3.175 l-8.290 0.000 l-0.000 -3.175 l-10.685 0.000 l0.000 -6.685 l-3.175 0.000 l0.000 -8.290 l3.175 -0.000 l0.000 -7.710 l-3.175 0.000 l0.000 -8.290 l3.175 -0.000 l0.000 -7.710 l-3.175 0.000 l0.000 -8.290 l3.175 -0.000 l0.000 -9.860 Z" stroke="rgb(0,0,0)" stroke-width="0.1"/>
<path d=" M 215.000 150.000 a 5 5 0 0 1 10 0 a 5 5 0 0 1 -10 0 Z" stroke="rgb(0,0,0)" stroke-width="0.1"/>
<path d= " M 216.825 146.700 l2.885 0.000 l0.000 3.290 l-2.885 -0.000 l-0.000 -2.710 Z" stroke="rgb(0,0,0)" stroke-width="0.1"/>
</g>
<g id="p-6" style="fill:none;stroke-linecap:round;stroke-linejoin:round;">
  <path d = "M10.000 230.000 l10.685 0.000 l0.000 -3.175 l8.290 0.000 l-0.000 3.175 l7.710 0.000 l0.000 -3.175 l8.290 0.000 l-0.000 3.175 l7.710 0.000 l0.000 -3.175 l8.290 0.000 l-0.000 3.175 l7.710 0.000 l0.000 -3.175 l8.290 0.000 l-0.000 3.175 l7.710 0.000 l0.000 -3.175 l8.290 0.000 l-0.000 3.175 l10.685 0.000 l0.000 4.685 l3.175 0.000 l0.000 8.290 l-3.175 -0.000 l0.000 7.710 l3.175 0.000 l0.000 8.290 l-3.175 -0.000 l0.000 7.860 l-88.825 0.000 a 8 8 0 0 0 -8.000 -8.000 l3.175 -0.000 l0.000 -10.860 l-3.175 0.000 l0.000 -8.290 l3.175 -0.000 l0.000 -9.685 Z" stroke="rgb(0,0,0)" stroke-width="0.1"/>
</g>
<g id="p-7" style="fill:none;stroke-linecap:round;stroke-linejoin:round;">
  <path d = "M128.000 220.000 l88.825 0.000 l0.000 9.860 l3.175 0.000 l0.000 8.290 l-3.175 -0.000 l0.000 7.710 l3.175 0.000 l0.000 8.290 l-3.175 -0.000 l0.000 7.710 l3.175 0.000 l0.000 8.290 l-3.175 -0.000 l0.000 6.685 l-10.685 0.000 l0.000 3.175 l-8.290 0.000 l-0.000 -3.175 l-7.710 0.000 l0.000 3.175 l-8.290 0.000 l-0.000 -3.175 l-7.710 0.000 l0.000 3.175 l-8.290 0.000 l-0.000 -3.175 l-7.710 0.000 l0.000 3.175 l-8.290 0.000 l-0.000 -3.175 l-7.710 0.000 l0.000 3.175 l-8.290 0.000 l-0.000 -3.175 l-10.685 0.000 l0.000 -12.272 l-3.175 0.000 l0.000 -8.290 l3.175 -0.000 l0.000 -7.710 l-3.175 0.000 l0.000 -8.290 l3.175 -0.000 l0.000 -12.272 l-3.175 0.000 a 8 8 0 0 1 -8.000 -8.000 a 8 8 0 0 1 8.000 -8.000 a 8 8 0 0 1 8.000 8.000 Z" stroke="rgb(0,0,0)" stroke-width="0.1"/>
<path d=" M 115.000 220.000 a 5 5 0 0 1 10 0 a 5 5 0 0 1 -10 0 Z" stroke="rgb(0,0,0)" stroke-width="0.1"/>
<path d= " M 120.300 216.700 l2.885 0.000 l0.000 3.290 l-2.885 -0.000 l-0.000 -2.710 Z" stroke="rgb(0,0,0)" stroke-width="0.1"/>
</g>
<g id="p-8" style="fill:none;stroke-linecap:round;stroke-linejoin:round;">
  <path d = "M10.000 290.000 l14.140 0.000 l-0.000 3.175 l7.710 0.000 l0.000 -3.175 l8.290 0.000 l-0.000 3.175 l7.710 0.000 l0.000 -3.175 l8.290 0.000 l-0.000 3.175 l7.710 0.000 l0.000 -3.175 l8.290 0.000 l-0.000 3.175 l7.710 0.000 l0.000 -3.175 l8.290 0.000 l-0.000 3.175 l7.710 0.000 l0.000 -3.175 l14.140 0.000 l0.000 14.140 l-3.175 -0.000 l0.000 7.710 l3.175 0.000 l0.000 8.290 l-3.175 -0.000 l0.000 7.710 l3.175 0.000 l0.000 8.290 l-3.175 -0.000 l0.000 7.710 l3.175 0.000 l0.000 8.290 l-3.175 -0.000 l0.000 7.710 l3.175 0.000 l0.000 8.290 l-3.175 -0.000 l0.000 7.710 l3.175 0.000 l0.000 14.140 l-14.140 0.000 l-0.000 -3.175 l-7.710 0.000 l0.000 3.175 l-8.290 0.000 l-0.000 -3.175 l-7.710 0.000 l0.000 3.175 l-8.290 0.000 l-0.000 -3.175 l-7.710 0.000 l0.000 3.175 l-8.290 0.000 l-0.000 -3.175 l-7.710 0.000 l0.000 3.175 l-8.290 0.000 l-0.000 -3.175 l-7.710 0.000 l0.000 3.175 l-14.140 0.000 l0.000 -14.140 l3.175 -0.000 l0.000 -7.710 l-3.175 0.000 l0.000 -8.290 l3.175 -0.000 l0.000 -7.710 l-3.175 0.000 l0.000 -8.290 l3.175 -0.000 l0.000 -7.710 l-3.175 0.000 l0.000 -8.290 l3.175 -0.000 l0.000 -7.710 l-3.175 0.000 l0.000 -8.290 l3.175 -0.000 l0.000 -7.710 l-3.175 0.000 l0.000 -14.140 Z" stroke="rgb(0,0,0)" stroke-width="0.1"/>
</g>
<g id="p-9" style="fill:none;stroke-linecap:round;stroke-linejoin:round;">
  <path d = "M120.000 290.000 l14.140 0.000 l-0.000 3.175 l7.710 0.000 l0.000 -3.175 l8.290 0.000 l-0.000 3.175 l7.710 0.000 l0.000 -3.175 l8.290 0.000 l-0.000 3.175 l7.710 0.000 l0.000 -3.175 l8.290 0.000 l-0.000 3.175 l7.710 0.000 l0.000 -3.175 l8.290 0.000 l-0.000 3.175 l7.710 0.000 l0.000 -3.175 l14.140 0.000 l0.000 14.140 l-3.175 -0.000 l0.000 7.710 l3.175 0.000 l0.000 8.290 l-3.175 -0.000 l0.000 7.710 l3.175 0.000 l0.000 8.290 l-3.175 -0.000 l0.000 7.710 l3.175 0.000 l0.000 8.290 l-3.175 -0.000 l0.000 7.710 l3.175 0.000 l0.000 8.290 l-3.175 -0.000 l0.000 7.710 l3.175 0.000 l0.000 14.140 l-14.140 0.000 l-0.000 -3.175 l-7.710 0.000 l0.000 3.175 l-8.290 0.000 l-0.000 -3.175 l-7.710 0.000 l0.000 3.175 l-8.290 0.000 l-0.000 -3.175 l-7.710 0.000 l0.000 3.175 l-8.290 0.000 l-0.000 -3.175 l-7.710 0.000 l0.000 3.175 l-8.290 0.000 l-0.000 -3.175 l-7.710 0.000 l0.000 3.175 l-14.140 0.000 l0.000 -14.140 l3.175 -0.000 l0.000 -7.710 l-3.175 0.000 l0.000 -8.290 l3.175 -0.000 l0.000 -7.710 l-3.175 0.000 l0.000 -8.290 l3.175 -0.000 l0.000 -7.710 l-3.175 0.000 l0.000 -8.290 l3.175 -0.000 l0.000 -7.710 l-3.175 0.000 l0.000 -8.290 l3.175 -0.000 l0.000 -7.710 l-3.175 0.000 l0.000 -14.140 Z" stroke="rgb(0,0,0)" stroke-width="0.1"/>
</g>
</svg>